<?xml version="1.0" encoding="utf-8"?>
<!-- Generator: Adobe Illustrator 25.2.1, SVG Export Plug-In . SVG Version: 6.00 Build 0)  -->
<svg version="1.1" id="Capa_1" xmlns="http://www.w3.org/2000/svg" xmlns:xlink="http://www.w3.org/1999/xlink" x="0px" y="0px"
	 viewBox="0 0 500 500" style="enable-background:new 0 0 500 500;" xml:space="preserve">
<style type="text/css">
	.st0{fill:#FE725D;}
	.st1{opacity:0.8;}
	.st2{fill:#FFFFFF;}
	.st3{opacity:0.5;fill:#FFFFFF;enable-background:new    ;}
	.st4{opacity:0.5;}
	.st5{fill:#FE725D;stroke:#263238;stroke-miterlimit:10;}
	.st6{fill:#FE725D;stroke:#263238;stroke-linecap:round;stroke-linejoin:round;}
	.st7{fill:#FFFFFF;stroke:#263238;stroke-linecap:round;stroke-linejoin:round;}
	.st8{fill:#263238;stroke:#263238;stroke-linecap:round;stroke-linejoin:round;}
	.st9{fill:#263238;}
	.st10{fill:#FFFFFF;stroke:#263238;stroke-miterlimit:10;}
	.st11{fill:#263238;stroke:#263238;stroke-miterlimit:10;}
	.st12{fill:none;stroke:#263238;stroke-linecap:round;stroke-linejoin:round;}
	.st13{fill:none;stroke:#FFFFFF;stroke-linecap:round;stroke-linejoin:round;}
</style>
<g id="freepik--background-simple--inject-32">
	<path class="st0" d="M134.2,118.1c-11.2,6.6-22.7,12.6-33.9,19.2c-51.8,30.3-94.4,71-99.7,133.2c-3.8,45.6,10.5,98.6,50.6,125
		c9.9,6.5,20.9,11,32.6,13.4c16.4,3.3,33.7,2,50.4,1.1V118.1z"/>
	<path class="st0" d="M374.6,53.3H213.8c-10.4,6.5-20.1,13.9-29,22.2h221C396.1,67.2,385.6,59.8,374.6,53.3z"/>
	<path class="st0" d="M367.1,49.1c-11.6-6.2-23.9-11.2-36.6-14.8c-38.5-10.8-76.5-3.6-109.5,14.8L367.1,49.1z"/>
	<path class="st0" d="M461.4,140.6c-14-22.6-31-43.1-50.7-60.9h-149v349.9c11.1,3.7,22.5,6.6,34.1,8.6c76,12.2,161-14.9,190.5-91.5
		C512.6,278.1,499.4,201.7,461.4,140.6z"/>
	<path class="st0" d="M252.4,79.7h-72c-3,2.9-5.9,6-8.7,9.1c-8.4,9.1-18,17.1-28.4,23.7v297c26.1-1,52.1,1.6,77.5,7.7
		c10.7,2.6,21.2,6,31.7,9.4L252.4,79.7z"/>
	<g class="st1">
		<path class="st2" d="M134.2,118.1c-11.2,6.6-22.7,12.6-33.9,19.2c-51.8,30.3-94.4,71-99.7,133.2c-3.8,45.6,10.5,98.6,50.6,125
			c9.9,6.5,20.9,11,32.6,13.4c16.4,3.3,33.7,2,50.4,1.1V118.1z"/>
		<path class="st2" d="M374.6,53.3H213.8c-10.4,6.5-20.1,13.9-29,22.2h221C396.1,67.2,385.6,59.8,374.6,53.3z"/>
		<path class="st2" d="M367.1,49.1c-11.6-6.2-23.9-11.2-36.6-14.8c-38.5-10.8-76.5-3.6-109.5,14.8L367.1,49.1z"/>
		<path class="st2" d="M461.4,140.6c-14-22.6-31-43.1-50.7-60.9h-149v349.9c11.1,3.7,22.5,6.6,34.1,8.6c76,12.2,161-14.9,190.5-91.5
			C512.6,278.1,499.4,201.7,461.4,140.6z"/>
		<path class="st2" d="M252.4,79.7h-72c-3,2.9-5.9,6-8.7,9.1c-8.4,9.1-18,17.1-28.4,23.7v297c26.1-1,52.1,1.6,77.5,7.7
			c10.7,2.6,21.2,6,31.7,9.4L252.4,79.7z"/>
	</g>
</g>
<g id="freepik--Shadow--inject-32">
	<ellipse class="st0" cx="246.9" cy="457" rx="205.2" ry="13.7"/>
	<ellipse class="st3" cx="246.9" cy="457" rx="205.2" ry="13.7"/>
</g>
<g id="freepik--Folders--inject-32">
	<polygon class="st0" points="199.6,91.7 179.9,91.7 179.9,95.9 179.9,121.1 179.9,125.4 221.6,125.4 221.6,95.9 201,95.9 	"/>
	<polygon class="st0" points="199.6,155.9 179.9,155.9 179.9,160.1 179.9,185.3 179.9,189.6 221.6,189.6 221.6,160.1 201,160.1 	"/>
	<polygon class="st0" points="199.6,220.1 179.9,220.1 179.9,224.4 179.9,249.5 179.9,253.8 221.6,253.8 221.6,224.4 201,224.4 	"/>
	<polygon class="st0" points="199.6,284.3 179.9,284.3 179.9,288.6 179.9,313.7 179.9,318 221.6,318 221.6,288.6 201,288.6 	"/>
	<polygon class="st0" points="199.6,348.5 179.9,348.5 179.9,352.8 179.9,377.9 179.9,382.2 221.6,382.2 221.6,352.8 201,352.8 	"/>
	<polygon class="st0" points="325.4,91.7 305.8,91.7 305.8,95.9 305.8,121.1 305.8,125.4 347.4,125.4 347.4,95.9 326.8,95.9 	"/>
	<polygon class="st0" points="407.1,95.9 405.7,91.7 386.1,91.7 386.1,95.9 386.1,121.1 386.1,125.4 427.7,125.4 427.7,95.9 	"/>
	<polygon class="st0" points="325.4,155.9 305.8,155.9 305.8,160.1 305.8,185.3 305.8,189.6 347.4,189.6 347.4,160.1 326.8,160.1 	
		"/>
	<polygon class="st0" points="405.7,220.1 386.1,220.1 386.1,224.4 386.1,249.5 386.1,253.8 427.7,253.8 427.7,224.4 407.1,224.4 	
		"/>
	<polygon class="st0" points="405.7,155.9 386.1,155.9 386.1,160.1 386.1,185.3 386.1,189.6 427.7,189.6 427.7,160.1 407.1,160.1 	
		"/>
	<polygon class="st0" points="325.4,220.1 305.8,220.1 305.8,224.4 305.8,249.5 305.8,253.8 347.4,253.8 347.4,224.4 326.8,224.4 	
		"/>
	<polygon class="st0" points="325.4,284.3 305.8,284.3 305.8,288.6 305.8,313.7 305.8,318 347.4,318 347.4,288.6 326.8,288.6 	"/>
	<polygon class="st0" points="405.7,284.3 386.1,284.3 386.1,288.6 386.1,313.7 386.1,318 427.7,318 427.7,288.6 407.1,288.6 	"/>
	<polygon class="st0" points="325.4,348.5 305.8,348.5 305.8,352.8 305.8,377.9 305.8,382.2 347.4,382.2 347.4,352.8 326.8,352.8 	
		"/>
	<polygon class="st0" points="405.7,348.5 386.1,348.5 386.1,352.8 386.1,377.9 386.1,382.2 427.7,382.2 427.7,352.8 407.1,352.8 	
		"/>
	<g class="st4">
		<polygon class="st2" points="199.6,91.7 179.9,91.7 179.9,95.9 179.9,121.1 179.9,125.4 221.6,125.4 221.6,95.9 201,95.9 		"/>
		<polygon class="st2" points="199.6,155.9 179.9,155.9 179.9,160.1 179.9,185.3 179.9,189.6 221.6,189.6 221.6,160.1 201,160.1 		
			"/>
		<polygon class="st2" points="199.6,220.1 179.9,220.1 179.9,224.4 179.9,249.5 179.9,253.8 221.6,253.8 221.6,224.4 201,224.4 		
			"/>
		<polygon class="st2" points="199.6,284.3 179.9,284.3 179.9,288.6 179.9,313.7 179.9,318 221.6,318 221.6,288.6 201,288.6 		"/>
		<polygon class="st2" points="199.6,348.5 179.9,348.5 179.9,352.8 179.9,377.9 179.9,382.2 221.6,382.2 221.6,352.8 201,352.8 		
			"/>
		<polygon class="st2" points="325.4,91.7 305.8,91.7 305.8,95.9 305.8,121.1 305.8,125.4 347.4,125.4 347.4,95.9 326.8,95.9 		"/>
		<polygon class="st2" points="407.1,95.9 405.7,91.7 386.1,91.7 386.1,95.9 386.1,121.1 386.1,125.4 427.7,125.4 427.7,95.9 		"/>
		<polygon class="st2" points="325.4,155.9 305.8,155.9 305.8,160.1 305.8,185.3 305.8,189.6 347.4,189.6 347.4,160.1 326.8,160.1 
					"/>
		<polygon class="st2" points="405.7,220.1 386.1,220.1 386.1,224.4 386.1,249.5 386.1,253.8 427.7,253.8 427.7,224.4 407.1,224.4 
					"/>
		<polygon class="st2" points="405.7,155.9 386.1,155.9 386.1,160.1 386.1,185.3 386.1,189.6 427.7,189.6 427.7,160.1 407.1,160.1 
					"/>
		<polygon class="st2" points="325.4,220.1 305.8,220.1 305.8,224.4 305.8,249.5 305.8,253.8 347.4,253.8 347.4,224.4 326.8,224.4 
					"/>
		<polygon class="st2" points="325.4,284.3 305.8,284.3 305.8,288.6 305.8,313.7 305.8,318 347.4,318 347.4,288.6 326.8,288.6 		"/>
		<polygon class="st2" points="405.7,284.3 386.1,284.3 386.1,288.6 386.1,313.7 386.1,318 427.7,318 427.7,288.6 407.1,288.6 		"/>
		<polygon class="st2" points="325.4,348.5 305.8,348.5 305.8,352.8 305.8,377.9 305.8,382.2 347.4,382.2 347.4,352.8 326.8,352.8 
					"/>
		<polygon class="st2" points="405.7,348.5 386.1,348.5 386.1,352.8 386.1,377.9 386.1,382.2 427.7,382.2 427.7,352.8 407.1,352.8 
					"/>
	</g>
</g>
<g id="freepik--Characters--inject-32">
	<path class="st5" d="M89.3,187.6c0,0-1.3,8.6,2.9,14.5c4.2,5.9,34.5,30.6,37.2,32c2.7,1.4,14.3-1.6,10.8-11
		c-3.5-9.4-29.1-29.3-34.2-34.7c-5.1-5.4-9.9-4.6-9.9-4.6"/>
	<path class="st6" d="M135.8,219c0,0,5.8,0.4,16.6,0c10.8-0.4,37.8,1.2,42,1.2h4.2l-0.4,9.6c0,0-20.4,1.7-34.5,3.7
		c-14.1,2.1-25.8,4.6-37.4-1.2"/>
	<path class="st7" d="M198.5,220.3l0.7-1.7c1.1-2.7,3.1-4.9,5.6-6.5l0,0c2.2-0.6,4.3-1.6,6.2-2.8l0.3-0.2c0,0,2.6,0.8,1.1,2.8
		c-0.8,1.2-2.1,1.9-3.6,1.8l-2.1,3.3l14.3,1.2c0,0,2.1,0.8,0.4,2.1c-1.7,1.2-9.8,0.9-9.8,0.9l10.3,1.8c0,0,1.2,1.2,0.7,2.2
		c-0.5,1-11.3-0.3-11.3-0.3l9.2,2.5c0.8,0.6,1,1.6,0.7,2.5c-0.3,0.8-2.3,0.5-3.2,0.2s-6.8-1.3-6.8-1.3l6.7,3.7
		c-0.1,0.8-0.7,1.5-1.4,1.8c-1,0.3-2,0.3-3,0l-8.7-3.5c0,0-0.5,1.2-6.9-0.8L198.5,220.3z"/>
	<path class="st7" d="M206.8,217c0,0,0.8,6.1-2.3,7.3"/>
	<path class="st5" d="M398.6,191.4c0,0-0.5,8.7-5.8,13.6c-5.3,4.9-40,22.9-42.9,23.7c-2.9,0.9-13.7-4.5-8.4-13
		c5.3-8.5,34.4-22.8,40.6-27c6.1-4.3,10.6-2.5,10.6-2.5"/>
	<path class="st6" d="M346.7,212.7c0,0-5.8-0.8-16.3-3.4c-10.5-2.6-37.3-6.5-41.4-7.3l-4.1-0.9l-1.5,9.4c0,0,19.5,5.8,33,10.7
		c13.5,4.9,24.3,9.8,36.9,6.4"/>
	<path class="st7" d="M285,201.1l-0.4-1.8c-0.6-2.9-2.1-5.5-4.2-7.5l0,0c-2-1.1-3.9-2.5-5.5-4l-0.3-0.3c0,0-2.7,0.2-1.6,2.5
		c0.5,1.3,1.7,2.3,3.1,2.5l1.4,3.7l-14.2-1.8c0,0-2.2,0.4-0.8,1.9c1.4,1.5,9.3,2.9,9.3,2.9l-10.5-0.3c0,0-1.4,0.9-1.1,2
		c0.3,1.1,11.2,2,11.2,2l-9.5,0.6c-0.9,0.4-1.4,1.4-1.2,2.3c0.2,0.9,2.2,1,3.1,0.8c0.9-0.2,7,0.1,7,0.1l-7.3,2.2
		c0,0.8,0.3,1.6,0.9,2.1c0.9,0.5,1.9,0.7,2.9,0.6l9.2-1.7c0,0,0.2,1.2,6.9,0.7L285,201.1z"/>
	<path class="st7" d="M277.5,196.1c0,0-2.1,5.8,0.8,7.6"/>
	<polygon class="st7" points="287.3,256.5 208,256.5 208,150.3 263.7,150.3 287.3,171.9 	"/>
	<polygon class="st8" points="263.7,150.3 263.7,171.9 287.3,171.9 	"/>
	
		<ellipse transform="matrix(0.7071 -0.7071 0.7071 0.7071 -89.6752 269.0261)" class="st9" cx="279.9" cy="242.8" rx="21.4" ry="21.4"/>
	<polygon class="st2" points="291.4,240.3 282.4,240.3 282.4,231.2 277.4,231.2 277.4,240.3 268.4,240.3 268.4,245.2 277.4,245.2 
		277.4,254.3 282.4,254.3 282.4,245.2 291.4,245.2 	"/>
	<polygon class="st8" points="326.2,376.8 173.6,376.8 156,259.2 326.2,259.2 	"/>
	<path class="st6" d="M246.7,259.2l-2.3-6.6c-1.3-3.6-4.7-6-8.5-6h-61.7v130.2h152.6l17.6-117.6H246.7z"/>
	<path class="st5" d="M79.9,433.5c0,0,3.4,7.6,6.8,10.1s9.8,2.1,10.6,6.4c0.8,4.2-2.5,4.6-5.5,4.6s-12.3,0-14-0.4
		c-5.3-1.9-10.3-4.6-14.8-8c-5.1-4.2-6.3-3.8-2.5-11.9C64.3,426.3,79.9,433.5,79.9,433.5z"/>
	<path class="st10" d="M97.4,450.8c-4.1,0.7-12.1,1.7-19.2,0c-7.1-1.7-15.4-8.1-19.7-11.6c-0.9,3.3,0.8,3.9,4.5,7
		c4.5,3.4,9.5,6.1,14.8,8c1.7,0.4,11,0.4,14,0.4C94.8,454.6,97.7,454.2,97.4,450.8z"/>
	<path class="st11" d="M92.6,295.3c0,0-5.8,48.7-10.5,61c-4.6,12.3-11.7,20-13.3,29.3c-1.7,9.3-8.4,48.7-8.4,48.7s4.2,4.2,7.2,3.8
		s11.8,0.9,14.4-3.8c2.5-4.7,3.2-12.2,3.6-13.5c0.4-1.3,18.1-35.6,22.4-49.1c4.3-13.5,17.9-69.5,17.4-76.2"/>
	<path class="st11" d="M89.5,261.9c0,0-5.2,15.2-3.2,28.8c1.9,13.6,17.2,20.4,27.9,18.5c10.7-2,13.6-9.4,13.6-22.3
		c0-8-0.6-16-1.7-23.9C114.2,266.8,101.3,266.4,89.5,261.9z"/>
	<path class="st5" d="M93.1,162.7c0,0-9.8,18.1-10.4,32.7c-0.6,14.6,6.8,66.4,6.8,66.4s2.9,5.8,16.9,6.5c13.9,0.6,19.8-4.2,19.8-4.2
		s4.9-33.1,4.9-50.6s-13.6-43.4-13.6-43.4L93.1,162.7z"/>
	<path class="st12" d="M85.6,203.1c0,0,0.9,10.3,13.3,11.5"/>
	<path class="st12" d="M89,216.8c4.5,2.7,9.9,3.6,15,2.6"/>
	<path class="st12" d="M93.7,262.5c0,0,12.4-10.7,18.8-20.5"/>
	<path class="st12" d="M111.3,252.3c0,0-10.7,11.2-14.5,12.4"/>
	<path class="st10" d="M100.2,138.7c0,0-0.3,9.1-1.3,15.2c-1,6.2-1.3,8.8-1.3,8.8l17.8,6.8c0,0-1.6-12.3,0.6-17.5
		c1.3-2.8,2.2-5.7,2.6-8.7c0,0-5.8-14.3-12-15.2C100.6,127,100.2,138.7,100.2,138.7z"/>
	<path class="st11" d="M124.5,112.5c0,0,3.2-2.9-1-12.6s-24.6-9.1-34.4-0.3s-13,24.3-4.5,34.4s18.5,11.3,25,7.5s7.1-11.3,7.1-14.3
		s-2.3-10,1-12C119.8,113.9,122.1,113,124.5,112.5z"/>
	<polygon class="st10" points="91.2,163.4 120,175.1 118.4,165.7 92.8,155 	"/>
	<path class="st5" d="M128.2,444.9c0,0,8.5,5.1,13.1,7.2s5.1,1.7,5.1,4.6c0,3,0.4,3.4-7.2,3.4c-7.6,0-29.6,0.4-31.7-1.3
		C105.3,457.2,125.2,443.6,128.2,444.9z"/>
	<path class="st10" d="M139.2,460.1c7.1,0,7.2-0.4,7.2-2.8c-21.7,0.7-32.2-0.2-37.4-1.1c-1.4,1.3-2,2.3-1.5,2.7
		C109.6,460.5,131.6,460.1,139.2,460.1z"/>
	<path class="st10" d="M123.6,110.2c0,0-15.2,7.1-15.2,9.8c0,2.6,6.5,3.6,4.5,6.8c-0.9,1.6-2,3.1-3.3,4.5c0,0,2.6,4.5,0.3,5.2
		s-3.2,0.6-5.6-2.6s-4.5-4.9-5.2,0.7c-0.6,5.5,1.9,6.5,3.9,6.8c1.5,0.2,3,0.2,4.5,0c0,0,3.3,7.8,5.5,8.8c2.3,1,13.3,2.3,15.5-0.3
		s0.7-14.3,0.7-14.3s3.2-0.6,3.2-3.6c0-2.9-5.2-7.1-5.2-7.1s1.3-1.9,0.3-6.5C127,115.4,125.6,112.6,123.6,110.2z"/>
	<path class="st9" d="M124,126.3c0,1-0.4,1.9-0.9,1.9c-0.5,0-0.9-0.8-0.9-1.9c0-1,0.4-1.8,0.9-1.8C123.6,124.4,124,125.2,124,126.3z
		"/>
	<path class="st12" d="M119.9,122.9c0,0,0.5-2.8,4.7-2.2"/>
	<path class="st12" d="M125.4,139.7c-1.6-0.1-3-0.9-4-2.1"/>
	<path class="st11" d="M90.1,296.2c0,0,3,29.2,6.8,41.9c3.8,12.7,3.8,18.1,2.5,29.2c-1.3,11-5.5,21.1-2.5,31.3s8.9,53.6,8.9,55.3
		c0,1.7-0.4,4.2,1.7,5.1c2.1,0.9,20.3-11.4,20.7-14c0.4-2.5-3-10.1-3-16.9s2.1-46.4,2.1-65.4s2.1-55.4-4.6-72.3"/>
	<path class="st13" d="M92.5,314.6c0,0,2,14.2,4.4,23.4c2.4,9.3,4.8,13.6,1.9,25.1s-3.9,15.4-2.4,21.2"/>
	<path class="st5" d="M351.2,436.6c0,0-17.3,5.8-21.4,7c-4.1,1.2-7.8,2.1-4.1,6.2c3.7,4.1,21.8,4.5,27.2,4.5s9.1,2.9,10.3-0.4
		s1.2-12.4,1.2-12.4L351.2,436.6z"/>
	<path class="st10" d="M363.7,451.9c-4.6-0.1-13.3-0.6-23.6-1.9c-5.4-0.5-10.7-1.8-15.8-3.7c-0.4,0.8,0,1.9,1.4,3.5
		c3.7,4.1,21.8,4.5,27.2,4.5s9.1,2.9,10.3-0.4C363.4,453.3,363.6,452.6,363.7,451.9z"/>
	<path class="st5" d="M403.5,440.7c0,0-13.2,9.9-16.9,11.9c-3.7,2.1-4.5,5.4-1.2,5.4s30.1,0.8,33.8-1.6c3.7-2.5-1.6-14.4-1.6-14.4
		S407.6,440.7,403.5,440.7z"/>
	<path class="st10" d="M419.2,456.4c1-0.7,1.4-2.2,1.3-3.9c-12,2.1-24.1,2.9-36.3,2.2c-1.3,1.7-1,3.3,1.3,3.3
		C388.7,458.1,415.5,458.9,419.2,456.4z"/>
	<path class="st11" d="M371.8,249.5c0,0-18.1,63-19,77.9c-0.8,14.8-1.6,93.6-1.6,97.3v11.9l13.2,4.9c0,0,6.2-46.6,7.4-57.8
		c1.2-11.1,2.1-23.5,3.7-29.3s4.9-29.3,6.2-34.2c1.2-4.9,4.1-25.5,3.3-49S374.7,243.7,371.8,249.5z"/>
	<path class="st11" d="M369.7,245c0,0,0.4,18.5,0.8,36.7c0.4,18.1-0.8,45.7,3.3,65.5c4.1,19.8,20.2,62.7,21.8,69.7
		c1.6,7,7.4,25.6,7.4,25.6s9.1,0.8,14.4-0.4c0,0-5.4-40-6.2-55.7c-0.8-15.7-10.7-37.9-12.8-43.3c-2.1-5.4,4.2-48.2,4.2-48.2
		s9.9-18.1,7.4-29.7c-1.4-6.8-4.7-13.1-9.5-18.1C400.7,247,375.9,250.4,369.7,245z"/>
	<path class="st13" d="M371.1,270.8c0,0-0.5,47.6,1.4,61.1c1.9,13.5,3.8,18.8,3.8,18.8"/>
	<path class="st5" d="M399.8,166.6c0,0-4.9-3.7-15.6,4.2c-10.7,7.9-23.1,29.2-22.2,37.5c0.8,8.2,7.8,32.6,7.8,36.7s1.2,2.5,6.2,4.1
		c4.9,1.6,19,1.2,22.2-0.4c3.3-1.6,1.6-12.4,2.5-21.4c0.8-9.1,6.2-26.8,5.8-39.6S401.4,168.3,399.8,166.6z"/>
	<path class="st10" d="M379.6,119.7c0,0-4.9,6.2-4.9,10.3c0,4.1-0.9,8.4-3.4,10.4c-2.5,2-2.4,4-0.3,4.4l2.1,0.4c0,0,1.2,9,2.8,12.3
		c1.6,3.3,7.5,0.5,8.7,0c1.2-0.5-0.4,11.9-0.4,13.2c0,1.2,12.4-0.4,14-0.4s0.8-14.8,2.5-19.4c1.6-4.5,7-10.3,0.4-20.2
		S383.3,112.7,379.6,119.7z"/>
	<path class="st9" d="M377.8,138.1c0,1,0.4,1.8,0.9,1.8s0.9-0.8,0.9-1.8s-0.4-1.9-0.9-1.9S377.8,137,377.8,138.1z"/>
	<path class="st12" d="M375.3,148.5c0,0,1.4,1.6,4.6-0.5"/>
	<path class="st12" d="M376.4,132.9c0,0,2.4-2.9,5.3,0.8"/>
	<path class="st10" d="M391.3,165.9c0,0-10.7,3.8-12.4,6.4s-3,6.8-0.4,6.8s13.7-7.5,16.7-8.1S395.2,162,391.3,165.9z"/>
	<path class="st11" d="M379.6,119.7c1,5.5,3.3,10.7,6.6,15.2c5.4,7,10.7,5.4,9.5,11.2c-1.2,5.8-10.3,14-6.6,23.1
		c3.7,9.1,11.9,10.7,13.6,14.4s5.4,4.9,1.2,19.8c-4.1,14.8-10.3,26.8-5,40.8c5.3,14,19.4,17.7,30.1,12.8c10.7-4.9,4.1-20.6,6.6-30.1
		c2.5-9.5,23.9-16.9,16.5-43.3s-24.7-33.4-29.3-42.4c-4.6-9.1-3.7-24.3-13.2-30.5c-9.5-6.2-20.2-0.8-23.9,0
		c-3.7,0.8-5.8-5.4-13.2-2.5s-11.8,16.7,1.4,19.7C375.3,124.8,377.3,122.1,379.6,119.7z"/>
	<path class="st13" d="M393.2,139.4c2.6,2.7,5.7,4.8,9.1,6.3c15.4,6.7,26,16.4,26,32.7s-15.4,27.4-15.9,41.4s7.2,24.5,15.4,20.2
		c8.1-4.3,4.3-13,1.4-13"/>
	<path class="st13" d="M386,124.1c0.3,2.9,1.1,5.7,2.4,8.3"/>
	<path class="st13" d="M436.1,169.7c3.1,6.8,4.7,14.3,4.7,21.8c-0.5,16.8-20.7,24.5-23.1,34.6c-2.2,9.1,4.3,17.3,10.1,14"/>
	<path class="st13" d="M430.2,158.7c1.4,2,2.6,4.2,3.7,6.3"/>
	<path class="st13" d="M407.6,191.4c2-6.5,1.8-13.4-0.5-19.7c-3.9-10.1-8.2-14.9-8.2-20.2"/>
	<path class="st13" d="M379.6,119.7c-1.5-2.6-4.2-4.2-7.1-4.3c-4.8,0-4.3,6.3,0.9,7.2"/>
	<path class="st5" d="M96.9,180.3c0,0-5.9,8.5-4.6,16.9c1.3,8.5,20.3,50.8,22.4,53.7c2.1,3,16.1,5.9,17.3-5.9s-15.2-46.5-17.8-55
		c-2.5-8.5-8-10.1-8-10.1"/>
	<path class="st5" d="M128.8,236.1c0,0,12.4,1.6,21.1,6.8c8.7,5.2,36.3,15.1,36.3,15.1l-2,8.2c0,0-30.4-3.5-43.3-5.9
		c-12.9-2.4-21.2-3.5-26-10.3"/>
	<path class="st7" d="M211.3,268.4l-11.3-3.5l0.1-1.2c0,0,9.6,1.9,10.7,2c1,0.1,1.4-0.4,1.4-1c-0.1-0.5-0.3-1-0.7-1.3l-15.8-5.7
		l9.1-1.7c1.3-1-0.1-2.1-0.1-2.1l-10.6,0.3l-7.8,3.9l-2,8.2c0,0,14.6,12.6,15.2,13c0.7,0.4,1,1,2.1,0.4c1-0.7,0.7-1.4,0.7-1.4
		l-4.6-4.8l8,2.4c0.9,0.3,1,0.5,1.7,0.3c0.7-0.3,0.8-2,0.8-2l-9.3-4.3l0.4-0.9c0,0,10.3,2.5,11,2.5s1,0,1.6-1.2
		C212,269.6,211.9,268.8,211.3,268.4z"/>
	<path class="st5" d="M402.5,183.9c0,0-5.7-7.9-13.8-2.8s-37.3,32.3-37.3,32.3s-5.9,7,2.8,12.1c8.7,5.1,44.4-26.7,48.3-29.3"/>
	<path class="st5" d="M357.3,213.5c0,0-4.3-2.7-14.2-4.5c-9.9-1.7-43.8-20.6-43.8-20.6l-5.6,7c0,0,23.9,17.5,36.3,25.1
		s18,9.5,22,9.1c4-0.4,13.3-9.1,13.3-9.1"/>
	<path class="st7" d="M275.9,173.3l9,7.2l0.9-0.7c0,0-6.7-6.8-7.4-7.5c-0.7-0.8-0.5-1.4,0-1.7c0.4-0.2,0.9-0.3,1.4-0.2l13.1,9.7
		l-3.5-8.2c0.1-1.6,1.8-1,1.8-1l5.6,8.7l1.7,8.6l-4.3,7.8c0,0-19.9-6.8-20.6-7.1s-1.4-0.3-1.5-1.5c-0.1-1.2,0.8-1.3,0.8-1.3l6.4,1.2
		l-6.2-5.2c-0.7-0.6-1-0.6-1.1-1.2s1.2-1.7,1.2-1.7l8.6,5.2l0.5-0.8c0,0-7.7-7-8-7.6c-0.4-0.6-0.6-0.9,0.1-1.9
		C274.6,173.3,275.3,173.1,275.9,173.3z"/>
</g>
</svg>
