<?xml version="1.0" encoding="utf-8"?>
<!-- Generator: Adobe Illustrator 25.2.1, SVG Export Plug-In . SVG Version: 6.00 Build 0)  -->
<svg version="1.1" id="Capa_1" xmlns="http://www.w3.org/2000/svg" xmlns:xlink="http://www.w3.org/1999/xlink" x="0px" y="0px"
	 viewBox="0 0 500 500" style="enable-background:new 0 0 500 500;" xml:space="preserve">
<style type="text/css">
	.st0{fill:#F5F5F5;}
	.st1{fill:#E6E6E6;}
	.st2{fill:#FE725D;}
	.st3{opacity:0.15;enable-background:new    ;}
	.st4{fill:#37474F;}
	.st5{opacity:0.3;enable-background:new    ;}
	.st6{fill:#455A64;}
	.st7{fill:#263238;}
	.st8{opacity:0.1;enable-background:new    ;}
	.st9{opacity:5.000000e-02;enable-background:new    ;}
	.st10{fill:none;}
	.st11{opacity:0.7;fill:#FFFFFF;enable-background:new    ;}
	.st12{opacity:0.5;enable-background:new    ;}
	.st13{opacity:0.2;enable-background:new    ;}
	.st14{opacity:0.8;fill:#FFFFFF;enable-background:new    ;}
	.st15{opacity:0.5;fill:#FFFFFF;enable-background:new    ;}
	.st16{opacity:0.6;fill:#FFFFFF;enable-background:new    ;}
	.st17{opacity:0.4;enable-background:new    ;}
	.st18{opacity:0.25;enable-background:new    ;}
	.st19{fill:#FFA8A7;}
	.st20{fill:#E0E0E0;}
	.st21{fill:#F28F8F;}
</style>
<g id="freepik--Floor--inject-33">
	<ellipse id="freepik--floor--inject-33" class="st0" cx="250" cy="378.8" rx="230.7" ry="112.1"/>
</g>
<g id="freepik--Shadows--inject-33">
	<path id="freepik--Shadow--inject-33" class="st1" d="M152.1,433.5c-1,0-1.8-0.7-2-1.6l-0.4-2.4c-1-0.2-2.1-0.4-3.1-0.8h-0.1
		l-4.3,2c-0.3,0.1-0.7,0.2-1,0.2c-0.4,0-0.8-0.1-1.2-0.3l-4.2-2.5c-0.8-0.4-1.1-1.5-0.7-2.3c0.1-0.2,0.3-0.5,0.5-0.6l2.6-1.8
		c-0.2-0.3-0.4-0.7-0.6-1l-5.4-0.3c-1-0.1-1.8-0.9-1.8-1.9V417c0-1,0.8-1.9,1.8-1.9l5.4-0.3c0.2-0.3,0.4-0.7,0.6-1l-2.6-1.8
		c-0.5-0.3-0.8-0.9-0.7-1.5c0-0.6,0.4-1.1,0.9-1.4l4.2-2.5c0.4-0.2,0.8-0.3,1.2-0.3c0.3,0,0.7,0.1,1,0.2l4.3,2h0.1l0,0
		c1-0.3,2.1-0.6,3.1-0.8l0.4-2.4c0.2-1,1-1.6,2-1.6h6.2c1,0,1.8,0.7,2,1.6l0.5,2.4c1,0.2,2.1,0.4,3.1,0.8h0.1l4.3-2
		c0.3-0.1,0.7-0.2,1-0.2c0.4,0,0.8,0.1,1.2,0.3l4.2,2.5c0.5,0.3,0.9,0.8,0.9,1.4c0,0.6-0.3,1.1-0.7,1.5l-2.6,1.8
		c0.2,0.3,0.4,0.7,0.6,1l5.4,0.3c1,0.1,1.8,0.9,1.8,1.9v3.2c0,1-0.8,1.9-1.8,1.9l-5.4,0.3c-0.2,0.3-0.4,0.7-0.6,1l2.6,1.8
		c0.5,0.3,0.8,0.9,0.7,1.5c0,0.6-0.4,1.1-0.9,1.4l-4.2,2.5c-0.4,0.2-0.8,0.3-1.2,0.3l0,0c-0.3,0-0.7-0.1-1-0.2l-4.3-2l0,0l0,0
		c-1,0.3-2.1,0.6-3.1,0.8l-0.5,2.4c-0.2,1-1,1.6-2,1.6L152.1,433.5z M155.3,414.1c-2.3-0.1-4.5,0.5-6.5,1.5c-1.4,0.8-2.3,1.9-2.3,3
		s0.8,2.1,2.3,3c4.1,2.1,8.9,2.1,13,0c1.4-0.8,2.3-1.9,2.3-3s-0.8-2.1-2.3-3C159.8,414.6,157.5,414,155.3,414.1L155.3,414.1z"/>
	<path id="freepik--shadow--inject-33" class="st1" d="M200.6,405.6c-0.6,0-1.2-0.3-1.6-0.7l-1.7-1.8h-1.2c-0.4,0-0.8,0-1.2,0
		l-1.8,1.9c-0.4,0.4-0.9,0.6-1.5,0.6c-0.2,0-0.4,0-0.5-0.1l-4.2-1c-0.5-0.1-1-0.5-1.2-1c-0.2-0.4-0.2-0.9,0-1.4l0.7-1.3
		c-0.4-0.2-0.7-0.4-1-0.6l-4,0.7c-0.1,0-0.2,0-0.3,0c-0.7,0-1.3-0.3-1.7-0.9l-1.6-2.2c-0.2-0.3-0.3-0.6-0.4-1c0-0.7,0.5-1.4,1.1-1.6
		l3.1-1c0,0,0-0.1,0-0.1l-2.9-0.9c-0.7-0.2-1.2-0.8-1.3-1.5v-0.1c0-0.3,0.1-0.7,0.3-0.9l1.7-2.4c0.4-0.5,1-0.8,1.6-0.8
		c0.1,0,0.2,0,0.4,0l3.9,0.7c0.3-0.2,0.6-0.4,0.9-0.6l0.1-0.1l-0.6-1.2c-0.1-0.2-0.2-0.4-0.2-0.7v-0.2v-0.1c0.1-0.7,0.6-1.2,1.2-1.4
		l4.4-1c0.1,0,0.3-0.1,0.4,0c0.6,0,1.2,0.3,1.6,0.7l1.7,1.8c0.4,0,0.9,0,1.3,0s0.8,0,1.2,0l1.8-1.9c0.4-0.4,0.9-0.6,1.5-0.6
		c0.2,0,0.4,0,0.5,0.1l4.2,1c0.8,0.2,1.4,0.8,1.4,1.6c0,0.2,0,0.5-0.1,0.7l-0.7,1.4l0.1,0.1c0.3,0.2,0.6,0.4,0.9,0.5l4-0.7
		c0.1,0,0.2,0,0.3,0c0.7,0,1.3,0.3,1.7,0.9l1.6,2.2c0.2,0.3,0.3,0.6,0.4,1v0.2v0.1c-0.1,0.6-0.5,1.1-1.1,1.3l-3.1,1v0.1l3,0.9
		c0.9,0.3,1.4,1.2,1.2,2.1c0,0.1-0.1,0.3-0.2,0.4c-0.5,0.8-1.1,1.5-1.6,2.3l-0.1,0.1c-0.4,0.5-1,0.8-1.6,0.8h-0.4l-3.9-0.6
		c-0.3,0.2-0.7,0.4-1,0.6l0.6,1.2c0.2,0.5,0.2,1,0,1.5c-0.2,0.5-0.6,0.8-1.1,0.9l-4.4,1C201,405.6,200.8,405.6,200.6,405.6z
		 M190,395c0.2,0.3,0.5,0.6,0.8,0.8c0.2,0.1,0.3,0.2,0.5,0.3c0.7,0.4,1.4,0.6,2.1,0.8c0.9,0.2,1.7,0.3,2.6,0.3
		c1.6,0,3.3-0.3,4.7-1.1c0.2-0.1,0.3-0.2,0.5-0.3c0.3-0.2,0.6-0.5,0.8-0.7c0.4-0.4,0.4-1.1,0.1-1.6l-0.1-0.1l-0.1-0.1l-0.1-0.1l0,0
		l0,0l0,0c-0.9-0.8-2-1.3-3.1-1.6c-0.9-0.2-1.7-0.3-2.6-0.3c-2.6,0-5.1,0.9-6,2.2c-0.3,0.4-0.4,0.9-0.2,1.4L190,395l0.1,0.1L190,395
		z"/>
	<path id="freepik--shadow--inject-33_1_" class="st1" d="M257.8,424.3l35.9-20.7c0.6-0.2,0.9-0.9,0.7-1.5c-0.1-0.3-0.4-0.6-0.7-0.7
		l-8.8-5.1c-1.2-0.6-2.6-0.6-3.9,0L245.2,417c-0.6,0.2-0.9,0.9-0.7,1.5c0.1,0.3,0.4,0.6,0.7,0.7l4.4,2.5l-45,26
		c-1.1,0.6-0.6,0.8-0.1,1.1s0.9,0.5,1.9-0.1l45-26l2.6,1.5C255.2,424.9,256.6,424.9,257.8,424.3z"/>
	<path id="freepik--shadow--inject-33_2_" class="st1" d="M244.3,384.6c-2.8,0.1-5.5-0.6-8-2c-0.2-0.1-0.5-0.3-0.7-0.5l-1.3-0.9
		l11.3-1.7l1-2.1l-3.1-1.8l-10.8,1.6l0.4-1c0.6-1.5,1.8-2.8,3.3-3.6c2.4-1.3,5.2-1.9,7.9-1.9c1.2,0,2.4,0.1,3.6,0.4l36.8-21.2
		c-0.5-0.9-0.6-2-0.3-3c0.5-1.7,1.8-3.2,3.4-4c2.4-1.3,5.2-1.9,7.9-1.9c2.8,0,5.6,0.7,8,2c0.3,0.1,0.5,0.3,0.7,0.5l1.3,0.9
		l-11.3,1.6l-1,2.1l3,1.8l10.8-1.6l-0.4,1c-0.6,1.5-1.8,2.8-3.3,3.5c-2.4,1.3-5.2,1.9-7.9,1.9c-1.2,0-2.4-0.1-3.6-0.3l-36.8,21.2
		c0.5,0.9,0.6,2,0.3,3c-0.6,1.7-1.8,3.2-3.4,4C249.8,384,247,384.6,244.3,384.6z"/>
	<ellipse id="freepik--shadow--inject-33_3_" class="st1" cx="387" cy="401" rx="57" ry="32.9"/>
	<polygon id="freepik--shadow--inject-33_4_" class="st1" points="143.1,320.2 205.1,356 263,322.5 200.9,286.7 	"/>
	<polygon id="freepik--shadow--inject-33_5_" class="st1" points="119.5,407 203.2,358.7 130,316.4 46.3,364.7 	"/>
</g>
<g id="freepik--Gate--inject-33">
	<g id="freepik--gate--inject-33">
		<polygon class="st2" points="205.1,353.4 146.4,319.4 146.4,316.9 200.4,285.7 259.1,319.6 259.1,322.2 		"/>
		<polygon class="st2" points="146.4,316.9 205.1,350.8 259.1,319.6 200.4,285.7 		"/>
		<polygon class="st3" points="146.4,316.9 205.1,350.8 259.1,319.6 200.4,285.7 		"/>
		<path class="st4" d="M219.7,331c1.2,0.6,2.7,0.6,3.9,0c0.6-0.2,1-0.9,0.7-1.5c-0.1-0.4-0.4-0.6-0.7-0.7c-1.2-0.6-2.7-0.6-3.9,0
			c-0.6,0.2-1,0.9-0.7,1.5C219.1,330.6,219.3,330.9,219.7,331z"/>
		<polygon class="st5" points="205.1,350.8 205.1,353.4 146.4,319.4 146.4,316.9 		"/>
	</g>
</g>
<g id="freepik--Server--inject-33">
	<g id="freepik--server--inject-33_1_">
		<path class="st2" d="M128.3,115.9l65.5,37.8c1.3,0.8,2.1,2.3,2.2,3.8v198.8c-0.1,1.5-0.9,3-2.2,3.8L123,401c-1.4,0.7-3,0.7-4.4,0
			l-65.5-37.8c-1.3-0.8-2.1-2.3-2.2-3.8V160.6c0.1-1.5,0.9-3,2.2-3.8l70.8-40.9C125.4,115.2,127,115.2,128.3,115.9z"/>
		<path class="st2" d="M51,160.6v198.8c0.1,1.5,0.9,2.9,2.2,3.8l65.4,37.8c0.7,0.4,1.4,0.5,2.2,0.5V197.6c-0.8,0-1.5-0.2-2.2-0.5
			l-65.5-37.8l-0.6-0.5l-0.8-0.6C51.3,158.9,51,159.7,51,160.6z"/>
		<path class="st5" d="M51,160.6v198.8c0.1,1.5,0.9,2.9,2.2,3.8l65.4,37.8c0.7,0.4,1.4,0.5,2.2,0.5V197.6c-0.8,0-1.5-0.2-2.2-0.5
			l-65.5-37.8l-0.6-0.5l-0.8-0.6C51.3,158.9,51,159.7,51,160.6z"/>
		<path class="st2" d="M53.2,156.8l70.8-40.9c1.4-0.7,3-0.7,4.4,0l65.5,37.8c0.7,0.2,1.1,1,0.8,1.7c-0.1,0.4-0.4,0.7-0.8,0.8
			L123,197.1c-1.4,0.7-3,0.7-4.4,0l-65.5-37.8c-0.7-0.2-1.1-1-0.8-1.7C52.5,157.2,52.8,156.9,53.2,156.8z"/>
		<path class="st3" d="M53.2,156.8l70.8-40.9c1.4-0.7,3-0.7,4.4,0l65.5,37.8c0.7,0.2,1.1,1,0.8,1.7c-0.1,0.4-0.4,0.7-0.8,0.8
			L123,197.1c-1.4,0.7-3,0.7-4.4,0l-65.5-37.8c-0.7-0.2-1.1-1-0.8-1.7C52.5,157.2,52.8,156.9,53.2,156.8z"/>
		<polygon class="st6" points="188.1,291.6 129.4,325.5 129.4,387.9 188.1,354 		"/>
		<path class="st7" d="M159.3,336.2c-0.2-0.1-0.4-0.1-0.6,0.1L134.8,350c-0.3,0.2-0.5,0.4-0.6,0.6l-1.6-0.9c0.1-0.3,0.3-0.5,0.6-0.6
			l23.4-13.5c0.5-0.3,1.2-0.3,1.7,0L159.3,336.2z"/>
		<path class="st4" d="M133.9,351.5v26.8c0,0.5,0.4,0.8,0.9,0.5l23.9-13.7c0.5-0.3,0.8-0.9,0.9-1.5v-26.8c0-0.5-0.4-0.8-0.9-0.5
			L134.8,350C134.2,350.3,133.9,350.9,133.9,351.5z"/>
		<path class="st7" d="M134.1,378.8l-1-0.6c-0.5-0.3-0.8-0.9-0.9-1.5v-26.2c0-0.3,0.1-0.6,0.2-0.9l1.6,0.9c-0.2,0.3-0.2,0.6-0.2,0.9
			v26.8C133.9,378.4,134,378.6,134.1,378.8z"/>
		<path class="st2" d="M135.8,376.3c-0.1,0-0.1,0-0.2,0c-0.2-0.1-0.2-0.3-0.2-0.5V352c0-0.4,0.3-0.8,0.6-1l21.3-12.2
			c0.2-0.1,0.4-0.1,0.5,0c0.2,0.1,0.2,0.3,0.2,0.5V363c0,0.4-0.2,0.8-0.6,1l-21.3,12.2C136,376.3,135.9,376.3,135.8,376.3z
			 M157.6,338.9c-0.1,0-0.1,0-0.2,0l-21.3,12.3c-0.3,0.2-0.5,0.5-0.5,0.8v23.8c0,0.1,0,0.2,0.1,0.2c0.1,0,0.2,0,0.3,0l0,0l21.3-12.2
			c0.3-0.2,0.5-0.5,0.5-0.8v-23.8C157.8,339,157.8,338.9,157.6,338.9C157.6,338.9,157.6,338.9,157.6,338.9z"/>
		<path class="st2" d="M137.5,373.2c0,0-0.1,0-0.1,0c-0.1-0.1-0.1-0.1-0.1-0.2v-20.2c0-0.2,0.1-0.4,0.3-0.5l18.2-10.5
			c0.1-0.1,0.2-0.1,0.3,0c0.1,0.1,0.1,0.2,0.1,0.3v20.2c0,0.2-0.1,0.4-0.3,0.5l-18.2,10.5C137.6,373.2,137.5,373.2,137.5,373.2z
			 M155.9,342L155.9,342l-18.2,10.5c-0.1,0.1-0.1,0.2-0.2,0.3V373l0,0l18.2-10.5c0.1-0.1,0.2-0.2,0.2-0.3l0,0L155.9,342
			C155.9,342,155.9,342,155.9,342C155.9,342,155.9,341.9,155.9,342L155.9,342z"/>
		<path class="st2" d="M138.7,346.9c-0.1,0-0.2-0.1-0.2-0.2v-5.7c0-0.1,0.1-0.2,0.2-0.2c0.1,0,0.2,0.1,0.2,0.2c0,0,0,0,0,0v5.7
			C139,346.8,138.8,346.9,138.7,346.9z"/>
		<path class="st2" d="M142.7,344.6c-0.1,0-0.2-0.1-0.2-0.2v-5.7c0-0.1,0.1-0.2,0.2-0.2s0.2,0.1,0.2,0.2v5.7
			C142.9,344.5,142.8,344.6,142.7,344.6z"/>
		<path class="st2" d="M146.7,342.3c-0.1,0-0.2-0.1-0.2-0.2c0,0,0,0,0,0v-5.7c0-0.1,0.2-0.2,0.3-0.2c0.1,0,0.2,0.1,0.2,0.2v5.7
			C146.9,342.2,146.8,342.3,146.7,342.3z"/>
		<path class="st2" d="M150.7,340c-0.1,0-0.2-0.1-0.2-0.2v-5.7c0-0.1,0.2-0.2,0.3-0.2c0.1,0,0.2,0.1,0.2,0.2v5.7
			C150.9,339.9,150.8,340,150.7,340z"/>
		<path class="st2" d="M154.7,337.7c-0.1,0-0.2-0.1-0.2-0.2v-5.7c0-0.1,0.1-0.2,0.2-0.2c0.1,0,0.2,0.1,0.2,0.2c0,0,0,0,0,0v5.7
			C154.9,337.6,154.8,337.7,154.7,337.7C154.7,337.7,154.7,337.7,154.7,337.7z"/>
		<path class="st7" d="M159.3,315.1c-0.2-0.1-0.4-0.1-0.6,0.1l-23.9,13.8c-0.3,0.2-0.5,0.4-0.6,0.6l-1.6-0.9
			c0.1-0.3,0.3-0.5,0.6-0.6l23.4-13.5c0.5-0.3,1.2-0.3,1.7,0L159.3,315.1z"/>
		<path class="st4" d="M133.9,330.4v13.5c0,0.5,0.4,0.8,0.9,0.5l23.9-13.8c0.5-0.3,0.8-0.9,0.9-1.5v-13.5c0-0.5-0.4-0.8-0.9-0.5
			l-23.9,13.8C134.2,329.2,133.9,329.8,133.9,330.4z"/>
		<path class="st7" d="M134.1,344.4l-1-0.6c-0.5-0.3-0.8-0.9-0.9-1.5v-12.9c0-0.3,0.1-0.6,0.2-0.8l1.6,0.9c-0.2,0.3-0.2,0.6-0.2,0.9
			v13.5C133.9,344.1,134,344.3,134.1,344.4z"/>
		<path class="st2" d="M135.8,342c-0.1,0-0.1,0-0.2,0c-0.2-0.1-0.2-0.3-0.2-0.5V331c0-0.4,0.3-0.8,0.6-1l21.3-12.3
			c0.2-0.2,0.5-0.1,0.6,0.1c0.1,0.1,0.1,0.2,0.1,0.3v10.5c0,0.4-0.2,0.8-0.6,1L136.1,342C136,342,135.9,342,135.8,342z M157.6,317.8
			c-0.1,0-0.1,0-0.2,0.1l-21.3,12.2c-0.3,0.2-0.5,0.5-0.5,0.8v10.5c0,0.1,0,0.2,0.1,0.2c0.1,0,0.2,0,0.3,0l0,0l21.3-12.2
			c0.3-0.2,0.5-0.5,0.5-0.8v-10.6C157.8,318,157.7,317.9,157.6,317.8L157.6,317.8z"/>
		<path class="st2" d="M137.5,338.9c0,0-0.1,0-0.1,0c-0.1-0.1-0.1-0.1-0.1-0.2v-6.9c0-0.2,0.1-0.4,0.3-0.5l18.2-10.5
			c0.1,0,0.2,0,0.3,0c0.1,0.1,0.1,0.1,0.1,0.2v7c0,0.2-0.1,0.4-0.3,0.5l-18.2,10.5C137.6,338.9,137.5,338.9,137.5,338.9z
			 M155.9,320.9L155.9,320.9l-18.2,10.5c-0.1,0.1-0.1,0.2-0.2,0.3v7l0,0l18.2-10.5c0.1-0.1,0.2-0.2,0.2-0.3l0,0L155.9,320.9
			C155.8,320.8,155.9,320.9,155.9,320.9L155.9,320.9z"/>
		<path class="st2" d="M164.1,312.4c-0.8,0.5-1.4,1.5-1.4,2.5c0,0.9,0.6,1.3,1.4,0.8c0.8-0.5,1.4-1.4,1.4-2.4
			C165.5,312.3,164.9,311.9,164.1,312.4z"/>
		<path class="st2" d="M164.1,336.4c-0.8,0.5-1.4,1.5-1.4,2.5c0,0.9,0.6,1.3,1.4,0.8c0.8-0.5,1.4-1.4,1.4-2.4
			C165.5,336.3,164.9,335.9,164.1,336.4z"/>
		<path class="st2" d="M164.1,342.8c-0.8,0.5-1.4,1.4-1.4,2.4c0,0.9,0.6,1.3,1.4,0.8c0.8-0.5,1.4-1.4,1.4-2.4
			C165.5,342.7,164.9,342.4,164.1,342.8z"/>
		<path class="st2" d="M164.1,349.3c-0.8,0.5-1.4,1.5-1.4,2.5c0,0.9,0.6,1.3,1.4,0.8c0.8-0.5,1.4-1.4,1.4-2.4
			C165.5,349.2,164.9,348.8,164.1,349.3z"/>
		<path class="st2" d="M164.1,355.7c-0.8,0.5-1.4,1.4-1.4,2.4c0,0.9,0.6,1.3,1.4,0.8c0.8-0.5,1.4-1.4,1.4-2.4
			C165.5,355.6,164.9,355.3,164.1,355.7z"/>
		<path class="st2" d="M164.1,318.2c-0.8,0.5-1.4,1.5-1.4,2.5c0,0.9,0.6,1.3,1.4,0.8c0.8-0.5,1.4-1.4,1.4-2.4
			C165.5,318.1,164.9,317.7,164.1,318.2z"/>
		<path class="st2" d="M164.1,324c-0.8,0.5-1.4,1.5-1.4,2.5c0,0.9,0.6,1.3,1.4,0.8c0.8-0.5,1.4-1.4,1.4-2.4
			C165.5,323.9,164.9,323.6,164.1,324z"/>
		<path class="st7" d="M179.5,315.4l-0.1-1.3c0-0.1-0.1-0.1-0.1-0.1c0,0,0,0,0,0c-0.2,0-0.4,0.1-0.6,0.1c-0.1,0-0.2,0-0.3,0.1
			l-0.3,0.4L179.5,315.4C179.5,315.4,179.5,315.4,179.5,315.4z M180.6,306.2c0,0.1,0,0.2,0,0.3c-0.1,1.6-0.9,3.1-2.3,4l-0.3,0.1
			c0.1,1.2,1.1,1.7,2.3,1c1.4-0.9,2.2-2.3,2.3-4C182.6,306.3,181.8,305.7,180.6,306.2z M185.6,305.1l-1.6-0.9l-0.2,0.5
			c0,0.1,0,0.2,0,0.3c0.1,0.2,0.2,0.4,0.3,0.6c0,0.1,0.1,0.1,0.2,0.1c0,0,0,0,0,0l1.2-0.5C185.5,305.1,185.5,305.1,185.6,305.1
			L185.6,305.1z M182.6,301.6l-0.9-0.5h-0.1l0,0l0,0l0,0l-0.7,1.1l-0.9-0.5l0,0l-0.6-0.4l0,0h-0.1l-0.9,0.5l-0.4,0.2h-0.1v0.1l0,0
			l0,0l0,0c0,0,0,0.1,0,0.1l-0.1,1.5c0,0,0,0,0,0c0,0,0,0,0,0c0,0.1-0.1,0.1-0.1,0.2c-0.3,0.2-0.5,0.5-0.8,0.8c0,0-0.1,0.1-0.1,0.1
			c0,0-0.1,0-0.1,0l-0.9-0.3h-0.1h-0.1l0,0l-0.4,0.7l-0.4,0.8l-0.1,0.3c0,0,0,0.1,0,0.1c0,0,0,0.1,0.1,0.1l0.7,0.6l0.1,0.1
			c0,0,0,0.1,0,0.1c0,0,0,0.1,0,0.1c-0.1,0.3-0.2,0.7-0.3,1c0,0.1,0,0.1-0.1,0.2l-0.1,0.1l-1.2,0.9c0,0-0.1,0.1-0.1,0.1
			c0,0.1,0,0.1,0,0.2v1.6c0,0,0,0.1,0,0.1l1.6,0.9l-0.6,1.1c0,0.1,0,0.2,0.1,0.2l1.9,1.1h0.1c0,0,0,0-0.1-0.1c0-0.1,0-0.1,0-0.2
			l0.8-1.6c0,0,0,0,0-0.1c0-0.1,0-0.1,0-0.2c-0.1-0.2-0.2-0.4-0.3-0.6c0-0.1-0.1-0.1-0.2-0.1c0,0,0,0,0,0l-0.6,0.3l-0.6,0.3
			c0,0-0.1,0-0.1,0c0,0-0.1-0.1-0.1-0.1v-1.6c0-0.1,0-0.1,0.1-0.2c0,0,0-0.1,0.1-0.1l1.2-0.9c0,0,0.1-0.1,0.1-0.1
			c0,0,0.1-0.1,0.1-0.2c0.1-0.4,0.2-0.7,0.3-1c0,0,0-0.1,0-0.1c0-0.1,0-0.1-0.1-0.2l-0.7-0.6c0,0-0.1-0.1-0.1-0.1c0,0,0-0.1,0-0.1
			l0.3-0.5l0.3-0.6l0.4-0.6c0-0.1,0.1-0.1,0.2-0.1h0.1l0.9,0.3c0.1,0,0.1,0,0.2,0c0,0,0.1,0,0.1-0.1c0.2-0.3,0.5-0.6,0.8-0.8
			c0,0,0.1-0.1,0.1-0.2c0,0,0-0.1,0-0.1l0.1-1.5c0,0,0-0.1,0-0.1c0-0.1,0.1-0.1,0.1-0.2l0.2-0.1l0.5-0.3l0.6-0.3c0,0,0.1,0,0.1,0
			l0,0c0,0,0.1,0,0.1,0.1l0.1,0.7l0.1,0.6c0,0.1,0.1,0.1,0.1,0.1c0,0,0,0,0,0c0.2,0,0.4-0.1,0.6-0.1c0.1,0,0.1,0,0.2-0.1
			c0,0,0.1,0,0.1-0.1l1-1.5c0.1-0.1,0.2-0.1,0.2,0L182.6,301.6z"/>
		<path class="st8" d="M179.5,303.5C179.5,303.5,179.5,303.5,179.5,303.5l-0.1,1.6c0,0,0,0.1,0,0.1l-2-1.1l0,0v0c0,0,0,0,0,0
			l0.1-1.5c0,0,0-0.1,0-0.1L179.5,303.5z"/>
		<path class="st3" d="M178.4,306.2c-0.1,0-0.1,0-0.2,0l-0.9-0.3h-0.1l-2-1.1h0.1l0.9,0.3c0,0,0.1,0,0.1,0L178.4,306.2z"/>
		<path class="st3" d="M176.9,308.7l-2-1.1l0,0c0,0,0-0.1,0-0.1l-0.1-0.1l-0.7-0.6c0,0-0.1-0.1-0.1-0.1l2,1.1c0,0,0,0.1,0.1,0.1
			l0.7,0.6C176.9,308.6,176.9,308.7,176.9,308.7z"/>
		<path class="st3" d="M176.9,313.3C176.9,313.3,176.9,313.3,176.9,313.3l-0.8,1.7c0,0.1,0,0.1,0,0.2l0,0l0,0l-1.9-1.1
			c-0.1,0-0.1-0.1-0.1-0.2l0.6-1.1l0.4,0.2l0,0c0,0,0.1,0,0.1,0l0.6-0.3L176.9,313.3z"/>
		<path class="st3" d="M179.5,315.4C179.5,315.4,179.5,315.4,179.5,315.4l-1.5-0.8l0.3-0.4c0.1-0.1,0.2-0.1,0.3-0.1
			c0.2,0,0.4,0,0.6-0.1c0.1,0,0.2,0,0.2,0.1c0,0,0,0,0,0L179.5,315.4z"/>
		<path class="st8" d="M183.6,302.3c-0.1,0-0.2,0-0.2,0l-1,1.5c0,0,0,0.1-0.1,0.1l-0.6-0.3l-0.5-0.3l-0.1-0.7c0,0,0-0.1-0.1-0.1l0,0
			l-0.4-0.2l0.7-1.1l0,0l0,0l0,0l0,0c0,0,0.1,0,0.1,0l0.9,0.5L183.6,302.3z"/>
		<path class="st3" d="M176.5,310c0,0-0.1,0.1-0.1,0.1l-1.2,0.9c0,0-0.1,0.1-0.1,0.1l-2-1.1c0,0,0.1-0.1,0.1-0.1l1.2-0.9l0.1-0.1
			L176.5,310z"/>
		<path class="st4" d="M185.5,305.1l-1.2,0.5c-0.1,0-0.2,0-0.2-0.1c0,0,0,0,0,0c-0.1-0.2-0.2-0.4-0.3-0.6c0-0.1,0-0.2,0-0.3l0.8-1.6
			c0-0.1,0-0.2-0.1-0.2l-0.9-0.5c-0.1,0-0.2,0-0.2,0l-1,1.5c-0.1,0.1-0.2,0.1-0.3,0.1c-0.2,0-0.4,0-0.6,0.1c-0.1,0-0.2,0-0.2-0.1
			c0,0,0,0,0,0l-0.1-1.3c0-0.1,0-0.1-0.1-0.1c0,0,0,0-0.1,0l-1.4,0.8c-0.1,0.1-0.1,0.1-0.2,0.2l-0.1,1.5c0,0.1-0.1,0.2-0.1,0.3
			c-0.3,0.2-0.5,0.5-0.8,0.8c-0.1,0.1-0.2,0.1-0.3,0.1l-0.9-0.3c-0.1,0-0.2,0-0.2,0.1l-1,1.7c-0.1,0.1-0.1,0.2,0,0.2l0.7,0.6
			c0.1,0.1,0.1,0.2,0.1,0.3c-0.1,0.3-0.2,0.7-0.3,1c0,0.1-0.1,0.2-0.2,0.3l-1.2,0.9c-0.1,0.1-0.1,0.2-0.1,0.3v1.6
			c0,0.1,0,0.1,0.1,0.1c0,0,0,0,0.1,0l1.2-0.5c0.1,0,0.2,0,0.2,0.1c0,0,0,0,0,0c0.1,0.2,0.2,0.4,0.3,0.6c0,0.1,0,0.2,0,0.3l-0.8,1.6
			c0,0.1,0,0.2,0.1,0.2l0.9,0.5c0.1,0.1,0.2,0.1,0.2,0l1-1.5c0.1-0.1,0.2-0.1,0.3-0.1c0.2,0,0.4,0,0.6-0.1c0.1,0,0.2,0,0.2,0.1
			c0,0,0,0,0,0l0.1,1.3c0,0.1,0.1,0.1,0.2,0.1l1.4-0.8c0.1-0.1,0.1-0.1,0.2-0.2l0.1-1.5c0-0.1,0.1-0.2,0.1-0.3
			c0.3-0.2,0.5-0.5,0.8-0.8c0.1-0.1,0.2-0.1,0.3-0.1l0.9,0.3c0.1,0,0.2,0,0.2-0.1l1-1.7c0.1-0.1,0.1-0.2,0-0.2l-0.7-0.6
			c-0.1-0.1-0.1-0.2-0.1-0.3c0.1-0.3,0.2-0.7,0.3-1c0-0.1,0.1-0.2,0.2-0.3l1.2-0.9c0.1-0.1,0.1-0.2,0.1-0.3v-1.6c0,0,0-0.1,0-0.1
			S185.5,305,185.5,305.1z M180.3,311.6c-1.3,0.7-2.3,0.1-2.3-1.3c0.1-1.6,0.9-3.1,2.3-4c1.3-0.7,2.3-0.1,2.3,1.3
			C182.5,309.3,181.7,310.8,180.3,311.6L180.3,311.6z"/>
		<path class="st7" d="M176.2,318.6L176.2,318.6L176.2,318.6L176.2,318.6l-0.4-0.2l-0.9-0.5l0,0h-0.1h-0.1l-0.9,0.1h-0.1l0,0l0,0
			l0,0l0,0l-0.5,1.2c0,0,0,0.1-0.1,0.1l-0.1,0.1l-0.3,0.1L172,319l0,0c0,0-0.1,0-0.1,0l-0.7,0.7l-0.3,0.3c0,0,0,0,0,0.1v0.1
			c0,0,0,0,0,0l0,0l0.3,0.9c0,0,0,0.1,0,0.1c0,0,0,0.1,0,0.1c-0.2,0.2-0.3,0.5-0.4,0.7c0,0-0.1,0.1-0.1,0.1c0,0-0.1,0-0.1,0
			l-0.8,0.2h-0.1c0,0,0,0-0.1,0l0,0c0,0,0,0,0,0.1l-0.3,1l-0.1,0.4c0,0,0,0.1,0,0.1l0,0l0.5,0.3h0.1l0.3,0.2l0,0c0,0.1,0,0.2,0,0.4
			c0,0.1,0,0.2-0.1,0.2l-0.8,1c0,0,0,0.1,0,0.1l0,0c0,0,0,0.1,0,0.1l0.4,0.8l0,0l0,0l1.6,0.9h0.1l0,0v-0.1l-0.2-0.4l-0.2-0.4
			c0,0,0-0.1,0-0.1c0,0,0-0.1,0.1-0.1l0.8-1c0,0,0-0.1,0-0.1c0,0,0-0.1,0-0.1c0-0.2,0-0.5,0-0.7c0-0.1-0.1-0.1-0.1-0.1H171h-0.1l0,0
			c0,0,0-0.1,0-0.1l0.2-0.6l0,0l0.2-0.7v-0.1c0,0,0.1-0.1,0.1-0.1l0.8-0.2c0,0,0.1,0,0.1,0c0,0,0.1-0.1,0.1-0.1
			c0.1-0.3,0.3-0.5,0.4-0.7c0,0,0-0.1,0-0.1c0,0,0-0.1,0-0.1l-0.3-0.9c0,0,0-0.1,0-0.1l0,0c0,0,0-0.1,0.1-0.1l0.6-0.7l0.3-0.3
			c0,0,0.1-0.1,0.1,0l0,0l0,0l0.4,0.7c0,0,0.1,0,0.2,0c0.2-0.1,0.3-0.2,0.5-0.3c0,0,0.1,0,0.1-0.1c0,0,0.1-0.1,0.1-0.1l0.5-1.2v-0.1
			l0.3-0.1l0.7-0.1h0.1L176.2,318.6z M172.6,327.6c0-0.1,0-0.1-0.1-0.1c-0.1-0.1-0.3-0.1-0.4-0.2c-0.1,0-0.1,0-0.2,0l-0.9,0.8
			c0,0-0.1,0-0.1,0l0.9,0.5l0.5,0.3c0,0,0-0.1,0-0.1L172.6,327.6z M176.4,318.7C176.4,318.7,176.4,318.8,176.4,318.7l-0.3,1.3
			c0,0.1,0,0.1,0.1,0.1c0.1,0.1,0.3,0.1,0.4,0.2c0,0,0.1,0,0.2,0l0.9-0.8c0.1,0,0.1,0,0.1,0L176.4,318.7z M175.3,327.7l-0.4-0.7
			c0,0-0.1,0-0.2,0l-0.3,0.2L175.3,327.7L175.3,327.7z M175.9,322.2c-0.1-0.3-0.4-0.5-0.7-0.5h-0.1c-0.2,0-0.4,0-0.6,0.1
			c0,0.1,0,0.2,0,0.2c-0.1,1.2-0.7,2.3-1.7,3l-0.2,0.1c0,0.2,0,0.3,0.1,0.4c0.1,0.3,0.4,0.5,0.8,0.5h0.3c0.4-0.1,0.8-0.4,1.1-0.7
			C175.9,324.5,176.3,323.3,175.9,322.2L175.9,322.2z M177.3,322.2c0,0.1,0,0.2,0,0.3c0,0.1,0.1,0.1,0.1,0.1c0,0,0,0,0,0h0.7h0.1
			L177.3,322.2z"/>
		<path class="st3" d="M175.3,327.7L175.3,327.7l-0.9-0.5l0.3-0.2c0.1,0,0.1,0,0.2,0L175.3,327.7z"/>
		<path class="st8" d="M172.3,328.9C172.3,328.9,172.3,328.9,172.3,328.9l-0.5-0.2l-0.9-0.5c0,0,0.1,0,0.1,0l0.9-0.8
			c0.1,0,0.1,0,0.2,0c0.1,0.1,0.2,0.2,0.4,0.2c0.1,0,0.1,0.1,0.1,0.1L172.3,328.9z"/>
		<path class="st8" d="M171.5,326C171.4,326,171.4,326.1,171.5,326l-0.9,1.1c0,0,0,0.1,0,0.1l-1.7-1c0,0,0-0.1,0-0.1l0.8-1
			c0,0,0-0.1,0.1-0.1L171.5,326z"/>
		<path class="st9" d="M171.5,325.2c0,0.2,0,0.5,0,0.7c0,0,0,0.1,0,0.1l-1.7-1c0,0,0-0.1,0-0.1c0-0.1,0-0.2,0-0.4l0.8,0.5l0,0h0.1
			h0.7c0.1,0,0.1,0,0.2,0.1C171.5,325.1,171.5,325.1,171.5,325.2z"/>
		<path class="st8" d="M172,323.1c0,0-0.1,0-0.1,0l-0.8,0.2c-0.1,0-0.1,0-0.1,0.1l-1.7-1l0,0c0,0,0,0,0.1,0h0.1l0.8-0.2
			c0,0,0.1,0,0.1-0.1L172,323.1z"/>
		<path class="st8" d="M172.6,322.1c0,0,0,0.1,0,0.1l-1.7-1c0,0,0-0.1,0-0.1l-0.3-0.9l0,0c0,0,0,0,0,0l1.7,1c0,0,0,0.1,0,0.1
			L172.6,322.1z"/>
		<path class="st8" d="M175.3,318.9L175.3,318.9l-0.4,1.3c0,0-0.1,0.1-0.1,0.1l-1.7-1l0,0l0.1-0.1l0.5-1.2l0,0l0,0L175.3,318.9z"/>
		<path class="st10" d="M175.3,318.9c0,0,0.1-0.1,0.1-0.1h0.2"/>
		<path class="st4" d="M178.2,322.7L178.2,322.7h-0.8c-0.1,0-0.1,0-0.1-0.1c0,0,0,0,0,0c0-0.1,0-0.2,0-0.3s0-0.2,0-0.4
			c0-0.1,0-0.2,0.1-0.2l0.8-1c0-0.1,0-0.1,0-0.2l-0.4-0.9l0,0c0,0-0.1,0-0.1,0l-0.9,0.8c-0.1,0-0.1,0.1-0.2,0
			c-0.1-0.1-0.2-0.2-0.4-0.2c-0.1,0-0.1-0.1-0.1-0.1l0.3-1.2c0,0,0-0.1,0-0.1c0,0-0.1,0-0.1,0l-0.7,0.1h-0.2c-0.1,0-0.1,0-0.1,0.1
			v0.1l-0.5,1.2c0,0,0,0.1-0.1,0.1c0,0-0.1,0-0.1,0.1c-0.2,0.1-0.4,0.2-0.5,0.3c-0.1,0-0.1,0-0.2,0l-0.4-0.7l0,0c0,0-0.1,0-0.1,0
			l-0.3,0.3l-0.6,0.7c0,0-0.1,0.1-0.1,0.1c0,0,0,0.1,0,0.1l0.3,0.9c0,0,0,0.1,0,0.1c0,0,0,0.1,0,0.1c-0.2,0.2-0.3,0.5-0.4,0.7
			c0,0-0.1,0.1-0.1,0.1c0,0-0.1,0-0.1,0l-0.8,0.2c-0.1,0-0.1,0-0.1,0.1v0.1l-0.2,0.7l0,0l-0.2,0.6c0,0,0,0.1,0,0.1l0,0h0.1h0.7
			c0.1,0,0.1,0.1,0.1,0.1c0,0.2,0,0.5,0,0.7c0,0,0,0.1,0,0.1c0,0,0,0.1,0,0.1l-0.8,1c0,0.1-0.1,0.1-0.1,0.2l0.2,0.4v0l0.1,0.1
			l0.1,0.1v0.1v0.1l0,0l0,0c0,0,0.1,0,0.1,0l0.9-0.8c0.1,0,0.1,0,0.2,0c0.1,0.1,0.2,0.2,0.4,0.2c0.1,0,0.1,0.1,0.1,0.1l-0.3,1.2
			c0,0,0,0.1,0,0.1c0,0,0.1,0,0.1,0l0.9-0.1c0.1,0,0.1-0.1,0.2-0.1l0.5-1.2c0-0.1,0.1-0.1,0.2-0.2l0.3-0.1l0.3-0.2
			c0.1,0,0.1,0,0.2,0l0.4,0.7l0,0c0,0,0.1,0,0.1,0l0.9-1c0.1,0,0.1-0.1,0.1-0.2l-0.3-0.9c0-0.1,0-0.1,0.1-0.2
			c0.2-0.2,0.3-0.5,0.4-0.7c0-0.1,0.1-0.1,0.2-0.1l0.8-0.2c0.1,0,0.1-0.1,0.2-0.1L178.2,322.7C178.2,322.7,178.2,322.7,178.2,322.7z
			 M173.9,326h-0.3c-0.4,0-0.7-0.2-0.8-0.5c-0.1-0.1-0.1-0.3-0.1-0.4c0-0.1,0-0.2,0-0.2c0.1-0.9,0.4-1.8,1.1-2.4
			c0.2-0.2,0.4-0.4,0.6-0.5l0.2-0.1c0.2-0.1,0.4-0.1,0.6-0.1h0.1c0.3,0,0.6,0.2,0.7,0.5c0.3,1.1-0.1,2.3-0.9,3.1
			C174.8,325.6,174.4,325.9,173.9,326L173.9,326z"/>
		<path class="st2" d="M175.3,341.7c-1.5,0.5-2.8,1.6-3.6,3c-0.9,1.8-0.8,3.9,0.2,5.6c-0.7,1-1,2.3-1,3.5c0.2,3.1,2.2,5.8,5.1,6.9
			l0.3,0.1l0.9-0.5c-2.1-0.8-3.8-2.3-4.7-4.3c-0.6-1.5-0.5-3.1,0.1-4.6c0.5,0.6,1,1.1,1.7,1.6c1.7,1.1,5.1,2,6.7,0.2
			c0.9-1.1,0.8-2.7-0.1-3.7c-1-1.1-2.5-1.8-4-1.9c-1.6,0-3.1,0.6-4.2,1.8c-0.3-0.8-0.5-1.7-0.4-2.6c0.2-2,1.6-3.6,3.5-4.1
			c1.4,2.2,4.6,4.3,7.1,2.4s-1.5-3.6-3.1-3.8c-1.1-0.1-2.3-0.1-3.4,0.2c-0.3-0.6-0.3-1.3-0.2-2c0.2-1,0.8-2,1.7-2.6
			c1.9-1.6,4.5-1.7,6.6-0.4c0.2,0.1,0.4,0.1,0.5,0c0.1-0.2,0.1-0.4-0.1-0.5C181,332.2,173.3,336.6,175.3,341.7z M174.7,349.1
			c1.1-0.6,2.5-0.7,3.7-0.2c1,0.5,2.2,1.4,2,2.7c-0.3,2.2-3.2,1.6-4.6,1c-1.1-0.5-2-1.2-2.6-2.2
			C173.6,349.9,174.1,349.4,174.7,349.1L174.7,349.1z M177.7,342.2c1-0.1,2.1-0.1,3.1,0.2c0.5,0.1,1.8,0.6,1.7,1.3
			c0,0.4-0.6,0.7-1,0.9c-0.5,0.2-1.1,0.2-1.6,0.1c-1.1-0.4-2.1-1.1-2.8-2l-0.2-0.3C177.2,342.3,177.4,342.2,177.7,342.2L177.7,342.2
			z"/>
		<path class="st11" d="M175.3,341.7c-1.5,0.5-2.8,1.6-3.6,3c-0.9,1.8-0.8,3.9,0.2,5.6c-0.7,1-1,2.3-1,3.5c0.2,3.1,2.2,5.8,5.1,6.9
			l0.3,0.1l0.9-0.5c-2.1-0.8-3.8-2.3-4.7-4.3c-0.6-1.5-0.5-3.1,0.1-4.6c0.5,0.6,1,1.1,1.7,1.6c1.7,1.1,5.1,2,6.7,0.2
			c0.9-1.1,0.8-2.7-0.1-3.7c-1-1.1-2.5-1.8-4-1.9c-1.6,0-3.1,0.6-4.2,1.8c-0.3-0.8-0.5-1.7-0.4-2.6c0.2-2,1.6-3.6,3.5-4.1
			c1.4,2.2,4.6,4.3,7.1,2.4s-1.5-3.6-3.1-3.8c-1.1-0.1-2.3-0.1-3.4,0.2c-0.3-0.6-0.3-1.3-0.2-2c0.2-1,0.8-2,1.7-2.6
			c1.9-1.6,4.5-1.7,6.6-0.4c0.2,0.1,0.4,0.1,0.5,0c0.1-0.2,0.1-0.4-0.1-0.5C181,332.2,173.3,336.6,175.3,341.7z M174.7,349.1
			c1.1-0.6,2.5-0.7,3.7-0.2c1,0.5,2.2,1.4,2,2.7c-0.3,2.2-3.2,1.6-4.6,1c-1.1-0.5-2-1.2-2.6-2.2
			C173.6,349.9,174.1,349.4,174.7,349.1L174.7,349.1z M177.7,342.2c1-0.1,2.1-0.1,3.1,0.2c0.5,0.1,1.8,0.6,1.7,1.3
			c0,0.4-0.6,0.7-1,0.9c-0.5,0.2-1.1,0.2-1.6,0.1c-1.1-0.4-2.1-1.1-2.8-2l-0.2-0.3C177.2,342.3,177.4,342.2,177.7,342.2L177.7,342.2
			z"/>
		<path class="st2" d="M172.3,352.4c0.1-0.3,0.2-0.7,0.4-1c-0.3-0.3-0.5-0.7-0.7-1.1c-0.2,0.3-0.4,0.7-0.5,1.1
			C171.6,351.7,171.9,352.1,172.3,352.4z"/>
		<path class="st2" d="M174.6,343.2c0.4-0.2,0.8-0.4,1.2-0.6c-0.2-0.3-0.3-0.6-0.5-0.9c-0.5,0.2-0.9,0.4-1.4,0.6
			C174.2,342.6,174.4,342.9,174.6,343.2z"/>
		<path class="st2" d="M176.3,360.8l0.9-0.5c-0.4-0.2-0.7-0.3-1.1-0.5l-0.9,0.5c0.3,0.1,0.6,0.3,0.9,0.4L176.3,360.8z"/>
		<path class="st2" d="M199.5,344.7c-1.3-1-2.9-1.4-4.5-1.3c-2,0.3-3.7,1.6-4.5,3.4c-0.8,0-1.6,0.2-2.3,0.5
			c-0.4,0.2-0.8,0.4-1.2,0.6c-2.2,1.7-3.4,4.4-2.9,7.2c0,0.3,0.1,0.6,0.1,0.9l0.1,0.2l0.8-0.4v-0.2c-0.2-1.8,0.1-3.6,1.1-5.1
			c0.5-0.8,1.2-1.4,2.1-1.9c0.6-0.3,1.2-0.5,1.8-0.6c-0.2,0.7-0.3,1.5-0.3,2.3c0,2.1,1.3,5.4,3.7,5.6c1.4,0.1,2.7-0.8,3-2.2
			c0.4-1.5,0.1-3.1-0.7-4.4c-0.9-1.3-2.2-2.2-3.8-2.4c0.5-0.7,1.1-1.4,1.9-1.8c1.7-0.9,3.9-0.7,5.4,0.6c-1,2.5-0.9,6.2,2.1,7.1
			s2.2-3.3,1.4-4.7c-0.6-1-1.3-1.9-2.1-2.7c0.4-0.6,0.9-1,1.5-1.3c1-0.4,2.1-0.4,3.1-0.1c2.3,0.7,4,2.8,4.1,5.2
			c0,0.2,0.1,0.4,0.3,0.4c0.2,0,0.4-0.1,0.4-0.3l0,0C210.5,344,202.4,340.1,199.5,344.7z M193,348.4c1.2,0.6,2,1.7,2.2,2.9
			c0.2,1.1,0.1,2.6-1,3.2c-2,1-3.1-1.8-3.4-3.2c-0.2-1.1-0.1-2.3,0.4-3.4C191.8,347.9,192.4,348.1,193,348.4L193,348.4z
			 M200.4,346.9c0.7,0.8,1.2,1.7,1.6,2.7c0.1,0.5,0.5,1.8-0.1,2.2c-0.4,0.2-1-0.1-1.3-0.3c-0.5-0.3-0.8-0.8-1-1.3
			c-0.3-1.1-0.3-2.3,0.1-3.4c0-0.1,0.1-0.3,0.1-0.4C200,346.5,200.2,346.7,200.4,346.9z"/>
		<path class="st11" d="M199.5,344.7c-1.3-1-2.9-1.4-4.5-1.3c-2,0.3-3.7,1.6-4.5,3.4c-0.8,0-1.6,0.2-2.3,0.5
			c-0.4,0.2-0.8,0.4-1.2,0.6c-2.2,1.7-3.4,4.4-2.9,7.2c0,0.3,0.1,0.6,0.1,0.9l0.1,0.2l0.8-0.4v-0.2c-0.2-1.8,0.1-3.6,1.1-5.1
			c0.5-0.8,1.2-1.4,2.1-1.9c0.6-0.3,1.2-0.5,1.8-0.6c-0.2,0.7-0.3,1.5-0.3,2.3c0,2.1,1.3,5.4,3.7,5.6c1.4,0.1,2.7-0.8,3-2.2
			c0.4-1.5,0.1-3.1-0.7-4.4c-0.9-1.3-2.2-2.2-3.8-2.4c0.5-0.7,1.1-1.4,1.9-1.8c1.7-0.9,3.9-0.7,5.4,0.6c-1,2.5-0.9,6.2,2.1,7.1
			s2.2-3.3,1.4-4.7c-0.6-1-1.3-1.9-2.1-2.7c0.4-0.6,0.9-1,1.5-1.3c1-0.4,2.1-0.4,3.1-0.1c2.3,0.7,4,2.8,4.1,5.2
			c0,0.2,0.1,0.4,0.3,0.4c0.2,0,0.4-0.1,0.4-0.3l0,0C210.5,344,202.4,340.1,199.5,344.7z M193,348.4c1.2,0.6,2,1.7,2.2,2.9
			c0.2,1.1,0.1,2.6-1,3.2c-2,1-3.1-1.8-3.4-3.2c-0.2-1.1-0.1-2.3,0.4-3.4C191.8,347.9,192.4,348.1,193,348.4L193,348.4z
			 M200.4,346.9c0.7,0.8,1.2,1.7,1.6,2.7c0.1,0.5,0.5,1.8-0.1,2.2c-0.4,0.2-1-0.1-1.3-0.3c-0.5-0.3-0.8-0.8-1-1.3
			c-0.3-1.1-0.3-2.3,0.1-3.4c0-0.1,0.1-0.3,0.1-0.4C200,346.5,200.2,346.7,200.4,346.9z"/>
		<path class="st2" d="M188.9,348.2c0.3-0.1,0.7-0.2,1-0.3c0.1-0.4,0.3-0.8,0.5-1.2c-0.4,0-0.8,0.1-1.2,0.2
			C189.1,347.3,189,347.8,188.9,348.2z"/>
		<path class="st2" d="M197.8,344.9c0.4,0.2,0.8,0.4,1.2,0.7c0.1-0.3,0.3-0.6,0.5-0.9c-0.4-0.3-0.9-0.5-1.3-0.7
			C198,344.2,197.9,344.6,197.8,344.9z"/>
		<path class="st2" d="M184.2,356.2l-0.1-0.2c-0.1-0.3-0.1-0.6-0.1-0.9l0.9,0.5v0.2L184.2,356.2z"/>
		<path class="st6" d="M185.9,245l-54.4,31.4c-1.3,0.8-2.1,2.3-2.2,3.8v18.7c0,1.4,1,2,2.2,1.3l54.4-31.4c1.3-0.8,2.1-2.3,2.2-3.8
			v-18.7C188.1,244.9,187.1,244.3,185.9,245z"/>
		<path class="st2" d="M184,253.2c-0.1,1.5-0.9,2.8-2.2,3.6l-46.2,26.6c-1.2,0.7-2.2,0.2-2.2-1.1c0.1-1.5,0.9-2.8,2.2-3.6l46.2-26.6
			C183,251.4,184,251.9,184,253.2z"/>
		<path class="st7" d="M184,262.7c-0.1,1.5-0.9,2.8-2.2,3.6L135.7,293c-1.2,0.7-2.2,0.2-2.2-1.1c0.1-1.5,0.9-2.8,2.2-3.6l46.2-26.6
			C183,260.9,184,261.4,184,262.7z"/>
		<path class="st2" d="M181.8,261.6l-19.6,11.3v4.7l19.6-11.3c1.3-0.8,2.1-2.1,2.2-3.6C184,261.4,183,260.9,181.8,261.6z"/>
		<path class="st2" d="M110.5,201.1c-2.3-1.3-4.1-0.1-4.1,2.7v100.4c0.1,3,1.6,5.8,4.1,7.4c2.3,1.3,4.1,0.1,4.1-2.7V208.5
			C114.5,205.5,113,202.8,110.5,201.1z"/>
		<path class="st12" d="M110.5,201.1c-2.3-1.3-4.1-0.1-4.1,2.7v100.4c0.1,3,1.6,5.8,4.1,7.4c2.3,1.3,4.1,0.1,4.1-2.7V208.5
			C114.5,205.5,113,202.8,110.5,201.1z"/>
		<path class="st4" d="M110.5,309.2c-1.2-0.8-2-2.2-2.1-3.7V204.8c0-1.4,0.9-2,2.1-1.4c1.2,0.9,2,2.2,2,3.7v100.7
			C112.6,309.2,111.7,309.8,110.5,309.2z"/>
		<path class="st2" d="M110.5,309.2c-1.2-0.8-2-2.2-2.1-3.7v-49.2l4.1,2.4v49.2C112.6,309.2,111.7,309.8,110.5,309.2z"/>
		<path class="st2" d="M98.2,194c-2.3-1.3-4.1-0.1-4.1,2.7V297c0.1,3,1.6,5.8,4.1,7.4c2.3,1.3,4.1,0.1,4.1-2.7V201.4
			C102.2,198.4,100.7,195.7,98.2,194z"/>
		<path class="st12" d="M98.2,194c-2.3-1.3-4.1-0.1-4.1,2.7V297c0.1,3,1.6,5.8,4.1,7.4c2.3,1.3,4.1,0.1,4.1-2.7V201.4
			C102.2,198.4,100.7,195.7,98.2,194z"/>
		<path class="st2" d="M98.2,302.1c-1.2-0.8-2-2.2-2.1-3.7V197.6c0-1.4,0.9-2,2.1-1.3c1.2,0.9,2,2.2,2,3.7v100.7
			C100.3,302.1,99.3,302.7,98.2,302.1z"/>
		<path class="st2" d="M85.9,186.8c-2.3-1.3-4.1-0.1-4.1,2.7v100.4c0.1,3,1.6,5.8,4.1,7.4c2.3,1.3,4.1,0.1,4.1-2.7V194.3
			C89.9,191.3,88.4,188.5,85.9,186.8z"/>
		<path class="st12" d="M85.9,186.8c-2.3-1.3-4.1-0.1-4.1,2.7v100.4c0.1,3,1.6,5.8,4.1,7.4c2.3,1.3,4.1,0.1,4.1-2.7V194.3
			C89.9,191.3,88.4,188.5,85.9,186.8z"/>
		<path class="st4" d="M85.9,294.9c-1.2-0.9-2-2.2-2-3.7V190.5c0-1.4,0.9-2,2-1.4c1.3,0.8,2,2.2,2.1,3.7v100.7
			C87.9,295,87,295.6,85.9,294.9z"/>
		<path class="st2" d="M85.9,294.9c-1.2-0.9-2-2.2-2-3.7v-73.1l4.1,2.4v73.1C87.9,295,87,295.6,85.9,294.9z"/>
		<path class="st2" d="M73.6,179.7c-2.3-1.3-4.1-0.1-4.1,2.7v100.4c0.1,3,1.6,5.8,4.1,7.4c2.3,1.3,4.1,0.1,4.1-2.7V187.2
			C77.6,184.2,76,181.4,73.6,179.7z"/>
		<path class="st12" d="M73.6,179.7c-2.3-1.3-4.1-0.1-4.1,2.7v100.4c0.1,3,1.6,5.8,4.1,7.4c2.3,1.3,4.1,0.1,4.1-2.7V187.2
			C77.6,184.2,76,181.4,73.6,179.7z"/>
		<path class="st4" d="M73.6,287.8c-1.2-0.8-2-2.2-2.1-3.7V183.4c0-1.4,0.9-2,2.1-1.3c1.2,0.8,2,2.2,2.1,3.7v100.7
			C75.6,287.9,74.7,288.5,73.6,287.8z"/>
		<path class="st2" d="M73.6,287.8c-1.2-0.8-2-2.2-2.1-3.7v-18.4l4.1,2.4v18.4C75.6,287.9,74.7,288.5,73.6,287.8z"/>
		<path class="st2" d="M61.2,172.6c-2.3-1.3-4.1-0.1-4.1,2.7v100.4c0.1,3,1.6,5.8,4.1,7.4c2.3,1.3,4.1,0.1,4.1-2.7V180.1
			C65.2,177.1,63.7,174.3,61.2,172.6z"/>
		<path class="st12" d="M61.2,172.6c-2.3-1.3-4.1-0.1-4.1,2.7v100.4c0.1,3,1.6,5.8,4.1,7.4c2.3,1.3,4.1,0.1,4.1-2.7V180.1
			C65.2,177.1,63.7,174.3,61.2,172.6z"/>
		<path class="st4" d="M61.2,280.7c-1.2-0.8-2-2.2-2.1-3.7V176.3c0-1.4,0.9-2,2-1.3c1.2,0.8,2,2.2,2.1,3.7v100.7
			C63.3,280.8,62.4,281.4,61.2,280.7z"/>
		<path class="st2" d="M61.2,280.7c-1.2-0.8-2-2.2-2.1-3.7v-53.9l4.1,2.4v53.9C63.3,280.8,62.4,281.4,61.2,280.7z"/>
		<path class="st4" d="M185.9,169.3l-54.4,31.4c-1.3,0.8-2.1,2.3-2.2,3.8V267c0,1.4,1,2,2.2,1.3l54.4-31.4c1.3-0.8,2.1-2.3,2.2-3.8
			v-62.5C188.1,169.2,187.1,168.6,185.9,169.3z"/>
		<path class="st7" d="M130,202.4c-0.4,0.6-0.6,1.3-0.6,2.1V267c0,1.4,1,2,2.2,1.3l54.4-31.4c0.7-0.4,1.2-1,1.6-1.7L130,202.4z"/>
		<path class="st6" d="M131.6,200.7c-1.3,0.8-2.1,2.3-2.2,3.8V267l54.4-31.4c1.3-0.8,2.1-2.3,2.2-3.8v-62.5L131.6,200.7z"/>
		<g id="freepik--dead-emoji--inject-33">
			<path class="st2" d="M149.5,217.1c-0.3,0-0.6-0.1-0.8-0.3l-7.2-7c-0.4-0.4-0.5-1.1,0-1.6s1.1-0.5,1.6,0l0,0l7.2,6.9
				c0.4,0.4,0.5,1.2,0,1.6C150.1,217,149.8,217.1,149.5,217.1L149.5,217.1z"/>
			<path class="st2" d="M142.2,221.3c-0.2,0-0.3,0-0.5-0.1c-0.6-0.3-0.8-0.9-0.5-1.5l7.2-15.3c0.3-0.6,0.9-0.8,1.5-0.5c0,0,0,0,0,0
				c0.6,0.3,0.8,0.9,0.5,1.5l-7.2,15.3C143.1,221.1,142.7,221.3,142.2,221.3z"/>
			<path class="st2" d="M173.1,203.5c-0.3,0-0.6-0.1-0.8-0.3l-7.2-6.9c-0.5-0.4-0.5-1.1,0-1.6s1.1-0.5,1.6,0l7.2,6.9
				c0.4,0.4,0.4,1.2,0,1.6C173.6,203.4,173.4,203.5,173.1,203.5z"/>
			<path class="st2" d="M165.8,207.7c-0.2,0-0.3,0-0.5-0.1c-0.6-0.3-0.8-0.9-0.5-1.5l7.2-15.3c0.4-0.5,1.1-0.6,1.6-0.3
				c0.4,0.3,0.6,0.8,0.4,1.3l-7.2,15.2C166.7,207.4,166.3,207.7,165.8,207.7z"/>
			<path class="st2" d="M141.9,238.6c-0.4,0-0.8-0.2-1-0.6c-0.3-0.5-0.1-1.2,0.4-1.5l31.5-18.2c0.5-0.3,1.2-0.1,1.5,0.4
				c0.3,0.5,0.1,1.2-0.4,1.6l-31.5,18.2C142.3,238.6,142.1,238.6,141.9,238.6z"/>
			<path class="st2" d="M163.9,239.2c-0.6,0-1.1-0.1-1.6-0.4c-1.2-0.8-1.9-2.3-1.8-3.8v-8.8c0-0.6,0.5-1.1,1.1-1.1l0,0
				c0.6,0,1.1,0.5,1.1,1.1v8.8c-0.1,0.7,0.2,1.4,0.7,1.8c0.5,0.2,1.1,0.1,1.6-0.2c2-1.4,3.3-3.7,3.4-6.1v-8.8
				c-0.1-0.6,0.4-1.2,1-1.2s1.2,0.4,1.2,1c0,0.1,0,0.1,0,0.2v8.8c-0.1,3.3-1.8,6.3-4.5,8.1C165.4,238.9,164.6,239.2,163.9,239.2z"/>
			<path class="st2" d="M165.5,233.5c-0.6,0-1.1-0.5-1.1-1.1c0,0,0,0,0,0v-8.5c0-0.6,0.5-1.1,1.1-1.1c0.6,0,1.1,0.5,1.1,1.1v8.5
				C166.7,233,166.2,233.5,165.5,233.5C165.5,233.5,165.5,233.5,165.5,233.5z"/>
		</g>
		<g id="freepik--server--inject-33">
			<path class="st4" d="M66.2,363.4c0.6,0.4,1,1,1,1.7c0,0.6-0.4,0.9-1,0.6c-0.6-0.4-1-1-1-1.7C65.2,363.3,65.6,363.1,66.2,363.4z"
				/>
			<path class="st4" d="M74.2,368.1c0.6,0.4,1,1,1,1.7c0,0.6-0.4,0.9-1,0.6c-0.6-0.4-1-1-1-1.7C73.3,368,73.7,367.8,74.2,368.1z"/>
			<path class="st4" d="M82.2,372.6c0.6,0.4,1,1,1,1.7c0,0.6-0.4,0.9-1,0.6c-0.6-0.4-1-1-1-1.7C81.2,372.6,81.6,372.3,82.2,372.6z"
				/>
			<path class="st4" d="M90.2,377.3c0.6,0.4,1,1,1,1.7c0,0.6-0.4,0.9-1,0.6c-0.6-0.4-1-1-1-1.7C89.2,377.2,89.7,377,90.2,377.3z"/>
			<path class="st4" d="M56.7,315.9l8.3,4.7c1.4,0.9,2.2,2.4,2.3,4v4.7c0,1.5-1,2.1-2.3,1.3l-8.3-4.7c-1.4-0.9-2.2-2.4-2.3-4v-4.7
				C54.4,315.8,55.5,315.2,56.7,315.9z"/>
			<path class="st2" d="M59,321.2l1.1-0.6l0,0c0.5-0.2,1-0.2,1.4,0.1c1.2,0.8,1.9,2.1,2,3.5c0.1,0.5-0.2,1-0.6,1.3l0,0l-1,0.6
				l-0.2-0.3c-0.2,0-0.4-0.1-0.6-0.2c-1.2-0.8-1.9-2.1-2-3.5c0-0.2,0-0.3,0.1-0.5L59,321.2z"/>
			<path class="st13" d="M59,321.2l1.1-0.6l0,0c0.5-0.2,1-0.2,1.4,0.1c1.2,0.8,1.9,2.1,2,3.5c0.1,0.5-0.2,1-0.6,1.3l0,0l-1,0.6
				l-0.2-0.3c-0.2,0-0.4-0.1-0.6-0.2c-1.2-0.8-1.9-2.1-2-3.5c0-0.2,0-0.3,0.1-0.5L59,321.2z"/>
			<path class="st2" d="M60.4,321.3c1.2,0.8,1.9,2.1,2,3.5c0,1.3-0.9,1.8-2,1.2c-1.2-0.8-1.9-2.1-2-3.5
				C58.4,321.2,59.3,320.7,60.4,321.3z"/>
			<path class="st6" d="M56.7,293.2L65,298c1.4,0.9,2.2,2.4,2.3,4v4.7c0,1.5-1,2.1-2.3,1.4l-8.2-4.7c-1.4-0.9-2.2-2.4-2.3-4v-4.7
				C54.4,293.1,55.5,292.5,56.7,293.2z"/>
			<path class="st2" d="M59,298.6l1.1-0.6l0,0c0.5-0.2,1-0.2,1.4,0.1c1.2,0.8,1.9,2.1,2,3.5c0.1,0.5-0.2,1-0.6,1.3l0,0l-1,0.6
				l-0.2-0.3c-0.2,0-0.4-0.1-0.6-0.2c-1.2-0.8-1.9-2.1-2-3.5c0-0.2,0-0.3,0.1-0.5L59,298.6z"/>
			<path class="st13" d="M59,298.6l1.1-0.6l0,0c0.5-0.2,1-0.2,1.4,0.1c1.2,0.8,1.9,2.1,2,3.5c0.1,0.5-0.2,1-0.6,1.3l0,0l-1,0.6
				l-0.2-0.3c-0.2,0-0.4-0.1-0.6-0.2c-1.2-0.8-1.9-2.1-2-3.5c0-0.2,0-0.3,0.1-0.5L59,298.6z"/>
			<path class="st2" d="M60.4,298.7c1.2,0.8,1.9,2.1,2,3.5c0,1.3-0.9,1.8-2,1.2c-1.2-0.8-1.9-2.1-2-3.5
				C58.4,298.5,59.3,298,60.4,298.7z"/>
			<path class="st6" d="M185.6,276.1l-38,22c-1.5,1-2.5,2.6-2.6,4.4v5.2c0,1.6,1.1,2.3,2.6,1.5l38-22c1.5-1,2.5-2.6,2.6-4.4v-5.2
				C188.1,275.9,187,275.3,185.6,276.1z"/>
			<path class="st2" d="M185.4,280.5v2.5c0,0.4-0.2,0.7-0.5,0.9l-0.6,0.3c-0.3,0.2-0.5,0-0.5-0.3v-2.5c0-0.4,0.2-0.7,0.5-0.9
				l0.6-0.3C185.2,280,185.4,280.1,185.4,280.5z"/>
			<path class="st2" d="M182.9,281.9v2.5c0,0.4-0.2,0.7-0.5,0.9l-0.6,0.3c-0.3,0.2-0.5,0-0.5-0.3v-2.5c0-0.4,0.2-0.7,0.5-0.9
				l0.6-0.3C182.6,281.5,182.9,281.6,182.9,281.9z"/>
			<path class="st2" d="M180.3,283.4v2.5c0,0.4-0.2,0.7-0.5,0.9l-0.6,0.3c-0.3,0.2-0.5,0-0.5-0.3v-2.5c0-0.4,0.2-0.7,0.5-0.9
				l0.6-0.3C180,283,180.3,283.1,180.3,283.4z"/>
			<path class="st2" d="M177.7,284.9v2.5c0,0.4-0.2,0.7-0.5,0.9l-0.6,0.3c-0.3,0.2-0.5,0-0.5-0.3v-2.5c0-0.4,0.2-0.7,0.5-0.9
				l0.6-0.3C177.5,284.5,177.7,284.6,177.7,284.9z"/>
			<path class="st4" d="M175.1,286.4v2.5c0,0.4-0.2,0.7-0.5,0.9l-0.6,0.3c-0.3,0.2-0.5,0-0.5-0.3v-2.5c0-0.4,0.2-0.7,0.5-0.9
				l0.6-0.3C174.9,285.9,175.1,286.1,175.1,286.4z"/>
			<path class="st4" d="M172.5,287.9v2.5c0,0.4-0.2,0.7-0.5,0.9l-0.6,0.3c-0.3,0.2-0.5,0-0.5-0.3v-2.5c0-0.4,0.2-0.7,0.5-0.9
				l0.6-0.3C172.3,287.4,172.5,287.6,172.5,287.9z"/>
			<path class="st2" d="M169.9,289.4v2.5c0,0.4-0.2,0.7-0.5,0.9l-0.6,0.3c-0.3,0.2-0.5,0-0.5-0.3v-2.5c0-0.4,0.2-0.7,0.5-0.9
				l0.6-0.3C169.7,288.9,169.9,289,169.9,289.4z"/>
			<path class="st2" d="M167.4,290.9v2.5c0,0.4-0.2,0.7-0.5,0.9l-0.6,0.3c-0.3,0.2-0.5,0-0.5-0.3v-2.5c0-0.4,0.2-0.7,0.5-0.9
				l0.6-0.3C167.1,290.4,167.4,290.5,167.4,290.9z"/>
			<path class="st2" d="M164.8,292.4v2.5c0,0.4-0.2,0.7-0.5,0.9l-0.6,0.3c-0.3,0.2-0.5,0-0.5-0.3v-2.5c0-0.4,0.2-0.7,0.5-0.9
				l0.6-0.3C164.6,291.9,164.8,292,164.8,292.4z"/>
			<path class="st4" d="M162.2,293.8v2.5c0,0.4-0.2,0.7-0.5,0.9l-0.6,0.3c-0.3,0.2-0.5,0-0.5-0.3v-2.5c0-0.4,0.2-0.7,0.5-0.9
				l0.6-0.3C162,293.4,162.2,293.5,162.2,293.8z"/>
			<path class="st2" d="M159.6,295.3v2.5c0,0.4-0.2,0.7-0.5,0.9l-0.6,0.3c-0.3,0.2-0.5,0-0.5-0.3v-2.5c0-0.4,0.2-0.7,0.5-0.9
				l0.6-0.3C159.4,294.9,159.6,295,159.6,295.3z"/>
			<path class="st2" d="M157,296.8v2.5c0,0.4-0.2,0.7-0.5,0.9l-0.6,0.3c-0.3,0.2-0.5,0-0.5-0.3v-2.5c0-0.4,0.2-0.7,0.5-0.9l0.6-0.3
				C156.8,296.4,157,296.5,157,296.8z"/>
			<path class="st4" d="M154.4,298.3v2.5c0,0.4-0.2,0.7-0.5,0.9l-0.6,0.3c-0.3,0.2-0.5,0-0.5-0.3v-2.5c0-0.4,0.2-0.7,0.5-0.9
				l0.6-0.3C154.2,297.9,154.4,298,154.4,298.3z"/>
			<path class="st2" d="M151.9,299.8v2.5c0,0.4-0.2,0.7-0.5,0.9l-0.6,0.3c-0.3,0.2-0.5,0-0.5-0.3v-2.5c0-0.4,0.2-0.7,0.5-0.9
				l0.6-0.3C151.6,299.3,151.9,299.5,151.9,299.8z"/>
			<path class="st4" d="M149.3,301.3v2.5c0,0.4-0.2,0.7-0.5,0.9l-0.6,0.3c-0.3,0.2-0.5,0-0.5-0.3v-2.5c0-0.4,0.2-0.7,0.5-0.9
				l0.6-0.3C149.1,300.8,149.3,301,149.3,301.3z"/>
			<path class="st6" d="M141.1,306.3l-1.1-0.6l0,0c-0.5-0.2-1-0.2-1.4,0.1c-1.2,0.8-1.9,2.1-2,3.5c-0.1,0.5,0.2,1,0.6,1.3l0,0l1,0.6
				l0.2-0.3c0.2,0,0.4-0.1,0.6-0.2c1.2-0.8,1.9-2.1,2-3.5c0-0.2,0-0.3-0.1-0.5L141.1,306.3z"/>
			<path class="st2" d="M139.7,306.4c-1.2,0.8-1.9,2.1-2,3.5c0,1.3,0.9,1.8,2,1.2c1.2-0.8,1.9-2.1,2-3.5
				C141.7,306.3,140.8,305.8,139.7,306.4z"/>
			<path class="st14" d="M139.7,306.4c-1.2,0.8-1.9,2.1-2,3.5c0,1.3,0.9,1.8,2,1.2c1.2-0.8,1.9-2.1,2-3.5
				C141.7,306.3,140.8,305.8,139.7,306.4z"/>
			<path class="st6" d="M132.4,311.4l-1.1-0.6l0,0c-0.5-0.2-1-0.1-1.4,0.1c-1.2,0.8-1.9,2.1-2,3.5c-0.1,0.5,0.2,1,0.6,1.3l0,0l1,0.6
				l0.2-0.3c0.2,0,0.4-0.1,0.6-0.2c1.2-0.8,1.9-2.1,2-3.5c0-0.2,0-0.3-0.1-0.5L132.4,311.4z"/>
			<path class="st2" d="M130.9,311.5c-1.2,0.8-1.9,2.1-2,3.5c0,1.3,0.9,1.8,2,1.2c1.2-0.8,1.9-2.1,2-3.5
				C132.9,311.4,132,310.8,130.9,311.5z"/>
			<path class="st14" d="M130.9,311.5c-1.2,0.8-1.9,2.1-2,3.5c0,1.3,0.9,1.8,2,1.2c1.2-0.8,1.9-2.1,2-3.5
				C132.9,311.4,132,310.8,130.9,311.5z"/>
			<path class="st6" d="M73.9,301.3l39.8,23c0.8,0.5,1.2,1.3,1.3,2.2v11c0,0.8-0.6,1.1-1.3,0.7l-39.8-23c-0.8-0.5-1.3-1.3-1.3-2.3
				v-11C72.6,301.2,73.2,300.9,73.9,301.3z"/>
			<path class="st2" d="M75,306.1c0.1,0.9,0.5,1.7,1.3,2.1l35,20.2c0.7,0.4,1.3,0.1,1.3-0.7c-0.1-0.9-0.5-1.7-1.3-2.1l-35-20.2
				C75.6,305.1,75,305.4,75,306.1z"/>
			<path class="st7" d="M75,311.7c0.1,0.9,0.5,1.7,1.3,2.1l34.9,20.1c0.7,0.4,1.3,0.1,1.3-0.6c-0.1-0.9-0.5-1.7-1.3-2.1l-34.9-20.1
				C75.6,310.7,75,311,75,311.7z"/>
			<path class="st2" d="M76.3,311.1l19.3,11.1v2.8l-19.3-11.1c-0.7-0.5-1.2-1.3-1.3-2.1C75,311,75.6,310.7,76.3,311.1z"/>
			<path class="st4" d="M56.7,293.2L65,298c1.4,0.9,2.2,2.4,2.3,4v4.7c0,1.5-1,2.1-2.3,1.4l-8.2-4.7c-1.4-0.9-2.2-2.4-2.3-4v-4.7
				C54.4,293.1,55.5,292.5,56.7,293.2z"/>
			<path class="st2" d="M59,298.6l1.1-0.6l0,0c0.5-0.2,1-0.2,1.4,0.1c1.2,0.8,1.9,2.1,2,3.5c0.1,0.5-0.2,1-0.6,1.3l0,0l-1,0.6
				l-0.2-0.3c-0.2,0-0.4-0.1-0.6-0.2c-1.2-0.8-1.9-2.1-2-3.5c0-0.2,0-0.3,0.1-0.5L59,298.6z"/>
			<path class="st13" d="M59,298.6l1.1-0.6l0,0c0.5-0.2,1-0.2,1.4,0.1c1.2,0.8,1.9,2.1,2,3.5c0.1,0.5-0.2,1-0.6,1.3l0,0l-1,0.6
				l-0.2-0.3c-0.2,0-0.4-0.1-0.6-0.2c-1.2-0.8-1.9-2.1-2-3.5c0-0.2,0-0.3,0.1-0.5L59,298.6z"/>
			<path class="st2" d="M60.4,298.7c1.2,0.8,1.9,2.1,2,3.5c0,1.3-0.9,1.8-2,1.2c-1.2-0.8-1.9-2.1-2-3.5
				C58.4,298.5,59.3,298,60.4,298.7z"/>
			<path class="st4" d="M73.9,301.3l39.8,23c0.8,0.5,1.2,1.3,1.3,2.2v11c0,0.8-0.6,1.1-1.3,0.7l-39.8-23c-0.8-0.5-1.3-1.3-1.3-2.3
				v-11C72.6,301.2,73.2,300.9,73.9,301.3z"/>
			<path class="st2" d="M75,306.1c0.1,0.9,0.5,1.7,1.3,2.1l35,20.2c0.7,0.4,1.3,0.1,1.3-0.7c-0.1-0.9-0.5-1.7-1.3-2.1l-35-20.2
				C75.6,305.1,75,305.4,75,306.1z"/>
			<path class="st7" d="M75,311.7c0.1,0.9,0.5,1.7,1.3,2.1l34.9,20.1c0.7,0.4,1.3,0.1,1.3-0.6c-0.1-0.9-0.5-1.7-1.3-2.1l-34.9-20.1
				C75.6,310.7,75,311,75,311.7z"/>
			<path class="st2" d="M76.3,311.1l19.3,11.1v2.8l-19.3-11.1c-0.7-0.5-1.2-1.3-1.3-2.1C75,311,75.6,310.7,76.3,311.1z"/>
			<path class="st4" d="M73.9,324l39.8,23c0.8,0.5,1.2,1.3,1.3,2.2v11c0,0.8-0.6,1.1-1.3,0.7l-39.8-23c-0.8-0.5-1.2-1.3-1.3-2.2v-11
				C72.6,324,73.2,323.6,73.9,324z"/>
			<path class="st2" d="M75,328.9c0.1,0.9,0.5,1.7,1.3,2.1l35,20.2c0.7,0.4,1.3,0.1,1.3-0.6c-0.1-0.9-0.5-1.7-1.3-2.1l-35-20.1
				C75.6,327.8,75,328.1,75,328.9z"/>
			<path class="st7" d="M75,334.5c0.1,0.9,0.5,1.7,1.3,2.1l35,20.2c0.7,0.4,1.3,0.1,1.3-0.6c-0.1-0.9-0.5-1.7-1.3-2.1l-35-20.2
				C75.6,333.4,75,333.7,75,334.5z"/>
			<path class="st2" d="M76.3,333.8l24.2,13.9v2.8l-24.2-13.9c-0.7-0.5-1.2-1.3-1.3-2.1C75,333.7,75.6,333.4,76.3,333.8z"/>
		</g>
		<path class="st6" d="M56.7,338.7l8.3,4.7c1.4,0.9,2.2,2.4,2.3,4v4.7c0,1.5-1,2.1-2.3,1.3l-8.2-4.7c-1.4-0.9-2.2-2.4-2.3-4v-4.7
			C54.4,338.6,55.5,338,56.7,338.7z"/>
		<path class="st2" d="M59,344l1.1-0.6l0,0c0.5-0.2,1-0.2,1.4,0.1c1.2,0.8,1.9,2.1,2,3.5c0.1,0.5-0.2,1-0.6,1.3l0,0l-1,0.6l-0.2-0.3
			c-0.2,0-0.4-0.1-0.6-0.2c-1.2-0.8-1.9-2.1-2-3.5c0-0.2,0-0.3,0.1-0.5L59,344z"/>
		<path class="st13" d="M59,344l1.1-0.6l0,0c0.5-0.2,1-0.2,1.4,0.1c1.2,0.8,1.9,2.1,2,3.5c0.1,0.5-0.2,1-0.6,1.3l0,0l-1,0.6
			l-0.2-0.3c-0.2,0-0.4-0.1-0.6-0.2c-1.2-0.8-1.9-2.1-2-3.5c0-0.2,0-0.3,0.1-0.5L59,344z"/>
		<path class="st2" d="M60.4,344.1c1.2,0.8,1.9,2.1,2,3.5c0,1.3-0.9,1.8-2,1.2c-1.2-0.8-1.9-2.1-2-3.5
			C58.4,344,59.3,343.5,60.4,344.1z"/>
		<path class="st4" d="M56.7,338.7l8.3,4.7c1.4,0.9,2.2,2.4,2.3,4v4.7c0,1.5-1,2.1-2.3,1.3l-8.2-4.7c-1.4-0.9-2.2-2.4-2.3-4v-4.7
			C54.4,338.6,55.5,338,56.7,338.7z"/>
		<path class="st2" d="M59,344l1.1-0.6l0,0c0.5-0.2,1-0.2,1.4,0.1c1.2,0.8,1.9,2.1,2,3.5c0.1,0.5-0.2,1-0.6,1.3l0,0l-1,0.6l-0.2-0.3
			c-0.2,0-0.4-0.1-0.6-0.2c-1.2-0.8-1.9-2.1-2-3.5c0-0.2,0-0.3,0.1-0.5L59,344z"/>
		<path class="st13" d="M59,344l1.1-0.6l0,0c0.5-0.2,1-0.2,1.4,0.1c1.2,0.8,1.9,2.1,2,3.5c0.1,0.5-0.2,1-0.6,1.3l0,0l-1,0.6
			l-0.2-0.3c-0.2,0-0.4-0.1-0.6-0.2c-1.2-0.8-1.9-2.1-2-3.5c0-0.2,0-0.3,0.1-0.5L59,344z"/>
		<path class="st2" d="M60.4,344.1c1.2,0.8,1.9,2.1,2,3.5c0,1.3-0.9,1.8-2,1.2c-1.2-0.8-1.9-2.1-2-3.5
			C58.4,344,59.3,343.5,60.4,344.1z"/>
		<path class="st4" d="M73.9,346.8l39.8,23c0.8,0.5,1.3,1.3,1.3,2.2v11c0,0.8-0.6,1.2-1.3,0.8l-39.8-23c-0.8-0.5-1.2-1.3-1.3-2.2
			v-11C72.6,346.7,73.2,346.4,73.9,346.8z"/>
		<path class="st2" d="M75,351.6c0.1,0.9,0.5,1.7,1.3,2.1l35,20.2c0.7,0.4,1.3,0.1,1.3-0.6c-0.1-0.9-0.5-1.7-1.3-2.1l-35-20.1
			C75.6,350.5,75,350.8,75,351.6z"/>
		<path class="st7" d="M75,357.2c0.1,0.9,0.5,1.7,1.3,2.1l35,20.2c0.7,0.4,1.3,0.1,1.3-0.6c-0.1-0.9-0.5-1.7-1.3-2.1l-35-20.2
			C75.6,356.1,75,356.4,75,357.2z"/>
		<path class="st2" d="M76.3,356.5l19.3,11.1v2.8l-19.3-11.1c-0.7-0.5-1.2-1.3-1.3-2.1C75,356.4,75.6,356.1,76.3,356.5z"/>
		<path class="st8" d="M177.3,158.4l-53.1,30.6c-0.9,0.4-1.9,0.4-2.7,0l-53.1-30.6c-0.4-0.1-0.7-0.6-0.5-1.1
			c0.1-0.2,0.3-0.4,0.5-0.5l53.1-29.6c0.9-0.4,1.9-0.4,2.7,0l53.1,29.6c0.4,0.2,0.6,0.7,0.4,1.2
			C177.6,158.2,177.4,158.3,177.3,158.4z"/>
		<path class="st2" d="M124.2,187.4l50.8-29.3c0.8-0.5,1.3-1.3,1.3-2.3v-1.7c-0.1-0.9-0.5-1.8-1.3-2.3l-50.8-29.3
			c-0.8-0.4-1.8-0.4-2.6,0l-50.8,29.3c-0.8,0.5-1.3,1.4-1.3,2.3v1.7c0.1,0.9,0.5,1.8,1.3,2.3l50.8,29.3
			C122.4,187.8,123.3,187.8,124.2,187.4z"/>
		<path class="st15" d="M124.2,187.4l50.8-29.3c0.8-0.5,1.3-1.3,1.3-2.3v-1.7c-0.1-0.9-0.5-1.8-1.3-2.3l-50.8-29.3
			c-0.8-0.4-1.8-0.4-2.6,0l-50.8,29.3c-0.8,0.5-1.3,1.4-1.3,2.3v1.7c0.1,0.9,0.5,1.8,1.3,2.3l50.8,29.3
			C122.4,187.8,123.3,187.8,124.2,187.4z"/>
		<path class="st9" d="M124.2,187.4l50.8-29.3c0.8-0.5,1.3-1.3,1.3-2.3v-1.7c-0.1-0.9-0.5-1.8-1.3-2.3l-50.8-29.3
			c-0.8-0.4-1.8-0.4-2.6,0l-50.8,29.3c-0.8,0.5-1.3,1.4-1.3,2.3v1.7c0.1,0.9,0.5,1.8,1.3,2.3l50.8,29.3
			C122.4,187.8,123.3,187.8,124.2,187.4z"/>
		<path class="st2" d="M174.9,153.3l-50.8,29.3c-0.8,0.4-1.8,0.4-2.6,0l-50.8-29.3c-0.4-0.1-0.6-0.6-0.5-1c0.1-0.2,0.3-0.4,0.5-0.5
			l50.8-28.3c0.8-0.4,1.8-0.4,2.6,0l50.8,28.3c0.4,0.1,0.6,0.6,0.5,1C175.4,153,175.2,153.2,174.9,153.3z"/>
		<path class="st11" d="M174.9,153.3l-50.8,29.3c-0.8,0.4-1.8,0.4-2.6,0l-50.8-29.3c-0.4-0.1-0.6-0.6-0.5-1c0.1-0.2,0.3-0.4,0.5-0.5
			l50.8-28.3c0.8-0.4,1.8-0.4,2.6,0l50.8,28.3c0.4,0.1,0.6,0.6,0.5,1C175.4,153,175.2,153.2,174.9,153.3z"/>
		<path class="st2" d="M122.8,182.9v4.7c0.5,0,0.9-0.1,1.3-0.3l50.8-29.3c0.8-0.5,1.3-1.4,1.3-2.3v-1.7c0-0.8-0.4-1.6-1.1-2.1
			c0.5,0.4,0.4,1-0.2,1.3l-50.8,29.3C123.8,182.8,123.3,183,122.8,182.9z"/>
		<path class="st16" d="M122.8,182.9v4.7c0.5,0,0.9-0.1,1.3-0.3l50.8-29.3c0.8-0.5,1.3-1.4,1.3-2.3v-1.7c0-0.8-0.4-1.6-1.1-2.1
			c0.5,0.4,0.4,1-0.2,1.3l-50.8,29.3C123.8,182.8,123.3,183,122.8,182.9z"/>
		<path class="st7" d="M124.2,173.1l34.4-19.8c0.8-0.5,1.3-1.4,1.3-2.3v-1.7c0-0.9-0.5-1.8-1.3-2.3l-22-12.7c-0.8-0.5-1.6-1.2-2.2-2
			l-10.5-14.2c-0.5-0.7-1.5-0.9-2.2-0.5l-34.4,19.9c-0.8,0.5-1.3,1.3-1.3,2.3V151c0.1,0.9,0.5,1.8,1.3,2.3l34.3,19.8
			C122.4,173.5,123.3,173.6,124.2,173.1z"/>
		<path class="st6" d="M121.5,168.4l-22-12.7c-0.4-0.2-0.8-0.5-1.2-0.9c-0.4-0.3-0.8-0.7-1.1-1.1l-10.5-14.2
			c-0.5-0.6-0.4-1.4,0.2-1.8c0.1-0.1,0.2-0.1,0.2-0.2l34.3-19.8c0.7-0.4,1.7-0.2,2.2,0.5l10.5,14.2c0.5,0.8,1.2,1.5,2,2l22.2,12.6
			c0.4,0.1,0.7,0.6,0.5,1c-0.1,0.2-0.3,0.4-0.5,0.5l-34.3,19.8C123.3,168.7,122.4,168.8,121.5,168.4z"/>
		<path class="st4" d="M87.2,137.6l34.3-19.8c0.7-0.4,1.7-0.2,2.2,0.5l10.5,14.2c0.3,0.4,0.7,0.8,1.1,1.1c0,0-37,21.4-37,21.3
			c-0.4-0.3-0.8-0.7-1.1-1.1l-10.5-14.2c-0.4-0.6-0.4-1.4,0.2-1.8C87.1,137.6,87.1,137.6,87.2,137.6z"/>
		<path class="st2" d="M150.2,147.4c-1-0.5-2.1-0.5-3.1,0c-0.9,0.5-0.9,1.3,0,1.8c1,0.5,2.1,0.5,3.1,0c0.5-0.2,0.8-0.7,0.6-1.2
			C150.7,147.7,150.5,147.5,150.2,147.4z"/>
		<path class="st2" d="M144,151c-1-0.5-2.1-0.5-3.1,0c-0.5,0.2-0.8,0.7-0.6,1.2c0.1,0.3,0.3,0.5,0.6,0.6c1,0.5,2.1,0.5,3.1,0
			c0.5-0.2,0.8-0.7,0.6-1.2C144.5,151.3,144.3,151.1,144,151z"/>
		<path class="st7" d="M137.9,154.5c-1-0.5-2.1-0.5-3.1,0c-0.5,0.2-0.8,0.7-0.6,1.2c0.1,0.3,0.3,0.5,0.6,0.6c1,0.5,2.1,0.5,3.1,0
			c0.5-0.2,0.8-0.7,0.6-1.2C138.3,154.8,138.1,154.6,137.9,154.5z"/>
		<path class="st7" d="M131.7,158.1c-1-0.5-2.1-0.5-3.1,0c-0.5,0.2-0.8,0.7-0.6,1.2c0.1,0.3,0.3,0.5,0.6,0.6c1,0.5,2.1,0.5,3.1,0
			c0.5-0.2,0.8-0.7,0.6-1.2C132.2,158.4,132,158.2,131.7,158.1z"/>
		<path class="st2" d="M145.6,144.7c-1-0.5-2.1-0.5-3.1,0c-0.5,0.2-0.8,0.7-0.6,1.2c0.1,0.3,0.3,0.5,0.6,0.6c1,0.5,2.1,0.5,3.1,0
			c0.5-0.2,0.8-0.7,0.6-1.2C146.1,145,145.8,144.8,145.6,144.7z"/>
		<path class="st7" d="M139.4,148.3c-1-0.5-2.1-0.5-3.1,0c-0.5,0.2-0.8,0.7-0.6,1.2c0.1,0.3,0.3,0.5,0.6,0.6c1,0.5,2.1,0.5,3.1,0
			c0.5-0.2,0.8-0.7,0.6-1.2C139.9,148.6,139.7,148.4,139.4,148.3z"/>
		<ellipse class="st2" cx="131.7" cy="152.7" rx="2.2" ry="1.3"/>
		<path class="st7" d="M127.1,155.4c-1-0.5-2.1-0.5-3.1,0c-0.5,0.2-0.8,0.7-0.6,1.2c0.1,0.3,0.3,0.5,0.6,0.6c1,0.5,2.1,0.5,3.1,0
			c0.5-0.2,0.8-0.7,0.6-1.2C127.6,155.7,127.3,155.5,127.1,155.4z"/>
		<path class="st7" d="M140.9,142.1c-1-0.5-2.1-0.5-3.1,0c-0.5,0.2-0.8,0.7-0.6,1.2c0.1,0.3,0.3,0.5,0.6,0.6c1,0.5,2.1,0.5,3.1,0
			c0.5-0.2,0.8-0.7,0.6-1.2C141.4,142.4,141.2,142.2,140.9,142.1z"/>
		<path class="st2" d="M134.8,145.6c-1-0.5-2.1-0.5-3.1,0c-0.5,0.2-0.8,0.7-0.6,1.2c0.1,0.3,0.3,0.5,0.6,0.6c1,0.5,2.1,0.5,3.1,0
			c0.5-0.2,0.8-0.7,0.6-1.2C135.3,145.9,135.1,145.7,134.8,145.6z"/>
		<path class="st7" d="M128.6,149.2c-1-0.5-2.1-0.5-3.1,0c-0.5,0.2-0.8,0.7-0.6,1.2c0.1,0.3,0.3,0.5,0.6,0.6c1,0.5,2.1,0.5,3.1,0
			c0.5-0.2,0.8-0.7,0.6-1.2C129.1,149.5,128.9,149.3,128.6,149.2z"/>
		<path class="st2" d="M125.5,161.6c-1-0.5-2.1-0.5-3.1,0c-0.5,0.2-0.8,0.7-0.6,1.2c0.1,0.3,0.3,0.5,0.6,0.6c1,0.5,2.1,0.5,3.1,0
			c0.5-0.2,0.8-0.7,0.6-1.2C126,161.9,125.8,161.6,125.5,161.6z"/>
		<ellipse class="st7" cx="119.3" cy="159.8" rx="2.2" ry="1.3"/>
		<path class="st7" d="M122.4,152.7c-1-0.5-2.1-0.5-3.1,0c-0.5,0.2-0.8,0.7-0.6,1.2c0.1,0.3,0.3,0.5,0.6,0.6c1,0.5,2.1,0.5,3.1,0
			c0.5-0.2,0.8-0.7,0.6-1.2C122.9,153,122.7,152.8,122.4,152.7z"/>
		<path class="st2" d="M136.3,139.4c-1-0.5-2.1-0.5-3.1,0c-0.5,0.2-0.8,0.7-0.6,1.2c0.1,0.3,0.3,0.5,0.6,0.6c1,0.5,2.1,0.5,3.1,0
			c0.5-0.2,0.8-0.7,0.6-1.2C136.8,139.7,136.6,139.5,136.3,139.4z"/>
		<path class="st7" d="M130.1,143c-1-0.5-2.1-0.5-3.1,0c-0.5,0.2-0.8,0.7-0.6,1.2c0.1,0.3,0.3,0.5,0.6,0.6c1,0.5,2.1,0.5,3.1,0
			c0.5-0.2,0.8-0.7,0.6-1.2C130.6,143.3,130.4,143.1,130.1,143z"/>
		<path class="st2" d="M124,146.5c-1-0.5-2.1-0.5-3.1,0c-0.5,0.2-0.8,0.7-0.6,1.2c0.1,0.3,0.3,0.5,0.6,0.6c1,0.5,2.1,0.5,3.1,0
			c0.5-0.2,0.8-0.7,0.6-1.2C124.5,146.8,124.3,146.6,124,146.5z"/>
		<path class="st7" d="M117.8,150.1c-1-0.5-2.1-0.5-3.1,0c-0.9,0.5-0.9,1.3,0,1.8c1,0.5,2.1,0.5,3.1,0c0.5-0.2,0.8-0.7,0.6-1.2
			C118.3,150.4,118.1,150.2,117.8,150.1z"/>
		<path class="st2" d="M116.2,156.2c-1-0.5-2.1-0.5-3.1,0c-0.5,0.2-0.8,0.7-0.6,1.2c0.1,0.3,0.3,0.5,0.6,0.6c1,0.5,2.1,0.5,3.1,0
			c0.5-0.2,0.8-0.7,0.6-1.2C116.7,156.5,116.5,156.3,116.2,156.2z"/>
		<path class="st7" d="M111.6,153.6c-1-0.5-2.1-0.5-3.1,0c-0.5,0.2-0.8,0.7-0.6,1.2c0.1,0.3,0.3,0.5,0.6,0.6c1,0.5,2.1,0.5,3.1,0
			c0.5-0.2,0.8-0.7,0.6-1.2C112.1,153.9,111.9,153.6,111.6,153.6z"/>
		<path class="st4" d="M122.8,168.7v4.7c0.5,0,1-0.1,1.4-0.3l34.3-19.8c0.8-0.5,1.3-1.3,1.3-2.3v-1.7c0-0.8-0.4-1.6-1.1-2.1
			c0.5,0.4,0.4,1-0.2,1.3l-34.3,19.8C123.7,168.6,123.3,168.7,122.8,168.7z"/>
		<path class="st7" d="M129.7,131.8L129.7,131.8c-0.4-0.5-1-0.6-1.5-0.3l-29.9,17.2c-0.4,0.2-0.6,0.8-0.3,1.2c0,0,0,0.1,0.1,0.1l0,0
			c0.4,0.4,1,0.6,1.5,0.3l29.9-17.3C129.8,132.8,130,132.3,129.7,131.8C129.8,131.8,129.8,131.8,129.7,131.8z"/>
		<path class="st2" d="M129.7,131.8L129.7,131.8c-0.4-0.5-1-0.6-1.5-0.3L106,144.2l1.2,1.7l22.2-12.8c0.4-0.2,0.6-0.8,0.4-1.2
			C129.8,131.8,129.8,131.8,129.7,131.8z"/>
		<path class="st7" d="M127.3,128.4L127.3,128.4c-0.3-0.5-1-0.6-1.5-0.3l-29.9,17.2c-0.4,0.2-0.6,0.8-0.4,1.2c0,0,0.1,0.1,0.1,0.1
			l0,0c0.3,0.5,1,0.6,1.5,0.3l29.9-17.2c0.4-0.2,0.6-0.8,0.3-1.2C127.3,128.5,127.3,128.5,127.3,128.4z"/>
		<path class="st2" d="M127.3,128.4L127.3,128.4c-0.3-0.5-1-0.6-1.5-0.3l-7.4,4.3l1.2,1.7l7.4-4.3c0.4-0.2,0.6-0.8,0.4-1.2
			C127.3,128.6,127.3,128.5,127.3,128.4z"/>
		<path class="st7" d="M124.8,125.1L124.8,125.1c-0.3-0.5-1-0.6-1.5-0.3L93.4,142c-0.4,0.2-0.6,0.8-0.3,1.2c0,0,0,0.1,0.1,0.1l0,0
			c0.4,0.5,1,0.6,1.5,0.3l29.9-17.2C124.9,126.1,125.1,125.6,124.8,125.1C124.8,125.2,124.8,125.1,124.8,125.1z"/>
		<path class="st2" d="M124.8,125.1L124.8,125.1c-0.3-0.5-1-0.6-1.5-0.3l-15.6,9l1.3,1.6l15.6-9C125,126.1,125.1,125.6,124.8,125.1
			C124.8,125.2,124.8,125.1,124.8,125.1z"/>
		<path class="st7" d="M122.3,121.8L122.3,121.8c-0.4-0.5-1-0.6-1.5-0.3l-29.9,17.2c-0.4,0.2-0.6,0.8-0.4,1.2c0,0,0.1,0.1,0.1,0.1
			l0,0c0.3,0.5,1,0.6,1.5,0.3l29.9-17.2c0.4-0.2,0.6-0.7,0.4-1.2C122.4,121.9,122.4,121.9,122.3,121.8z"/>
		<path class="st2" d="M122.3,121.8L122.3,121.8c-0.4-0.5-1-0.6-1.5-0.3l-27.2,15.6l1.2,1.7l27.1-15.7c0.4-0.2,0.6-0.7,0.4-1.2
			C122.4,121.9,122.4,121.9,122.3,121.8z"/>
	</g>
</g>
<g id="freepik--Gears--inject-33">
	<g id="freepik--gears--inject-33">
		<path class="st2" d="M132.4,412.7v7.5c0,0.3,0.2,0.5,0.5,0.5l3.9,0.2v5.5l0,0c0,0.1,0.1,0.2,0.2,0.3l4.1,2.4
			c0.2,0.1,0.3,0.1,0.5,0.1l0,0c0.1,0,0.3,0,0.4-0.1l4.2-1.9c0.3-0.1,0.7-0.1,1-0.1c1.1,0.3,2.2,0.6,3.3,0.8
			c0.3,0.1,0.5,0.3,0.6,0.6l0.5,2.8c0,0.1,0.1,0.3,0.2,0.4l0,0c0.1,0.1,0.2,0.1,0.4,0.1h6.1c0.1,0,0.2,0,0.3-0.1c0,0,0.1,0,0.1-0.1
			c0,0,0.1-0.1,0.1-0.1v-0.1c0-0.1,0.1-0.1,0.1-0.2l0.5-2.8c0.1-0.3,0.3-0.5,0.6-0.6c1.1-0.2,2.2-0.4,3.3-0.8c0.3-0.1,0.7-0.1,1,0.1
			l4.2,1.9c0.1,0,0.2,0,0.3,0l0,0h0.2c0.1,0,0.3,0,0.4-0.1l0,0l4.1-2.4c0.1,0,0.1-0.1,0.1-0.1l0,0c0,0,0-0.1,0-0.1l0,0v-2.4l0,0V421
			l0,0l3.9-0.2h0.1c0,0,0.1,0,0.1,0c0.1,0,0.2-0.1,0.3-0.1c0-0.1,0.1-0.1,0.1-0.2c0-0.1,0.1-0.1,0.1-0.2l0,0v-3.1l0,0v-4l0,0v-3.1
			c0-0.3-0.2-0.5-0.5-0.5l-3.9-0.2v-5.5l0,0c0-0.1-0.1-0.2-0.2-0.3l-4.1-2.4c-0.3-0.1-0.6-0.1-0.9,0l-4.2,1.9
			c-0.3,0.1-0.7,0.2-1,0.1c-1.1-0.3-2.2-0.6-3.3-0.8c-0.3-0.1-0.5-0.3-0.6-0.6L159,399c-0.1-0.3-0.3-0.5-0.6-0.5h-6.1
			c-0.3,0-0.6,0.2-0.6,0.5l-0.5,2.8c-0.1,0.3-0.3,0.5-0.6,0.6c-1.1,0.2-2.2,0.4-3.3,0.8c-0.3,0.1-0.7,0.1-1-0.1l-4.2-1.9
			c-0.3-0.1-0.6-0.1-0.9,0l-4.1,2.4c-0.1,0.1-0.2,0.2-0.2,0.3l0,0v5.5l-3.9,0.2c-0.3,0-0.5,0.3-0.5,0.5v2.5
			C132.4,412.6,132.4,412.7,132.4,412.7z M148.3,414.7c4.4-2.2,9.6-2.2,14,0c0.3,0.2,0.6,0.3,0.8,0.5c-0.3,0.2-0.5,0.4-0.8,0.5
			c-4.4,2.2-9.6,2.2-14,0c-0.3-0.2-0.6-0.3-0.8-0.5C147.8,415,148,414.8,148.3,414.7L148.3,414.7z"/>
		<path class="st5" d="M132.4,412.7v7.5c0,0.3,0.2,0.5,0.5,0.5l3.9,0.2v5.5c0,0.1,0.1,0.2,0.2,0.3l4.1,2.4c0.2,0.1,0.3,0.1,0.5,0.1
			l0,0c0.1,0,0.3,0,0.4-0.1l4.2-1.9c0.1-0.1,0.3-0.1,0.4-0.1l0,0c0.2,0,0.4,0,0.6,0c1.1,0.3,2.2,0.6,3.3,0.8c0.1,0,0.2,0,0.3,0.1
			l0,0c0.2,0.1,0.3,0.3,0.4,0.5l0.5,2.8c0,0.1,0.1,0.3,0.2,0.4l0,0c0.1,0.1,0.2,0.1,0.4,0.1h6.2c0.2,0,0.3-0.1,0.4-0.3v-0.1
			c0-0.1,0.1-0.1,0.1-0.2l0.5-2.8c0-0.2,0.1-0.3,0.2-0.4l0,0c0.1-0.1,0.2-0.2,0.4-0.2c1.1-0.2,2.2-0.4,3.3-0.8c0.2,0,0.4,0,0.6,0
			l0,0c0.1,0,0.2,0,0.3,0.1l4.2,1.9c0.1,0,0.2,0,0.3,0l0,0l0,0c0.2,0,0.4,0,0.6-0.1l0,0l4.1-2.4l0.1-0.1l0.1-0.1c0,0,0-0.1,0-0.1
			l0,0v-5.5l0.7,0l3.1-0.2h0.1c0.3,0,0.5-0.3,0.5-0.5v-7c0,0.3-0.2,0.5-0.5,0.5l-5.5,0.4c-0.3,0-0.6,0.2-0.7,0.5
			c-0.3,0.6-0.7,1.1-1.2,1.6c-0.2,0.2-0.2,0.4,0,0.6c0,0,0,0,0.1,0.1l3.3,2.4c0.2,0.1,0.2,0.3,0.1,0.4c0,0.1-0.1,0.1-0.1,0.1
			l-4.1,2.4c-0.3,0.1-0.6,0.1-0.9,0l-4.2-1.9c-0.3-0.1-0.7-0.1-1-0.1c-1.1,0.3-2.2,0.6-3.3,0.8c-0.3,0.1-0.5,0.3-0.6,0.6l-0.5,2.8
			c-0.1,0.3-0.3,0.5-0.6,0.5h-6.1c-0.3,0-0.6-0.2-0.6-0.5l-0.5-2.8c-0.1-0.3-0.3-0.5-0.6-0.6c-1.1-0.2-2.2-0.4-3.3-0.8
			c-0.3-0.1-0.7-0.1-1,0.1l-4.2,1.9c-0.3,0.1-0.6,0.1-0.9,0l-4.1-2.3c-0.2-0.1-0.2-0.3-0.1-0.4c0-0.1,0.1-0.1,0.1-0.1l3.3-2.4
			c0.2-0.1,0.2-0.4,0.1-0.6c0,0,0,0,0-0.1c-0.5-0.5-0.9-1-1.2-1.6c-0.2-0.3-0.4-0.5-0.8-0.5l-5.5-0.3c-0.3,0-0.5-0.3-0.5-0.5v-0.6
			C132.4,412.6,132.4,412.7,132.4,412.7z"/>
		<path class="st5" d="M136.9,403.8v5.5l1.6-0.1c0.3,0,0.6-0.2,0.8-0.5c0.3-0.6,0.7-1.1,1.2-1.6c0.2-0.2,0.2-0.5,0-0.6
			c0,0,0,0-0.1,0l-3.3-2.4C136.9,404,136.8,403.9,136.9,403.8L136.9,403.8z"/>
		<path class="st17" d="M147.5,415.2l0.4-0.2l0,0l0.4-0.2c4.4-2.2,9.6-2.2,14,0l0.4,0.2c0.1,0.1,0.3,0.2,0.4,0.3
			c3-2.2,2.8-5.5-0.8-7.5c-4.4-2.2-9.6-2.2-14,0C144.7,409.7,144.5,413,147.5,415.2z"/>
		<path class="st5" d="M170.3,407.1c0.5,0.5,0.9,1,1.2,1.6c0.2,0.3,0.4,0.5,0.7,0.5l1.6,0.1v-5.5c0,0.1-0.1,0.2-0.2,0.3l-3.3,2.4
			C170.1,406.6,170.1,406.8,170.3,407.1C170.2,407.1,170.2,407.1,170.3,407.1z"/>
		<path class="st2" d="M168.5,401.1l-4.2,1.9c-0.3,0.1-0.7,0.2-1,0.1c-1.1-0.3-2.2-0.6-3.3-0.8c-0.3-0.1-0.5-0.3-0.6-0.6L159,399
			c-0.1-0.3-0.3-0.5-0.6-0.5h-6.1c-0.3,0-0.6,0.2-0.6,0.5l-0.5,2.8c-0.1,0.3-0.3,0.5-0.6,0.6c-1.1,0.2-2.2,0.4-3.3,0.8
			c-0.3,0.1-0.7,0.1-1-0.1l-4.2-1.9c-0.3-0.1-0.6-0.1-0.9,0l-4.1,2.4c-0.2,0.1-0.2,0.3-0.1,0.4c0,0.1,0.1,0.1,0.1,0.1l3.3,2.4
			c0.2,0.1,0.2,0.4,0.1,0.6c0,0,0,0,0,0.1c-0.5,0.5-0.8,1-1.2,1.6c-0.2,0.3-0.4,0.5-0.8,0.5l-5.5,0.4c-0.3,0-0.5,0.3-0.5,0.5v3.1
			c0,0.3,0.2,0.5,0.5,0.5l5.5,0.3c0.3,0,0.6,0.2,0.8,0.5c0.3,0.6,0.7,1.1,1.2,1.6c0.2,0.2,0.2,0.5,0,0.6c0,0,0,0-0.1,0l-3.3,2.4
			c-0.2,0.1-0.2,0.3-0.1,0.4c0,0.1,0.1,0.1,0.1,0.1l4.1,2.4c0.3,0.1,0.6,0.1,0.9,0l4.2-1.9c0.3-0.1,0.7-0.1,1-0.1
			c1.1,0.3,2.2,0.6,3.3,0.8c0.3,0.1,0.5,0.3,0.6,0.6l0.5,2.8c0.1,0.3,0.3,0.5,0.6,0.5h6.1c0.3,0,0.5-0.2,0.6-0.5l0.5-2.8
			c0.1-0.3,0.3-0.5,0.6-0.6c1.1-0.2,2.2-0.4,3.3-0.8c0.3-0.1,0.7-0.1,1,0.1l4.2,1.9c0.3,0.1,0.6,0.1,0.9,0l4.1-2.4
			c0.2-0.1,0.2-0.3,0.1-0.4c0-0.1-0.1-0.1-0.1-0.1l-3.3-2.4c-0.2-0.1-0.3-0.4-0.1-0.6c0,0,0-0.1,0.1-0.1c0.5-0.5,0.8-1,1.2-1.6
			c0.2-0.3,0.4-0.5,0.7-0.5l5.5-0.3c0.3,0,0.5-0.3,0.5-0.5v-3.1c0-0.3-0.2-0.5-0.5-0.5l-5.5-0.4c-0.3,0-0.6-0.2-0.7-0.5
			c-0.3-0.6-0.7-1.1-1.2-1.6c-0.2-0.2-0.2-0.4,0-0.6c0,0,0.1-0.1,0.1-0.1l3.3-2.4c0.2-0.1,0.2-0.3,0.1-0.4c0-0.1-0.1-0.1-0.1-0.1
			l-4.1-2.4C169.2,401,168.8,401,168.5,401.1z M162.3,407.6c3.9,2.2,3.9,5.9,0,8.1c-4.4,2.2-9.6,2.2-14,0c-3.9-2.2-3.9-5.9,0-8.1
			C152.7,405.4,157.9,405.4,162.3,407.6L162.3,407.6z"/>
		<path class="st2" d="M173.8,419.5c0-0.1-0.1-0.2-0.2-0.3l-1.6-1.2v-3.9c0.1,0,0.1,0,0.2-0.1l5.5-0.4c0.3,0,0.5-0.3,0.5-0.5v7
			c0,0.3-0.2,0.5-0.5,0.5h-0.1l-3.1,0.2l-0.7,0C173.8,421,173.8,419.6,173.8,419.5z"/>
		<path class="st13" d="M173.8,419.5c0-0.1-0.1-0.2-0.2-0.3l-1.6-1.2v-3.9c0.1,0,0.1,0,0.2-0.1l5.5-0.4c0.3,0,0.5-0.3,0.5-0.5v7
			c0,0.3-0.2,0.5-0.5,0.5h-0.1l-3.1,0.2l-0.7,0C173.8,421,173.8,419.6,173.8,419.5z"/>
		<path class="st2" d="M164,420.2c0.1,0,0.2,0,0.3,0.1l4.2,1.9c0.2,0.1,0.4,0.1,0.5,0.1v7c-0.1,0-0.2,0-0.3,0l0,0l0,0
			c-0.1,0-0.2,0-0.3,0l-4.2-1.9c-0.1,0-0.2-0.1-0.3-0.1V420.2z"/>
		<path class="st13" d="M164,420.2c0.1,0,0.2,0,0.3,0.1l4.2,1.9c0.2,0.1,0.4,0.1,0.5,0.1v7c-0.1,0-0.2,0-0.3,0l0,0l0,0
			c-0.1,0-0.2,0-0.3,0l-4.2-1.9c-0.1,0-0.2-0.1-0.3-0.1V420.2z"/>
		<path class="st2" d="M158.9,424.6c0-0.1,0.1-0.1,0.1-0.2l0.5-2.8c0-0.1,0-0.1,0.1-0.2v7c0,0.1-0.1,0.1-0.1,0.2l-0.5,2.8
			c0,0.1-0.1,0.1-0.1,0.1V424.6z"/>
		<path class="st13" d="M158.9,424.6c0-0.1,0.1-0.1,0.1-0.2l0.5-2.8c0-0.1,0-0.1,0.1-0.2v7c0,0.1-0.1,0.1-0.1,0.2l-0.5,2.8
			c0,0.1-0.1,0.1-0.1,0.1V424.6z"/>
		<path class="st3" d="M151.1,421.4c0,0.1,0.1,0.1,0.1,0.2l0.5,2.8c0,0.1,0,0.1,0.1,0.2v7c0-0.1-0.1-0.1-0.1-0.2l-0.5-2.8
			c0-0.1,0-0.1-0.1-0.2V421.4z"/>
		<path class="st3" d="M141.6,422.3c0.2,0,0.4,0,0.5-0.1l4.2-1.9c0.1,0,0.2-0.1,0.3-0.1v7c-0.1,0-0.2,0-0.3,0.1l-4.2,1.9
			c-0.1,0.1-0.3,0.1-0.4,0.1h-0.1V422.3z"/>
		<path class="st3" d="M132.9,413.8l5.5,0.3c0.1,0,0.2,0,0.2,0.1v3.9l-1.7,1.2c-0.1,0.1-0.2,0.2-0.2,0.3v1.5l-3.9-0.2
			c-0.3,0-0.5-0.3-0.5-0.5v-7.5c0,0,0-0.1,0-0.1v0.6C132.4,413.5,132.6,413.8,132.9,413.8C132.9,413.8,132.9,413.8,132.9,413.8z"/>
		<path class="st2" d="M213.2,391L213.2,391v-0.1l0,0v-5l0,0c0-0.1,0-0.2-0.1-0.2l-1.6-2.2c-0.1-0.2-0.4-0.3-0.6-0.3l-4.1,0.7
			c-0.3,0-0.5-0.1-0.8-0.2c-0.3-0.2-0.5-0.4-0.8-0.5V380l0,0c0-0.1-0.1-0.2-0.3-0.3l-4.1-1c-0.2-0.1-0.5,0-0.7,0.1l-2,2.1
			c-0.2,0.1-0.4,0.2-0.6,0.2c-0.9-0.1-1.8-0.1-2.7,0c-0.3,0-0.5-0.1-0.7-0.3l-1.8-1.8c-0.2-0.2-0.4-0.3-0.7-0.2l-4.3,1
			c-0.1,0-0.2,0.1-0.2,0.3v3.2c-0.3,0.2-0.7,0.4-1,0.6c-0.2,0.1-0.5,0.2-0.7,0.1l-3.9-0.7c-0.2,0-0.5,0-0.6,0.2l-1.7,2.4
			c0,0,0,0.1,0,0.1l0,0c0,0.4,0,6.1,0,6.2c0,0,0,0.1,0,0.1v5c0,0.1,0,0.2,0.1,0.3l1.6,2.2c0.1,0.2,0.4,0.3,0.6,0.3l4-0.7
			c0.3,0,0.6,0.1,0.8,0.2c0.2,0.2,0.5,0.3,0.8,0.5v3.2c0,0.1,0.1,0.3,0.3,0.3l4.1,1c0.2,0.1,0.5,0,0.7-0.1l2-2.1
			c0.2-0.1,0.4-0.2,0.6-0.2c0.9,0,1.8,0,2.7,0c0.3,0,0.5,0.1,0.7,0.3l1.8,1.9c0.2,0.2,0.4,0.3,0.7,0.3l4.3-1c0.1,0,0.2-0.1,0.2-0.2
			c0-0.1,0-3.3,0-3.3c0.3-0.2,0.7-0.4,1-0.6c0.2-0.1,0.5-0.2,0.7-0.1l3.9,0.7c0.2,0,0.5,0,0.6-0.2l1.7-2.4c0,0,0-0.1,0-0.1
			C213.1,397.2,213.1,391.3,213.2,391L213.2,391z M190.3,391.2c0.2-0.1,0.4-0.3,0.6-0.4c3.3-1.7,7.3-1.7,10.6,0
			c0.2,0.1,0.4,0.2,0.6,0.4c-0.2,0.2-0.4,0.3-0.6,0.4c-2.5,1.3-5.4,1.6-8.2,0.9c-0.8-0.2-1.7-0.5-2.4-0.9
			C190.7,391.5,190.5,391.3,190.3,391.2z"/>
		<path class="st5" d="M213.2,391L213.2,391v-0.1l0,0v-5l0,0c0-0.1,0-0.2-0.1-0.2l-1.6-2.2c-0.1-0.2-0.4-0.3-0.6-0.3l-4.1,0.7
			c-0.3,0-0.5-0.1-0.8-0.2c-0.3-0.2-0.5-0.4-0.8-0.5V380l0,0c0-0.1-0.1-0.2-0.3-0.3l-4.1-1c-0.2-0.1-0.5,0-0.7,0.1l-2,2.1
			c-0.2,0.1-0.4,0.2-0.6,0.2c-0.9-0.1-1.8-0.1-2.7,0c-0.3,0-0.5-0.1-0.7-0.3l-1.8-1.8c-0.2-0.2-0.4-0.3-0.7-0.2l-4.3,1
			c-0.1,0-0.2,0.1-0.2,0.3v3.2c-0.3,0.2-0.7,0.4-1,0.6c-0.2,0.1-0.5,0.2-0.7,0.1l-3.9-0.7c-0.2,0-0.5,0-0.6,0.2l-1.7,2.4
			c0,0,0,0.1,0,0.1l0,0c0,0.4,0,6.1,0,6.2c0,0,0,0.1,0,0.1v5c0,0.1,0,0.2,0.1,0.3l1.6,2.2c0.1,0.2,0.4,0.3,0.6,0.3l4-0.7
			c0.3,0,0.6,0.1,0.8,0.2c0.2,0.2,0.5,0.3,0.8,0.5v3.2c0,0.1,0.1,0.3,0.3,0.3l4.1,1c0.2,0.1,0.5,0,0.7-0.1l2-2.1
			c0.2-0.1,0.4-0.2,0.6-0.2c0.9,0,1.8,0,2.7,0c0.3,0,0.5,0.1,0.7,0.3l1.8,1.9c0.2,0.2,0.4,0.3,0.7,0.3l4.3-1c0.1,0,0.2-0.1,0.2-0.2
			c0-0.1,0-3.3,0-3.3c0.3-0.2,0.7-0.4,1-0.6c0.2-0.1,0.5-0.2,0.7-0.1l3.9,0.7c0.2,0,0.5,0,0.6-0.2l1.7-2.4c0,0,0-0.1,0-0.1
			C213.1,397.2,213.1,391.3,213.2,391L213.2,391z M190.3,391.2c0.2-0.1,0.4-0.3,0.6-0.4c3.3-1.7,7.3-1.7,10.6,0
			c0.2,0.1,0.4,0.2,0.6,0.4c-0.2,0.2-0.4,0.3-0.6,0.4c-2.5,1.3-5.4,1.6-8.2,0.9c-0.8-0.2-1.7-0.5-2.4-0.9
			C190.7,391.5,190.5,391.3,190.3,391.2z"/>
		<path class="st2" d="M179.2,386L179.2,386L179.2,386L179.2,386L179.2,386z"/>
		<path class="st5" d="M188.1,382.7c-0.3,0.1-0.6,0.3-0.9,0.5V380c0,0.1,0,0.1,0,0.2l1,2C188.3,382.3,188.3,382.6,188.1,382.7
			C188.1,382.7,188.1,382.7,188.1,382.7z"/>
		<path class="st3" d="M183.4,387.8c-0.1,0.4-0.1,0.9,0,1.3c0,0.2-0.1,0.4-0.3,0.5l-3.7,1.2c-0.1,0-0.2,0.1-0.2,0.2
			c0,0.1,0,1.2,0,1.2v-0.1c0-2.1,0-5.6,0-5.9V386c0,0.1,0.1,0.2,0.3,0.3l3.5,1.1C183.2,387.4,183.4,387.6,183.4,387.8z"/>
		<path class="st3" d="M185.7,393v6.2h-0.1l-4,0.7c-0.1,0-0.1,0-0.2,0v-6.2c0.1,0,0.1,0,0.2,0L185.7,393L185.7,393z"/>
		<path class="st18" d="M187.1,400c-0.3-0.2-0.6-0.3-0.8-0.5c-0.2-0.1-0.4-0.2-0.6-0.2V393c0.2,0,0.4,0.1,0.6,0.2
			c0.5,0.4,1.1,0.7,1.6,0.9c0.2,0.1,0.4,0.3,0.3,0.5l-1.1,2.2c0,0,0,0.1,0,0.1C187.2,397.1,187.1,400,187.1,400z"/>
		<path class="st3" d="M194.5,395.9v6.2c-0.1,0-0.2,0.1-0.2,0.1l-2,2.1c-0.1,0.1-0.2,0.1-0.4,0.1v-6.2c0.1,0,0.3,0,0.4-0.1l2-2.1
			C194.3,396,194.4,396,194.5,395.9z"/>
		<path class="st18" d="M197.8,395.9v6.2c-0.1,0-0.2,0-0.3,0c-0.9,0-1.8,0-2.7,0c-0.1,0-0.3,0-0.4,0.1V396c0.1,0,0.3-0.1,0.4-0.1
			c0.9,0.1,1.8,0.1,2.7,0C197.6,395.9,197.7,395.9,197.8,395.9z"/>
		<path class="st3" d="M200.4,398.3v6.2c-0.1,0-0.3-0.1-0.4-0.2l-1.8-1.9c-0.1-0.1-0.3-0.2-0.5-0.3v-6.2c0.2,0.1,0.3,0.1,0.5,0.3
			l1.7,1.8C200.1,398.1,200.3,398.2,200.4,398.3z"/>
		<path class="st2" d="M205.2,397v3l0,0v3.3c0,0.1-0.1,0.2-0.2,0.2l-4.3,1c-0.1,0-0.2,0-0.3,0v-6.2c0.1,0,0.2,0,0.3,0l4.3-1
			C205.1,397.3,205.2,397.2,205.2,397z"/>
		<path class="st13" d="M205.2,397v3l0,0v3.3c0,0.1-0.1,0.2-0.2,0.2l-4.3,1c-0.1,0-0.2,0-0.3,0v-6.2c0.1,0,0.2,0,0.3,0l4.3-1
			C205.1,397.3,205.2,397.2,205.2,397z"/>
		<path class="st3" d="M206.6,393v6.2c-0.1,0-0.3,0.1-0.4,0.1c-0.3,0.2-0.7,0.4-1,0.6c0,0,0-2.8,0-3c0-0.1,0-0.1-0.1-0.2l-1-2
			c-0.1-0.2-0.1-0.4,0.1-0.5c0,0,0,0,0,0c0.7-0.3,1.3-0.7,1.9-1.1C206.3,393.1,206.4,393.1,206.6,393z"/>
		<path class="st2" d="M213.2,391.1c0,0.2,0,6.1,0,6.2c0,0,0,0.1,0,0.1l-1.7,2.4c-0.1,0.1-0.2,0.1-0.3,0.2v-6.2
			c0.1,0,0.2-0.1,0.3-0.2L213.2,391.1C213.2,391.1,213.2,391.1,213.2,391.1z"/>
		<path class="st2" d="M213.2,391.1c0,0.2,0,6.1,0,6.2c0,0,0,0.1,0,0.1l-1.7,2.4c-0.1,0.1-0.2,0.1-0.3,0.2v-6.2
			c0.1,0,0.2-0.1,0.3-0.2L213.2,391.1C213.2,391.1,213.2,391.1,213.2,391.1z"/>
		<path class="st13" d="M213.2,391.1c0,0.2,0,6.1,0,6.2c0,0,0,0.1,0,0.1l-1.7,2.4c-0.1,0.1-0.2,0.1-0.3,0.2v-6.2
			c0.1,0,0.2-0.1,0.3-0.2L213.2,391.1C213.2,391.1,213.2,391.1,213.2,391.1z"/>
		<path class="st2" d="M187.2,380L187.2,380c0,0.1,0,0.1,0,0.2l1,2c0.1,0.2,0.1,0.4-0.1,0.5c0,0,0,0,0,0c-0.3,0.1-0.6,0.3-0.9,0.5
			c-0.3,0.2-0.7,0.4-1,0.6c-0.2,0.1-0.5,0.2-0.7,0.1l-3.9-0.7c-0.2,0-0.5,0-0.6,0.2l-1.7,2.4c0,0,0,0.1,0,0.1l0,0
			c0,0.1,0.1,0.2,0.3,0.3l3.5,1.1c0.2,0,0.4,0.2,0.4,0.5c-0.1,0.4-0.1,0.9,0,1.3c0,0.2-0.1,0.4-0.3,0.5l-3.7,1.2
			c-0.1,0-0.2,0.1-0.2,0.2c0,0.1,0,0.2,0.1,0.2l1.6,2.2c0.2,0.2,0.4,0.3,0.6,0.3l4.1-0.7c0.3,0,0.6,0.1,0.8,0.2
			c0.5,0.4,1.1,0.7,1.6,0.9c0.2,0.1,0.4,0.3,0.3,0.5l-1.1,2.2c-0.1,0.2,0.1,0.3,0.3,0.4l4.1,1c0.2,0.1,0.5,0,0.7-0.1l2-2.1
			c0.2-0.1,0.4-0.2,0.6-0.2c0.9,0,1.8,0,2.7,0c0.3,0,0.5,0.1,0.7,0.3l1.8,1.9c0.2,0.2,0.4,0.3,0.7,0.3l4.3-1c0.2,0,0.3-0.2,0.2-0.3
			c0,0,0-0.1,0-0.1l-1-2c-0.1-0.2-0.1-0.4,0.1-0.5c0,0,0,0,0,0c0.7-0.3,1.3-0.7,1.9-1.1c0.2-0.1,0.5-0.2,0.7-0.1l3.9,0.7
			c0.2,0,0.5,0,0.6-0.2l1.7-2.4c0,0,0-0.1,0-0.1l0,0V391l0,0c-0.1-0.1-0.2-0.2-0.3-0.2l-3.5-1.1c-0.2-0.1-0.4-0.3-0.4-0.5
			c0.1-0.4,0.1-0.9,0-1.3c0-0.2,0.1-0.4,0.3-0.5l3.7-1.2c0.1,0,0.2-0.1,0.2-0.2l0,0c0-0.1,0-0.2-0.1-0.2l-1.6-2.2
			c-0.1-0.2-0.4-0.3-0.6-0.3l-4.1,0.7c-0.3,0-0.5-0.1-0.8-0.2c-0.3-0.2-0.5-0.4-0.8-0.5c-0.3-0.1-0.6-0.3-0.8-0.4s-0.4-0.3-0.3-0.5
			l1.1-2.2c0,0,0-0.1,0-0.1c0-0.1-0.1-0.2-0.3-0.3l-4.1-1c-0.2-0.1-0.5,0-0.7,0.1l-2,2.1c-0.2,0.1-0.4,0.2-0.6,0.2
			c-0.9-0.1-1.8-0.1-2.7,0c-0.3,0-0.5-0.1-0.7-0.3l-1.7-1.8c-0.2-0.2-0.4-0.3-0.7-0.2l-4.3,1C187.3,379.8,187.2,379.9,187.2,380z
			 M202.7,386.4c0,0,0.1,0.1,0.1,0.1l0.1,0.1l0.1,0.2c0.1,0.1,0.1,0.1,0.2,0.2l0.1,0.1v0.1c0.6,0.9,0.5,2.1-0.2,3
			c-0.3,0.4-0.6,0.7-1,1c-0.2,0.2-0.4,0.3-0.6,0.4c-2.5,1.3-5.4,1.6-8.2,0.9c-0.8-0.2-1.7-0.5-2.4-0.9c-0.2-0.1-0.4-0.3-0.6-0.4
			c-0.5-0.4-1-0.9-1.3-1.4l0,0c0,0,0-0.1,0-0.1c0,0,0-0.1,0-0.1c0,0,0-0.1,0-0.1c-0.4-0.9-0.2-1.9,0.4-2.6c1.6-2.2,6-3.3,9.8-2.4
			C200.5,384.8,201.7,385.4,202.7,386.4L202.7,386.4z"/>
	</g>
</g>
<g id="freepik--Wrench--inject-33">
	<g id="freepik--wrench--inject-33">
		<path class="st4" d="M236.9,372.2c-0.9,0.5-2.4,0.5-2.9,1v2.1l9.7-1.4l3.7,2.1l-1.4,3l-9.8-0.6v2.1c0.2,0.2,0.4,0.3,0.7,0.4
			c4.7,2.4,10.2,2.4,14.9,0.1c2.1-1.2,3.1-2.8,3.1-4.3l0,0v-2.1l-0.6,0.1l-0.1-0.1l36.6-21.1c3.7,0.8,7.6,0.3,11-1.4
			c1.3-0.7,2.4-1.8,2.9-3.1v-2.1l-9.7,3.5l-3.7-2.1l1.4-2.9l9.8-1.4v-2.1c0,0-11.4-0.8-15.6,1.6c-1.1,0.6-1.9,1.4-2.6,2.4l-0.5-0.2
			v2.1l0,0c0,0.8,0.2,1.5,0.6,2.2l-36.6,21.1C244.1,370,240.3,370.5,236.9,372.2z"/>
		<polygon class="st4" points="290.8,353.3 290.8,351.2 254.2,372.4 254.2,374.4 		"/>
		<path class="st6" d="M284.5,347.6l-36.6,21.1c-3.7-0.8-7.6-0.3-11,1.4c-1.3,0.7-2.4,1.8-2.9,3.1l9.7-1.4l3.7,2.1l-1.4,2.9
			l-9.8,1.4c0.2,0.1,0.4,0.3,0.7,0.4c4.7,2.4,10.2,2.4,14.9,0.1c3-1.7,3.9-4.3,2.5-6.4l36.6-21.1c3.7,0.8,7.6,0.3,11-1.4
			c1.3-0.7,2.4-1.8,2.9-3.1l-9.7,1.4l-3.7-2.1l1.4-2.9l9.8-1.4l-0.7-0.4c-4.7-2.4-10.2-2.4-14.9-0.1
			C284,342.9,283.1,345.4,284.5,347.6z"/>
		<polygon class="st7" points="292.2,346.4 291.4,346 292.8,343.1 302.6,341.6 302.6,343.7 292.8,345.1 		"/>
		<polygon class="st7" points="246.5,375.6 247.2,374 243.6,371.8 233.9,373.2 233.9,375.3 243.6,373.9 		"/>
	</g>
</g>
<g id="freepik--Screwdriver--inject-33">
	<g id="freepik--screwdriver--inject-33">
		<path class="st2" d="M259.3,403l7.7,13.3l25.8-14.9c1.1-0.5,1.7-1.8,1.7-3.6c-0.2-3.8-2.2-7.3-5.4-9.4c-1.1-0.8-2.6-1-3.8-0.4l0,0
			L259.3,403z"/>
		<path class="st2" d="M257.7,405.7L257.7,405.7c-0.1,2-3,2.5-3,2.5l5.4,9.4c0,0,1.8-2.2,3.6-1.3l0,0c2.7,1.2,4.7-0.3,4.7-3.5
			c-0.2-3.8-2.2-7.3-5.4-9.4C260.3,401.8,258.1,402.8,257.7,405.7z"/>
		<path class="st9" d="M257.7,405.7L257.7,405.7c-0.1,2-3,2.5-3,2.5l5.4,9.4c0,0,1.8-2.2,3.6-1.3l0,0c2.7,1.2,4.7-0.3,4.7-3.5
			c-0.2-3.8-2.2-7.3-5.4-9.4C260.3,401.8,258.1,402.8,257.7,405.7z"/>
		<path class="st9" d="M256,407.8c-0.4,0.2-0.8,0.3-1.3,0.4l5.4,9.4c0.3-0.3,0.6-0.6,1-0.9C260.8,413.1,258.9,409.8,256,407.8z"/>
		<path class="st2" d="M249.1,408.8l0.4,0.8c-0.2,0.5-0.2,1.1-0.2,1.7c0.2,3.8,2.2,7.3,5.4,9.4c0.5,0.3,1,0.5,1.6,0.6l0.5,0.8l1.8-1
			l0,0c1.1-0.8,1.7-2.1,1.6-3.5c-0.2-3.8-2.2-7.3-5.4-9.4c-1.1-0.8-2.6-1-3.8-0.4l0,0L249.1,408.8z"/>
		<path class="st2" d="M258.4,418.6c-0.2-3.8-2.2-7.3-5.4-9.4c-3-1.7-5.4-0.3-5.4,3.1c0.2,3.8,2.2,7.3,5.4,9.4
			C255.9,423.4,258.4,422,258.4,418.6z"/>
		<path class="st3" d="M258.4,418.6c-0.2-3.8-2.2-7.3-5.4-9.4c-3-1.7-5.4-0.3-5.4,3.1c0.2,3.8,2.2,7.3,5.4,9.4
			C255.9,423.4,258.4,422,258.4,418.6z"/>
		<path class="st3" d="M250.8,420c0.4,0.4,0.9,0.8,1.3,1.2l1.3-3.6l-1.5-1.1L250.8,420z"/>
		<path class="st13" d="M290.1,394L290.1,394c0.4,0.7,0.1,1.6-0.5,2l-18.5,10.6c-0.7,0.4-1.6,0.1-2-0.5l0,0c-0.4-0.7-0.1-1.6,0.5-2
			l18.4-10.6C288.7,393,289.6,393.3,290.1,394C290.1,394,290.1,394,290.1,394z"/>
		<path class="st13" d="M286.7,390L286.7,390c0.4,0.2,0.5,0.8,0.3,1.2c-0.1,0.1-0.2,0.3-0.4,0.3l-18.8,10.9
			c-0.7,0.3-1.6,0.3-2.2-0.2l0,0c-0.4-0.3-0.5-0.8-0.3-1.2c0.1-0.1,0.2-0.3,0.4-0.3l18.8-10.9C285.3,389.5,286.1,389.5,286.7,390z"
			/>
		<path class="st13" d="M291.8,398.9L291.8,398.9c0-0.5-0.4-0.9-0.9-0.9c-0.2,0-0.3,0.1-0.5,0.2L271.7,409c-0.7,0.4-1,1.2-0.9,2l0,0
			c0,0.5,0.4,0.9,0.9,0.9c0.2,0,0.3-0.1,0.5-0.2l18.8-10.8C291.6,400.4,292,399.7,291.8,398.9z"/>
		<path class="st6" d="M205.4,440.5v3.6l9-2.9c0,0,1.8-3.3,3.6-4.4l34.4-19.8l1.1-3l-1.1-0.6l-34.3,19.8c-1.2,0.6-2.5,0.5-3.6-0.2
			L205.4,440.5z"/>
		<path class="st4" d="M206.5,441.1v3.6l9-2.9c0,0,1.8-3.3,3.6-4.4l34.3-19.8V414l-34.3,19.8c-1.1,0.6-2.5,0.5-3.6-0.2L206.5,441.1z
			"/>
		<polygon class="st7" points="206.5,444.7 205.4,444.1 205.4,440.5 206.5,441.1 		"/>
		<polygon class="st6" points="205.4,440.5 206.5,441.1 215.5,433.6 214.5,433 		"/>
	</g>
</g>
<g id="freepik--Character--inject-33">
	<g id="freepik--character--inject-33">
		<path class="st19" d="M357.6,210c5.8-6,16.4-19.6,16.4-19.6l6-20.7c0.1,0.1-3,0.1-4,0c-6.5,0.4-8.4,1-12.4,5.4
			c-3.2,3.5-15.4,20.1-19.6,25.7l-11.2-14.3c-2.7-4.1-2.2-8.6-3.6-11.9s-3.6-4.8-5.5-7.8s-2.2-5-3.7-3.4s0.2,5.7,0.5,6.6
			s2.5,3.8-1.3,2.3s-9.6-8.4-11.1-9.8s-2.3,0.8-2,2.5s-1.3,5.6-0.7,8.5c0.6,3,1.1,4.4,4,7.4c2.7,2.8,9.4,6.1,12,9.7
			s8.2,14.8,11.6,21.6c4.3,8.6,8,11.4,12.9,8.5S355.4,212.2,357.6,210z"/>
		<path class="st20" d="M378,169.5c-3.3-0.3-6.6,0.1-9.7,1.3c-3.5,1.6-5.9,5-9.3,9.6S347,196,347,196c5.1,3.5,8.8,8.7,10.4,14.6
			l20.9-23.1L378,169.5z"/>
		<path class="st21" d="M344,200.8c2.1,2,3.5,4.7,4,7.5c0,0,1.3-4.1-3.1-8.8L344,200.8z"/>
		<path class="st0" d="M398.2,169.4c2.3,0.6,8.4,1.3,12.4,2.5c3,0.9,6,4.5,6.6,7.2c2,8.7,0.2,14.2-0.5,21.8s-0.8,45.7-0.8,45.7
			c-4.2,8.3-36.3,9.9-51.8-1.4c0,0,1.9-50.7,1.9-58.6s4.4-17.4,16.5-18.1L398.2,169.4z"/>
		<path class="st7" d="M384.5,144.4c0,0.9,0.8,1.7,1.7,1.6s1.7-0.8,1.6-1.7c0-0.9-0.8-1.6-1.7-1.6
			C385.2,142.7,384.4,143.5,384.5,144.4z"/>
		<path class="st7" d="M386.1,138.8l3.5,1.9c0.5-1,0.2-2.2-0.8-2.8C387.9,137.4,386.7,137.8,386.1,138.8
			C386.2,138.7,386.1,138.7,386.1,138.8z"/>
		<path class="st21" d="M384.9,154.6l-3.9,1.5c0.3,1.1,1.4,1.7,2.5,1.3c0,0,0.1,0,0.1,0C384.7,157,385.3,155.8,384.9,154.6z"/>
		<path class="st7" d="M371.1,140.2l3.1-2.4c-0.6-0.9-1.8-1.1-2.7-0.5c0,0-0.1,0-0.1,0.1C370.6,138,370.5,139.3,371.1,140.2z"/>
		<path class="st7" d="M371.8,144.4c0,0.9,0.8,1.6,1.7,1.6c0.9,0,1.6-0.8,1.6-1.7c0-0.9-0.7-1.6-1.6-1.6
			C372.5,142.8,371.8,143.5,371.8,144.4C371.8,144.4,371.8,144.4,371.8,144.4z"/>
		<polygon class="st21" points="380.6,141.6 380,151.8 374.7,150 		"/>
		<path class="st2" d="M384.5,142.1l23.8-1.8c4.6,3.5,13.2,10.8,13.2,12.9l0,0v1.4l0,0c0,0.1,0,0.1,0,0.2c-0.8,1.6-3.9,2.6-8.6,2.7
			c-5.6,0.1-14.3-0.4-16.6-2.4c-3.4-3-11.7-11.6-11.7-11.6l1.2-0.1L384.5,142.1z"/>
		<path class="st13" d="M384.5,142.1l23.8-1.8c4.6,3.5,13.2,10.8,13.2,12.9l0,0v1.4l0,0c0,0.1,0,0.1,0,0.2c-0.8,1.6-3.9,2.6-8.6,2.7
			c-5.6,0.1-14.3-0.4-16.6-2.4c-3.4-3-11.7-11.6-11.7-11.6l1.2-0.1L384.5,142.1z"/>
		<path class="st2" d="M408.3,141.7c4.8,3.6,14,11.5,13.1,13.1s-3.9,2.6-8.6,2.7c-5.6,0.1-14.3-0.4-16.6-2.4
			c-3.4-3-11.7-11.6-11.7-11.6L408.3,141.7z"/>
		<path class="st17" d="M408.3,141.7c4.8,3.6,14,11.5,13.1,13.1s-3.9,2.6-8.6,2.7c-5.6,0.1-14.3-0.4-16.6-2.4
			c-3.4-3-11.7-11.6-11.7-11.6L408.3,141.7z"/>
		<path class="st2" d="M408.3,141.7c0.1,0.7-2.4,2.1-2.4,2.1l0.7-4.2L408.3,141.7z"/>
		<path class="st5" d="M408.3,141.7c0.1,0.7-2.4,2.1-2.4,2.1l0.7-4.2L408.3,141.7z"/>
		<path class="st7" d="M402,127.8c0,0,3.7,0.5,5.1,3.3c1.2,2.4,0.8,8.3-0.8,14.8c-0.9,4.1-2.2,8.2-4,12c-0.6,1.1-1.6,1.9-2.8,2.3
			l0.2-7.6l0.3-5.3c0,0-3.4-4.6-3.8-8.5c-0.5-4.9,0.5-6.9,0.5-6.9L402,127.8z"/>
		<path class="st7" d="M396,135.1c0,7.8-6.4,14.2-14.3,14.2c-7.9,0-13.7-6.5-13.7-14.3s6-14.1,13.8-14.1
			C389.7,120.9,396,127.3,396,135.1z"/>
		<path class="st19" d="M399.7,146.4c1.3,1.1,2.3-1.8,3.4-2.9s4.6-2.6,6.3,1.1s-1.5,9-4.2,10.1c-1.7,0.7-3.6,0.1-4.6-1.4v16.9
			c-4,7.3-11.2,7.1-15,6.6s-4.6-4.4-1.9-7.6V164c-2.1,0.3-4.3,0.4-6.4,0.3c-3.5-0.6-5.3-3.2-6.4-7c-1.7-6.1-2.4-16.3,0-28.1
			c3.9-3,17.5-2.5,25.7,2.7C396.1,142.3,398.4,145.3,399.7,146.4z"/>
		<path class="st7" d="M372.5,124c1.6-1.7,3.6-3.1,5.8-4c1.8-0.8,3.6-1.2,5.5-1.2c2.5,0,5-0.4,7.4-0.3c4.3,0.1,9.5,1.9,11.4,6.1
			c0.9,1.9,1,3.9-0.7,5.3c-1.6,1.1-3.4,1.8-5.2,2c-3.2,0.6-6.4,1.2-9.6,1.7c-3.4,0.6-6.9,0.5-10.4-0.1c-1.6-0.4-3.1-1-4.5-1.9
			c-0.7-0.5-1.4-1-1.9-1.6c-0.2-0.2-0.8-0.7-0.9-1s0.3-1,0.5-1.3C370.6,126.3,371.5,125.1,372.5,124z"/>
		<path class="st21" d="M383.8,164c0,0,7.8-1.5,10.5-3c1.6-0.8,2.9-2.1,3.8-3.7c-0.4,1.6-1.1,3.1-2.1,4.4c-2,2.5-12.2,4.4-12.2,4.4
			L383.8,164z"/>
		<path class="st7" d="M385.9,143.8c0,0.9,0.8,1.6,1.7,1.6c0.9,0,1.6-0.8,1.6-1.7c0-0.9-0.8-1.6-1.6-1.6
			C386.6,142.1,385.9,142.8,385.9,143.8C385.9,143.8,385.9,143.8,385.9,143.8z"/>
		<path class="st21" d="M382.1,156.4c0,0.9,0.8,1.6,1.7,1.6c0.9,0,1.6-0.8,1.6-1.7c0-0.9-0.8-1.6-1.6-1.6
			C382.9,154.7,382.1,155.5,382.1,156.4C382.1,156.4,382.1,156.4,382.1,156.4z"/>
		<path class="st7" d="M388.1,137.4l3.2,2.5c0.7-0.9,0.5-2.1-0.3-2.9C390.1,136.3,388.9,136.5,388.1,137.4
			C388.2,137.4,388.2,137.4,388.1,137.4z"/>
		<path class="st7" d="M371.3,139.9l3.1-2.7c-0.7-0.9-2-1-2.8-0.3c0,0,0,0,0,0C370.7,137.7,370.6,139,371.3,139.9z"/>
		<path class="st7" d="M372.4,143.3c0,0.9,0.8,1.6,1.7,1.6c0.9,0,1.6-0.8,1.6-1.7c0-0.9-0.8-1.6-1.6-1.6
			C373.1,141.6,372.3,142.3,372.4,143.3C372.4,143.3,372.4,143.3,372.4,143.3z"/>
		<polygon class="st21" points="381.4,140.4 380.8,152.1 375.2,150.7 		"/>
		<path class="st2" d="M409.3,135.9c0,2-0.4,4-1,5.9c-0.4-0.6-0.9-1.2-1.5-1.6c-3.2-2.7-6.8-4.7-10.7-6.1l0,0
			c-9-3.5-19.5-4-27.9-1.1c0.1-1.7,0.5-3.4,1.1-5c3.1-8,9.2-12.2,19.1-11.1C400.1,118,409.6,124.4,409.3,135.9z"/>
		<path class="st7" d="M388.1,128.8c-2.7-0.9-9.5-1.4-11.5-0.8c-0.9-0.8-1.7-1.7-2.4-2.7c-0.9-1.5-0.6-3.4,0.3-3.8s0.9,0.8,4.4,2.5
			c-0.4-1.1-0.5-2.3-0.3-3.4c0.6-1.4,1.7,1.1,4.3,2.7S387.8,125.8,388.1,128.8z"/>
		<path class="st4" d="M423.2,162.7c2.2-1.8,15.8,14.2,10.1,18.9s-12.6-7-11.7-12.7S423.2,162.7,423.2,162.7z"/>
		<path class="st19" d="M434.1,153.7c-3.4-4.2-12.4-14.2-14.4-16s-3.2-1.6-4.4-2c-1.4-0.5-2.7-1.3-3.7-2.3c-0.6-0.7-1.2-1.4-1.8-2.1
			c-1.9-2.4-4.2-4.5-6.8-6.3c-2.7-1.8-5.6-3.2-8.4-5c-1.6-1.1-3.4-2.8-1.6-4.6c0.6-0.5,1.3-0.9,2-1.1c4.6-1.2,8.8,0.2,13.5,1.2
			c2,0.4,4,1,5.9,1.7c0.9,0.3,1.8,0.8,2.6,1.4c1.6,1.3,3,2.8,4.4,4.4c3.2,3.9,5.9,5.1,9,7.8c3.7,3.2,20.1,14.8,23.6,18.3
			c2.9,2.9,2,5.2,1.6,6.1c-2,4.7-4.5,6.5-7.4,9.4c-1,1-1.9,2-2.9,3c-3.7,3.8-7.5,7.4-11.4,11c-4.2,3.9-5.9,5.7-9.6,9.5
			c-2.3,2.4-4.2,5.2-5.6,8.3c-6.7,1.5-11.3-12.7-8.9-20.9c0.7-2.1,2.1-3.9,3.9-5.1C420.7,164.9,434.1,153.7,434.1,153.7z"/>
		<path class="st21" d="M434.1,153.7c2.3,2.6,5.2,4.4,8.5,5.3c0,0-4.3,1.3-10.4-3.8L434.1,153.7z"/>
		<path class="st20" d="M410.5,171.9c1.5-1.2,5.2-3.8,12.6-9.1c0,0-1,2.6,1.2,8.7s6.4,9.9,8.9,10.2c0,0-4.1,3.7-7.9,7.7
			s-6.9,7-8.9,11.6c0,0-5.8-1.1-7.6-10.7C407.7,183.6,407.8,175.6,410.5,171.9z"/>
		<path class="st7" d="M397.6,415.8c-0.4,0.4-0.1,3.1,0.3,3.8s3,2.7,7.6,2.8c4.5,0.1,8.4-0.7,10.9-2.5s3.7-3.7,3.8-6.2s-0.3-5,0.8-7
			c1-1.9,2.4-3.7,2.7-4.7c0.4-1.8,0.4-3.6,0-5.4L397.6,415.8z"/>
		<path class="st2" d="M408.4,394.4c0,1-0.1,1.9-0.4,2.8c-0.6,2-1.4,3.9-2.4,5.7c-0.5,0.9-1.1,1.8-1.7,2.7c-1.3,1.7-2.9,3.1-4.2,4.7
			c-1.4,1.5-2.3,3.5-2.5,5.6c0,3.5,3.8,4.5,6.8,4.8c3.2,0.4,6.4,0,9.4-1c3.3-1,5.6-3.9,6-7.3c0.1-1,0-2,0.1-2.9
			c0.3-2.2,1.1-4.4,2.4-6.2c0.8-1.1,1.4-2.2,1.9-3.4c0.8-2.2-0.1-4.6-0.8-6.7c-0.6-1.8-1.1-4-1.7-3.8c0,0.4,0,1.2,0,1.2
			c-0.2,0.4-0.7,0.7-0.8,1.2c-0.1,0.5-0.3,1-0.5,1.5c-0.3,0.7-0.8,1.4-1.5,1.8c-0.1-1.3-0.2-2.6-0.4-3.9c0-0.4-0.1-0.8-0.4-1.1
			c-0.3-0.3-0.7-0.4-1.1-0.4c-2.5-0.5-5-0.5-7.5-0.2c-0.4,0-0.8,0.2-1,0.5c-0.1,0.3-0.2,0.6-0.1,0.9
			C408.3,391.9,408.4,393.1,408.4,394.4z"/>
		<path class="st13" d="M408.4,394.4c0,1-0.1,1.9-0.4,2.8c-0.6,2-1.4,3.9-2.4,5.7c-0.5,0.9-1.1,1.8-1.7,2.7
			c-1.3,1.7-2.9,3.1-4.2,4.7c-1.4,1.5-2.3,3.5-2.5,5.6c0,3.5,3.8,4.5,6.8,4.8c3.2,0.4,6.4,0,9.4-1c3.3-1,5.6-3.9,6-7.3
			c0.1-1,0-2,0.1-2.9c0.3-2.2,1.1-4.4,2.4-6.2c0.8-1.1,1.4-2.2,1.9-3.4c0.8-2.2-0.1-4.6-0.8-6.7c-0.6-1.8-1.1-4-1.7-3.8
			c0,0.4,0,1.2,0,1.2c-0.2,0.4-0.7,0.7-0.8,1.2c-0.1,0.5-0.3,1-0.5,1.5c-0.3,0.7-0.8,1.4-1.5,1.8c-0.1-1.3-0.2-2.6-0.4-3.9
			c0-0.4-0.1-0.8-0.4-1.1c-0.3-0.3-0.7-0.4-1.1-0.4c-2.5-0.5-5-0.5-7.5-0.2c-0.4,0-0.8,0.2-1,0.5c-0.1,0.3-0.2,0.6-0.1,0.9
			C408.3,391.9,408.4,393.1,408.4,394.4z"/>
		<path class="st6" d="M405.2,403.7c1.2-1,4.1-1.2,5.7-1.1c1.6,0.1,3.2,0.5,4.6,1.3c0.4,0.3,1,0.2,1.3-0.2l0,0
			c0.4-0.4,0.3-1-0.1-1.4c0,0,0,0-0.1-0.1c-1.5-1-3.3-1.6-5.2-1.6c-3.9-0.1-5,0.7-5,0.7S404.7,402.5,405.2,403.7z"/>
		<path class="st6" d="M402.4,407.4c1.6-1,4.8-1.1,6.4-1c1.6,0.1,3.1,0.6,4.5,1.4c0.4,0.3,1,0.2,1.3-0.2l0,0c0.4-0.4,0.3-1-0.1-1.4
			c0,0-0.1,0-0.1-0.1c-1.6-1.1-3.4-1.7-5.3-1.8c-3.9-0.1-4.9,0.8-4.9,0.8C403.3,405.6,402.6,406.4,402.4,407.4z"/>
		<path class="st6" d="M412.8,396.8c-1.7-0.2-3.3,0-4.9,0.7c-0.7,0.4-1.1,1.5-0.6,1.8c1.3-0.6,2.8-0.9,4.3-0.8
			c1.5,0.1,2.9,0.4,4.3,0.9c0.4,0.1,0.7,0.3,1.1,0.5c0.5,0.2,1,0,1.2-0.4c0,0,0,0,0,0l0,0c0.2-0.4,0-0.9-0.4-1.1
			C416.4,397.4,414.6,396.9,412.8,396.8z"/>
		<path class="st7" d="M343.7,401.8c-0.3,1-0.2,2.1,0.3,3.1c0.5,0.9,5.4,3.3,11.7,2.5c4.7-0.6,9.2-2.4,13-5.3c2.4-1.7,4.9-2.2,8-2.5
			s5.5-1.5,6.1-3s-0.3-4-0.3-4L343.7,401.8z"/>
		<path class="st2" d="M368.5,381.6c-0.6-0.1-1.1-0.3-1.7-0.5c-0.3-0.1-0.6-0.1-1-0.1c-0.4,0.2-0.6,0.7-0.6,1.1
			c-0.1,1-0.3,1.9-0.5,2.8c-0.4,0.8-1,1.4-1.7,2c-1.5,1.4-3.2,2.6-4.9,3.6c-2,1.2-4,2.2-6.1,3.3s-5,1.9-6.7,3.1
			c-2.4,1.8-2.5,6.1,0.4,7.6c2.5,1.3,9.1,2.5,15.8,0.2c3.6-1.2,7.5-5.4,12.4-6.1c3.1-0.4,7.2-0.9,9-3.3c0.7-1.1,0.1-4.1-0.5-7.7
			c-0.5-3.2-0.9-8.2-2-7.9c0,0-0.4,1.2-0.5,1.3c-0.3,0.4-0.5,0.8-0.9,1.1c-0.3,0.3-0.6,0.6-0.9,0.8c-0.3,0.4-0.7,0.8-1.1,1.1
			c-0.5,0.4-1.1,0.7-1.8,0.7c-0.3,0-0.6,0-0.9-0.2c-0.5-0.3-0.6-1-1-1.4c-0.5-0.5-1.1-0.9-1.7-1.1c-0.9-0.3-1.8-0.5-2.8-0.6
			L368.5,381.6z"/>
		<path class="st13" d="M368.5,381.6c-0.6-0.1-1.1-0.3-1.7-0.5c-0.3-0.1-0.6-0.1-1-0.1c-0.4,0.2-0.6,0.7-0.6,1.1
			c-0.1,1-0.3,1.9-0.5,2.8c-0.4,0.8-1,1.4-1.7,2c-1.5,1.4-3.2,2.6-4.9,3.6c-2,1.2-4,2.2-6.1,3.3s-5,1.9-6.7,3.1
			c-2.4,1.8-2.5,6.1,0.4,7.6c2.5,1.3,9.1,2.5,15.8,0.2c3.6-1.2,7.5-5.4,12.4-6.1c3.1-0.4,7.2-0.9,9-3.3c0.7-1.1,0.1-4.1-0.5-7.7
			c-0.5-3.2-0.9-8.2-2-7.9c0,0-0.4,1.2-0.5,1.3c-0.3,0.4-0.5,0.8-0.9,1.1c-0.3,0.3-0.6,0.6-0.9,0.8c-0.3,0.4-0.7,0.8-1.1,1.1
			c-0.5,0.4-1.1,0.7-1.8,0.7c-0.3,0-0.6,0-0.9-0.2c-0.5-0.3-0.6-1-1-1.4c-0.5-0.5-1.1-0.9-1.7-1.1c-0.9-0.3-1.8-0.5-2.8-0.6
			L368.5,381.6z"/>
		<path class="st6" d="M360.8,388.7c0.4-0.9,1.2-1.5,2.2-1.7c1.4-0.3,3.9,0.6,5.5,1.8c0.5,0.4,0.6,1.1,0.3,1.6
			c-0.1,0.1-0.2,0.2-0.3,0.3l0,0c-0.4,0.3-0.9,0.2-1.3-0.1C365.4,389.2,363.1,388.5,360.8,388.7z"/>
		<path class="st6" d="M356.6,391.4c0.6-0.9,1.6-1.5,2.6-1.5c0,0,3.7-0.1,6.1,1.9c0.5,0.4,0.6,1.1,0.2,1.6c-0.1,0.1-0.2,0.2-0.3,0.3
			l0,0c-0.4,0.3-0.9,0.2-1.3-0.1C362,391.7,359.3,390.9,356.6,391.4z"/>
		<path class="st6" d="M351.9,393.8c0.7-0.8,1.7-1.4,2.7-1.4c2.1,0,4.1,0.7,5.8,1.9c0.5,0.4,0.6,1.1,0.2,1.6
			c-0.1,0.1-0.2,0.2-0.3,0.3l0,0c-0.4,0.2-0.9,0.2-1.3-0.1C357.2,394.2,354.6,393.4,351.9,393.8z"/>
		<path class="st6" d="M362.2,243.6c-0.2,14.6,0.8,63.9,1.1,71.2c0.3,6.4,1.4,69.8,1.4,69.8c7.4,2.3,17.5-0.1,17.5-0.1
			s5.1-39.5,5.5-46.5c0.2-6.4-0.1-12.9-1-19.3l3.8-40.3c0,0,4.1,30.2,6.1,43.4c2.3,15.1,10.8,73.2,10.8,73.2
			c6.8,2.6,16.3-1.1,16.3-1.1s-0.5-45.1-1.2-60.5c-0.5-10.6-3.4-15.7-3.8-18.7c0,0-1.5-55-1.6-68.9c-0.1-9.3-1.1-19.6-1.1-19.6
			s-10.2,0.8-11.1-2.1s0-31.5,0.4-37.1c0,0-21.4-4.8-40-1.2C365.2,185.7,362.4,228.9,362.2,243.6z"/>
		<path class="st4" d="M405.3,232c-0.1,9.7,1.6,15.7,4.2,17.8s7.7,1.9,7.7,1.9v-1.4c0,0-4.8,0.7-7-1.5S406.1,243.3,405.3,232z"/>
		<path class="st4" d="M372.3,196c0,0,11.1,0,21.7,0.7c0,0,0.1,8.1-0.8,11.1s-7.9,7.4-10.8,7.4c-2.5,0-9.5-5-10.1-7.6
			S372.3,196,372.3,196z"/>
		<path class="st4" d="M390.4,278.4l-1-6.2c-3-0.5-10.7-5.2-15.3-9.5c3.2,4.9,7.6,9,12.8,11.8l0.3,39.8L390.4,278.4z"/>
		<path class="st4" d="M410.5,171.9c-2-0.5-3.1-0.1-4.1,2.4s-2.2,10.8-2.6,18.4c0,0-4.6,0.8-7.8-0.5c0,0,0.4-10.1,1.5-15.3
			c0.3-1.5,0.8-3,1.5-4.4c0.9-1.9,3-2.9,5-2.5l7.3,1.3L410.5,171.9z"/>
		<path class="st2" d="M401.8,189.4c0,1-0.8,1.8-1.8,1.8s-1.8-0.8-1.8-1.8c0-1,0.8-1.8,1.8-1.8S401.8,188.3,401.8,189.4L401.8,189.4
			z"/>
		<path class="st4" d="M383.8,169.2c-3.3,0.1-6.2,2.1-7.4,5.1c-1.5,3.8-1.5,12.4-1.6,16.6c-2.3,0.9-4.9,0.9-7.2,0
			c0,0,0-13.4,2.3-17.9s6.7-4.7,9-4.9c1.6-0.1,3.3-0.1,4.9,0L383.8,169.2z"/>
		<path class="st2" d="M373.1,187.9c0,1-0.8,1.8-1.8,1.8s-1.8-0.8-1.8-1.8c0-1,0.8-1.8,1.8-1.8S373.1,186.9,373.1,187.9L373.1,187.9
			z"/>
	</g>
</g>
<g id="freepik--error-500--inject-33">
	<g id="freepik--speech-bubble--inject-33">
		<g id="freepik--Text--inject-33">
			<path class="st2" d="M220.6,123.1c0.3,0.4,0.6,0.8,0.9,1.2c0.3,0.4,0.7,0.8,1.2,1c0.5,0.3,1.1,0.4,1.7,0.3
				c0.8-0.1,1.6-0.4,2.4-0.8c0.9-0.5,1.6-1.1,2.3-1.9c0.8-0.8,1.4-1.7,2-2.6c0.6-1,1.1-2.1,1.4-3.2c0.3-1.2,0.5-2.5,0.5-3.7
				c0-2-0.5-3.4-1.6-4.1s-2.5-0.5-4.2,0.5c-0.6,0.3-1.1,0.8-1.6,1.3c-0.5,0.5-0.9,1-1.4,1.5l-1.1,1.4c-0.2,0.3-0.5,0.6-0.9,0.9
				l-9.1,5.3c-0.3,0.3-0.8,0.3-1.2,0c-0.3-0.4-0.5-1-0.4-1.5l1.8-33.3c0-0.7,0.2-1.4,0.5-2c0.2-0.6,0.6-1.1,1.1-1.4l25.1-14.5
				c0.3-0.3,0.8-0.2,1.1,0.1c0.3,0.4,0.5,0.9,0.5,1.4v9.6c0,0.7-0.2,1.4-0.5,2c-0.2,0.6-0.6,1-1.1,1.4l-17.1,9.8l-0.4,8.3
				c0.7-1,1.5-2,2.4-2.9c0.9-0.9,1.9-1.7,3-2.3c1.9-1.2,4.1-1.9,6.3-2.2c1.8-0.2,3.5,0.3,5,1.2c1.6,1.2,2.8,2.9,3.4,4.8
				c0.9,2.7,1.3,5.6,1.2,8.4c0,3.5-0.4,7-1.3,10.3c-0.8,3.2-2.1,6.2-3.6,9.1c-1.5,2.7-3.3,5.2-5.4,7.4c-2,2.1-4.2,3.9-6.7,5.3
				c-2.2,1.4-4.6,2.2-7.1,2.5c-1.9,0.2-3.7-0.2-5.3-1.2c-1.5-1-2.7-2.5-3.4-4.2c-0.8-2.1-1.2-4.3-1.2-6.5c0-0.6,0.1-1.1,0.4-1.6
				c0.2-0.5,0.5-0.8,0.9-1.1l7.5-4.3c0.6-0.4,1.1-0.5,1.4-0.3C220.1,122.7,220.4,122.9,220.6,123.1z"/>
			<path class="st2" d="M266.2,51.4c2.9-1.7,5.5-2.5,7.6-2.4c2,0,3.9,0.9,5.3,2.3c1.5,1.7,2.6,3.8,3.1,6c0.7,2.8,1.1,5.7,1.2,8.7
				c0.1,2.6,0.1,5.2,0.1,8.1s0,5.5-0.1,8c-0.1,3.4-0.5,6.7-1.2,10.1c-0.7,3.3-1.7,6.5-3.1,9.6c-1.4,3-3.1,5.8-5.3,8.4
				c-2.1,2.6-4.7,4.7-7.6,6.4c-2.9,1.7-5.5,2.5-7.6,2.4c-2,0-3.9-0.9-5.2-2.3c-1.5-1.7-2.6-3.8-3.1-6c-0.7-2.8-1.1-5.7-1.2-8.7
				c-0.1-2.4-0.1-5-0.1-7.8s0-5.6,0.1-8.2c0.1-3.4,0.5-6.7,1.2-10c0.7-3.3,1.7-6.5,3.1-9.6c1.4-3,3.1-5.8,5.3-8.4
				C260.8,55.2,263.4,53.1,266.2,51.4z M272.5,87.9c0.2-5.2,0.2-10.3,0-15.2c-0.1-1.3-0.2-2.6-0.4-3.9c-0.1-1-0.5-1.9-1-2.7
				c-0.4-0.6-1.1-1-1.9-1.1c-1,0-2.1,0.3-2.9,0.9c-1.1,0.6-2.1,1.5-2.9,2.5c-0.8,1-1.4,2.1-1.9,3.3c-0.5,1.3-0.8,2.6-1.1,3.9
				c-0.2,1.5-0.3,2.9-0.4,4.4c-0.2,5.1-0.2,10.2,0,15.2c0,1.3,0.2,2.6,0.4,3.9c0.1,1,0.5,1.9,1.1,2.7c0.4,0.6,1.1,1,1.9,1.1
				c1,0,2.1-0.3,2.9-0.9c1.1-0.6,2.1-1.5,2.9-2.5c0.8-1,1.4-2.1,1.9-3.3c0.5-1.3,0.9-2.6,1-3.9C272.4,90.8,272.5,89.4,272.5,87.9z"
				/>
			<path class="st2" d="M306.6,28.1c2.9-1.7,5.5-2.5,7.6-2.4c2,0.1,3.9,0.9,5.3,2.3c1.5,1.7,2.6,3.8,3.1,6c0.7,2.8,1.1,5.7,1.2,8.7
				c0.1,2.6,0.1,5.2,0.1,8.1c0,2.8,0,5.5-0.1,8c-0.1,3.4-0.5,6.7-1.2,10c-0.7,3.3-1.7,6.5-3.1,9.6c-1.4,3-3.1,5.8-5.3,8.4
				c-2.1,2.6-4.7,4.7-7.6,6.4c-2.9,1.7-5.5,2.5-7.6,2.4c-2-0.1-3.9-0.9-5.3-2.3c-1.5-1.7-2.6-3.8-3.1-6c-0.7-2.8-1.1-5.7-1.2-8.7
				c-0.1-2.4-0.1-5.1-0.1-7.9c0-2.8,0-5.6,0.1-8.2c0.1-3.4,0.5-6.7,1.2-10c0.7-3.3,1.7-6.5,3.1-9.6c1.4-3,3.1-5.8,5.3-8.4
				C301.2,31.8,303.7,29.7,306.6,28.1z M312.9,64.6c0.2-5.2,0.2-10.3,0-15.2c-0.1-1.3-0.2-2.6-0.4-3.9c-0.1-1-0.5-1.9-1-2.7
				c-0.4-0.6-1.1-1.1-1.9-1.1c-1,0-2.1,0.3-2.9,0.9c-1.1,0.6-2.1,1.5-3,2.5c-0.8,1-1.4,2.1-1.9,3.3c-0.5,1.3-0.8,2.6-1,3.9
				c-0.2,1.5-0.4,2.9-0.4,4.4c-0.2,5.1-0.2,10.2,0,15.2c0,1.3,0.1,2.6,0.4,3.9c0.1,1,0.5,1.9,1.1,2.7c0.4,0.6,1.1,1,1.9,1.1
				c1,0,2.1-0.3,2.9-0.9c1.1-0.6,2.1-1.5,2.9-2.5c0.8-1,1.4-2.1,1.9-3.3c0.5-1.2,0.8-2.5,1.1-3.8C312.7,67.5,312.9,66.1,312.9,64.6z
				"/>
			<path class="st6" d="M243.3,179.3c0.1-0.1,0.3-0.1,0.4,0c0.1,0.1,0.2,0.3,0.2,0.5v3.4c0,0.2-0.1,0.5-0.2,0.7
				c-0.1,0.2-0.2,0.4-0.4,0.5l-9.9,5.7c-0.1,0.1-0.3,0.1-0.4,0c-0.1-0.1-0.2-0.3-0.2-0.5v-20.7c0-0.2,0.1-0.5,0.2-0.7
				c0.1-0.2,0.2-0.4,0.4-0.5l9.7-5.6c0.1-0.1,0.3-0.1,0.4,0c0.1,0.1,0.2,0.3,0.2,0.5v3.4c0,0.2-0.1,0.5-0.2,0.7
				c-0.1,0.2-0.2,0.4-0.4,0.5l-6.4,3.7v3.5l5.9-3.4c0.1-0.1,0.3-0.1,0.4,0c0.1,0.1,0.2,0.3,0.2,0.5v3.4c0,0.2-0.1,0.5-0.2,0.7
				c-0.1,0.2-0.2,0.4-0.4,0.5l-5.9,3.4v3.6L243.3,179.3z"/>
			<path class="st6" d="M252.4,156.7c0.8-0.5,1.6-0.8,2.5-1c0.6-0.1,1.3,0,1.8,0.3c0.6,0.4,1,1,1.2,1.6c0.3,1,0.4,2,0.4,3
				c0,1.5-0.2,3-0.6,4.4c-0.4,1.3-1,2.4-1.8,3.5l2.6,6.1c0,0.1,0.1,0.2,0.1,0.3c0,0.2-0.1,0.4-0.1,0.6c-0.1,0.2-0.2,0.3-0.3,0.4
				l-2.8,1.6c-0.3,0.2-0.5,0.2-0.6,0.1c-0.1-0.1-0.2-0.3-0.3-0.4l-2.3-5.5l-1.9,1.1v6.9c0,0.2-0.1,0.5-0.2,0.7
				c-0.1,0.2-0.2,0.4-0.4,0.5l-2.7,1.6c-0.1,0.1-0.3,0.1-0.4,0c-0.1-0.1-0.2-0.3-0.2-0.5v-20.7c0-0.2,0.1-0.5,0.2-0.7
				c0.1-0.2,0.2-0.4,0.4-0.5L252.4,156.7z M250.1,167.8l2.4-1.4c0.6-0.3,1.1-0.8,1.4-1.4c0.4-0.7,0.6-1.4,0.6-2.2
				c0-0.9-0.2-1.4-0.6-1.5c-0.5-0.1-1,0-1.4,0.3l-2.4,1.4V167.8z"/>
			<path class="st6" d="M266.9,148.4c0.8-0.5,1.6-0.8,2.5-1c0.6-0.1,1.3,0,1.8,0.3c0.6,0.4,1,1,1.2,1.6c0.3,1,0.4,2,0.4,3
				c0,1.5-0.2,3-0.6,4.4c-0.4,1.3-1,2.4-1.8,3.5l2.6,6.1c0,0.1,0.1,0.2,0.1,0.3c0,0.2,0,0.4-0.1,0.6c-0.1,0.2-0.2,0.3-0.3,0.4
				l-2.8,1.6c-0.3,0.2-0.5,0.2-0.6,0.1c-0.1-0.1-0.2-0.3-0.3-0.4l-2.3-5.5l-1.9,1.1v6.9c0,0.2-0.1,0.5-0.2,0.7
				c-0.1,0.2-0.2,0.4-0.4,0.5l-2.7,1.6c-0.1,0.1-0.3,0.1-0.4,0c-0.1-0.1-0.2-0.3-0.2-0.5v-20.7c0-0.2,0.1-0.5,0.2-0.7
				c0.1-0.2,0.2-0.4,0.4-0.5L266.9,148.4z M264.5,159.5l2.4-1.4c0.6-0.3,1.1-0.8,1.4-1.4c0.4-0.7,0.6-1.4,0.6-2.2
				c0-0.9-0.2-1.4-0.6-1.5c-0.5-0.1-1,0-1.4,0.3l-2.4,1.4V159.5z"/>
			<path class="st6" d="M274.7,152.2c0-1.2,0.2-2.5,0.5-3.7c0.3-1.2,0.7-2.4,1.3-3.5c0.5-1.1,1.2-2.1,2-3c0.8-0.9,1.7-1.7,2.7-2.3
				c0.8-0.5,1.7-0.8,2.7-0.9c0.7,0,1.4,0.2,2,0.7c0.6,0.5,1,1.2,1.3,2c0.3,1,0.5,2,0.5,3.1c0,0.9,0,1.9,0,2.9s0,1.9,0,2.9
				c0,1.2-0.2,2.5-0.5,3.7c-0.3,1.2-0.7,2.4-1.3,3.5c-0.5,1.1-1.2,2.1-2,3c-0.8,0.9-1.7,1.7-2.7,2.2c-0.8,0.5-1.7,0.8-2.7,0.9
				c-0.7,0-1.4-0.2-2-0.7c-0.6-0.5-1-1.2-1.3-2c-0.3-1-0.5-2-0.5-3.1c0-0.9,0-1.8,0-2.8S274.6,153.2,274.7,152.2z M283.8,152.5
				c0-0.4,0-0.8,0-1.3s0-1,0-1.4s0-1,0-1.4s0-0.9,0-1.2c0-0.5-0.1-0.9-0.2-1.4c-0.1-0.3-0.3-0.6-0.5-0.9c-0.2-0.2-0.5-0.3-0.8-0.3
				c-0.4,0-0.8,0.1-1.1,0.4c-0.4,0.2-0.8,0.6-1.1,0.9c-0.3,0.4-0.6,0.8-0.8,1.2c-0.2,0.5-0.4,1-0.5,1.5c-0.1,0.5-0.2,1.1-0.2,1.6
				c0,0.4,0,0.8,0,1.3s0,0.9,0,1.4s0,1,0,1.4s0,0.9,0,1.2c0,0.8,0.2,1.6,0.7,2.2c0.4,0.5,1.1,0.4,1.9-0.1c0.9-0.5,1.5-1.3,1.9-2.2
				C283.5,154.6,283.7,153.6,283.8,152.5L283.8,152.5z"/>
			<path class="st6" d="M296.3,131.4c0.8-0.5,1.6-0.8,2.5-1c0.6-0.1,1.3,0,1.8,0.3c0.6,0.4,1,1,1.2,1.6c0.3,1,0.4,2,0.4,3
				c0,1.5-0.2,3-0.6,4.4c-0.4,1.3-1,2.4-1.8,3.5l2.6,6.1c0,0.1,0.1,0.2,0.1,0.3c0,0.2-0.1,0.4-0.1,0.6c-0.1,0.2-0.2,0.3-0.3,0.4
				l-2.9,1.7c-0.3,0.2-0.5,0.2-0.6,0.1c-0.1-0.1-0.2-0.3-0.3-0.4l-2.3-5.5l-1.9,1.1v6.9c0,0.2-0.1,0.5-0.2,0.7
				c-0.1,0.2-0.2,0.4-0.4,0.5l-2.7,1.6c-0.1,0.1-0.3,0.1-0.4,0c-0.1-0.1-0.2-0.3-0.2-0.5v-20.7c0-0.2,0.1-0.5,0.2-0.7
				c0.1-0.2,0.2-0.4,0.4-0.5L296.3,131.4z M293.9,142.5l2.4-1.4c0.6-0.3,1.1-0.8,1.5-1.4c0.4-0.7,0.6-1.4,0.6-2.2
				c0-0.9-0.2-1.4-0.6-1.5c-0.5-0.1-1,0-1.5,0.3l-2.4,1.4V142.5z"/>
			<path class="st6" d="M210.6,172c-0.1,0.1-0.2,0.1-0.2,0c-0.1-0.1-0.1-0.2-0.1-0.3v-12c0-0.1,0-0.3,0.1-0.4c0-0.1,0.1-0.2,0.2-0.3
				l1.6-0.9c0.1-0.1,0.2-0.1,0.2,0c0.1,0.1,0.1,0.2,0.1,0.3v12c0,0.1,0,0.3-0.1,0.4c0,0.1-0.1,0.2-0.2,0.3L210.6,172z"/>
			<path class="st6" d="M220,166.6c-0.1,0.1-0.2,0.1-0.3,0c-0.1,0-0.1-0.1-0.2-0.2l-2.8-4.7v6.3c0,0.1,0,0.3-0.1,0.4
				c0,0.1-0.1,0.2-0.2,0.3l-1.6,0.9c-0.1,0.1-0.2,0.1-0.2,0c-0.1-0.1-0.1-0.2-0.1-0.3v-12c0-0.1,0-0.3,0.1-0.4
				c0-0.1,0.1-0.2,0.2-0.3l1.2-0.7c0.1-0.1,0.2-0.1,0.3,0c0.1,0,0.1,0.1,0.2,0.2l2.8,4.7v-6.3c0-0.1,0-0.3,0.1-0.4
				c0-0.1,0.1-0.2,0.2-0.3l1.6-0.9c0.1-0.1,0.2-0.1,0.2,0c0.1,0.1,0.1,0.2,0.1,0.3v11.9c0,0.1,0,0.3-0.1,0.4c0,0.1-0.1,0.2-0.2,0.3
				L220,166.6z"/>
			<path class="st6" d="M229.7,148c0.1-0.1,0.2-0.1,0.2,0c0.1,0.1,0.1,0.2,0.1,0.3v2c0,0.1,0,0.3-0.1,0.4c0,0.1-0.1,0.2-0.2,0.3
				l-2.1,1.2v9.5c0,0.1,0,0.3-0.1,0.4c0,0.1-0.1,0.2-0.2,0.3l-1.6,0.9c-0.1,0.1-0.2,0.1-0.2,0c-0.1-0.1-0.1-0.2-0.1-0.3v-9.5
				l-2.1,1.2c-0.1,0.1-0.2,0.1-0.2,0c-0.1-0.1-0.1-0.2-0.1-0.3v-2c0-0.1,0-0.3,0.1-0.4c0-0.1,0.1-0.2,0.2-0.3L229.7,148z"/>
			<path class="st6" d="M237.4,153.6c0.1-0.1,0.2-0.1,0.2,0c0.1,0.1,0.1,0.2,0.1,0.3v2c0,0.1,0,0.3-0.1,0.4c0,0.1-0.1,0.2-0.2,0.3
				l-5.7,3.3c-0.1,0.1-0.2,0.1-0.2,0c-0.1-0.1-0.1-0.2-0.1-0.3v-12c0-0.1,0-0.3,0.1-0.4c0-0.1,0.1-0.2,0.2-0.3l5.6-3.2
				c0.1-0.1,0.2-0.1,0.2,0c0.1,0.1,0.1,0.2,0.1,0.3v2c0,0.1,0,0.3-0.1,0.4c0,0.1-0.1,0.2-0.2,0.3l-3.7,2.1v2l3.4-2
				c0.1-0.1,0.2-0.1,0.2,0c0.1,0.1,0.1,0.2,0.1,0.3v2c0,0.1,0,0.3-0.1,0.4c0,0.1-0.1,0.2-0.2,0.3l-3.4,2v2.1L237.4,153.6z"/>
			<path class="st6" d="M243,140.3c0.4-0.3,0.9-0.5,1.4-0.6c0.4-0.1,0.7,0,1.1,0.2c0.3,0.2,0.6,0.6,0.7,0.9c0.2,0.6,0.3,1.2,0.2,1.8
				c0,0.9-0.1,1.7-0.4,2.5c-0.2,0.7-0.6,1.4-1.1,2l1.5,3.6c0,0.1,0,0.1,0,0.2c0,0.1,0,0.2-0.1,0.3c0,0.1-0.1,0.2-0.2,0.2l-1.6,0.9
				c-0.2,0.1-0.3,0.1-0.3,0c-0.1-0.1-0.1-0.2-0.2-0.2l-1.3-3.1l-1.1,0.6v4c0,0.1,0,0.3-0.1,0.4c0,0.1-0.1,0.2-0.2,0.3l-1.6,0.9
				c-0.1,0.1-0.2,0.1-0.2,0c-0.1-0.1-0.1-0.2-0.1-0.3v-12c0-0.1,0-0.3,0.1-0.4c0-0.1,0.1-0.2,0.2-0.3L243,140.3z M241.6,146.7
				l1.4-0.8c0.3-0.2,0.6-0.5,0.8-0.8c0.2-0.4,0.4-0.8,0.3-1.3c0-0.5-0.1-0.8-0.3-0.9c-0.3-0.1-0.6,0-0.8,0.2l-1.4,0.8V146.7z"/>
			<path class="st6" d="M253.6,147.2c-0.1,0.1-0.2,0.1-0.3,0c-0.1,0-0.1-0.1-0.2-0.2l-2.8-4.7v6.3c0,0.1,0,0.3-0.1,0.4
				c0,0.1-0.1,0.2-0.2,0.3l-1.6,0.9c-0.1,0.1-0.2,0.1-0.2,0c-0.1-0.1-0.1-0.2-0.1-0.3v-12c0-0.1,0-0.3,0.1-0.4
				c0-0.1,0.1-0.2,0.2-0.3l1.2-0.7c0.1-0.1,0.2-0.1,0.3,0c0.1,0,0.1,0.1,0.2,0.2l2.8,4.7v-6.3c0-0.1,0-0.3,0.1-0.4
				c0-0.1,0.1-0.2,0.2-0.3l1.6-0.9c0.1-0.1,0.2-0.1,0.2,0c0.1,0.1,0.1,0.2,0.1,0.3v11.9c0,0.1,0,0.3-0.1,0.4c0,0.1-0.1,0.2-0.2,0.3
				L253.6,147.2z"/>
			<path class="st6" d="M261.6,129.6c0.1-0.1,0.3-0.1,0.4,0c0.1,0.1,0.1,0.2,0.2,0.3l2.6,10.1c0,0.1,0,0.2,0,0.2
				c0,0.1,0,0.2-0.1,0.3c0,0.1-0.1,0.2-0.2,0.2l-1.5,0.9c-0.2,0.1-0.3,0.1-0.3,0c-0.1-0.1-0.1-0.1-0.1-0.2l-0.3-1.3L259,142
				l-0.3,1.7c0,0.1-0.1,0.3-0.1,0.4c-0.1,0.1-0.2,0.3-0.3,0.4l-1.5,0.9c-0.1,0-0.1,0-0.2,0c-0.1-0.1-0.1-0.2-0.1-0.2
				c0-0.1,0-0.2,0-0.3l2.6-13.2c0-0.2,0.1-0.3,0.2-0.5c0.1-0.2,0.2-0.3,0.4-0.4L261.6,129.6z M259.6,138.8l2-1.1l-1-3.9L259.6,138.8
				z"/>
			<path class="st6" d="M272,133.6c0.1-0.1,0.2-0.1,0.2,0c0.1,0.1,0.1,0.2,0.1,0.3v2c0,0.1,0,0.3-0.1,0.4c0,0.1-0.1,0.2-0.2,0.3
				l-5.6,3.2c-0.1,0.1-0.2,0.1-0.2,0c-0.1-0.1-0.1-0.2-0.1-0.3v-12c0-0.1,0-0.3,0.1-0.4c0-0.1,0.1-0.2,0.2-0.3l1.6-0.9
				c0.1-0.1,0.2-0.1,0.2,0c0.1,0.1,0.1,0.2,0.1,0.3v9.5L272,133.6z"/>
			<path class="st6" d="M279.3,119.2c0.4-0.3,0.9-0.4,1.4-0.5c0.4,0,0.8,0.1,1.1,0.2c0.3,0.2,0.6,0.4,0.7,0.8
				c0.2,0.3,0.3,0.7,0.3,1.1c0,0.1,0,0.2-0.1,0.3c-0.1,0.1-0.1,0.2-0.2,0.2l-1.6,0.9c-0.1,0.1-0.2,0.1-0.3,0.1c-0.1,0-0.2,0-0.2-0.1
				c0,0-0.1-0.1-0.1-0.1c-0.1-0.1-0.1-0.1-0.2-0.1c-0.1,0-0.2,0-0.4,0c-0.2,0-0.4,0.1-0.5,0.2c-0.2,0.1-0.3,0.2-0.4,0.3
				c-0.1,0.1-0.3,0.2-0.4,0.4c-0.1,0.1-0.2,0.3-0.3,0.4c-0.1,0.2-0.1,0.3-0.1,0.5c0,0.1,0,0.3,0.1,0.4c0.1,0.1,0.2,0.1,0.4,0.1
				c0.2,0,0.5,0,0.7-0.1l1.1-0.3c0.4-0.1,0.8-0.2,1.2-0.2c0.3,0,0.6,0.1,0.8,0.3c0.2,0.2,0.4,0.5,0.5,0.8c0.1,0.5,0.2,0.9,0.2,1.4
				c0,0.6-0.1,1.2-0.3,1.9c-0.2,0.6-0.4,1.2-0.8,1.7c-0.3,0.5-0.7,1-1.2,1.5c-0.4,0.4-0.9,0.8-1.5,1.1c-0.5,0.3-1,0.5-1.5,0.5
				c-0.4,0-0.8,0-1.2-0.2c-0.3-0.2-0.6-0.5-0.7-0.9c-0.2-0.4-0.3-0.8-0.3-1.2c0-0.1,0-0.2,0.1-0.3c0-0.1,0.1-0.2,0.2-0.2l1.6-0.9
				c0.1-0.1,0.2-0.1,0.3-0.1c0.1,0,0.1,0,0.2,0.1l0.1,0.2c0.1,0.1,0.2,0.1,0.3,0.2c0.1,0.1,0.3,0.1,0.4,0.1c0.2,0,0.4-0.1,0.6-0.2
				c0.4-0.2,0.8-0.5,1.1-0.8c0.3-0.3,0.4-0.6,0.4-1c0-0.2,0-0.3-0.2-0.4c-0.1-0.1-0.3-0.1-0.5-0.1c-0.3,0-0.5,0.1-0.8,0.2l-1.1,0.3
				c-0.6,0.2-1.3,0.1-1.8-0.3c-0.4-0.6-0.7-1.4-0.6-2.2c0-0.6,0.1-1.1,0.2-1.7c0.2-0.6,0.4-1.1,0.7-1.7c0.3-0.5,0.7-1,1.1-1.5
				C278.3,119.9,278.8,119.5,279.3,119.2z"/>
			<path class="st6" d="M290.6,122.9c0.1-0.1,0.2-0.1,0.2,0c0.1,0.1,0.1,0.2,0.1,0.3v2c0,0.1,0,0.3-0.1,0.4c0,0.1-0.1,0.2-0.2,0.3
				l-5.7,3.3c-0.1,0.1-0.2,0.1-0.2,0c-0.1-0.1-0.1-0.2-0.1-0.3v-12c0-0.1,0-0.3,0.1-0.4c0-0.1,0.1-0.2,0.2-0.3l5.6-3.2
				c0.1-0.1,0.2-0.1,0.2,0c0.1,0.1,0.1,0.2,0.1,0.3v2c0,0.1,0,0.3-0.1,0.4c0,0.1-0.1,0.2-0.2,0.3l-3.7,2.1v2l3.4-2
				c0.1-0.1,0.2-0.1,0.2,0c0.1,0.1,0.1,0.2,0.1,0.3v2c0,0.1,0,0.3-0.1,0.4c0,0.1-0.1,0.2-0.2,0.3l-3.4,2v2.1L290.6,122.9z"/>
			<path class="st6" d="M296.2,109.7c0.4-0.3,0.9-0.5,1.4-0.6c0.4-0.1,0.7,0,1.1,0.2c0.3,0.2,0.6,0.6,0.7,0.9
				c0.2,0.6,0.2,1.2,0.2,1.7c0,0.9-0.1,1.7-0.4,2.5c-0.2,0.7-0.6,1.4-1,2l1.5,3.5c0,0.1,0,0.1,0,0.2c0,0.1,0,0.2-0.1,0.3
				c0,0.1-0.1,0.2-0.2,0.2l-1.6,1c-0.2,0.1-0.3,0.1-0.4,0c-0.1-0.1-0.1-0.2-0.2-0.2l-1.3-3.2l-1.1,0.6v4c0,0.1,0,0.3-0.1,0.4
				c0,0.1-0.1,0.2-0.2,0.3l-1.6,0.9c-0.1,0.1-0.2,0.1-0.2,0c-0.1-0.1-0.1-0.2-0.1-0.3v-12c0-0.1,0-0.3,0.1-0.4
				c0-0.1,0.1-0.2,0.2-0.3L296.2,109.7z M294.8,116l1.4-0.8c0.3-0.2,0.6-0.5,0.8-0.8c0.2-0.4,0.4-0.8,0.3-1.3c0-0.5-0.1-0.8-0.3-0.9
				c-0.3-0.1-0.6,0-0.8,0.2l-1.4,0.8V116z"/>
			<path class="st6" d="M303.5,118.4c-0.3,0.2-0.5,0.1-0.6-0.4l-2.5-10.2c0,0,0-0.1,0-0.2v-0.1c0-0.1,0-0.2,0.1-0.3
				c0-0.1,0.1-0.2,0.2-0.2l1.5-0.9c0.2-0.1,0.3-0.1,0.3,0c0.1,0.1,0.1,0.1,0.1,0.2l1.7,7.2l1.7-9.1c0-0.1,0.1-0.3,0.1-0.4
				c0.1-0.2,0.2-0.3,0.4-0.4l1.5-0.9c0.1,0,0.1,0,0.2,0c0.1,0.1,0.1,0.2,0.1,0.2c0,0,0,0,0,0.1c0,0.1,0,0.1,0,0.2l-2.5,13
				c0,0.4-0.3,0.8-0.6,1.1L303.5,118.4z"/>
			<path class="st6" d="M315.7,108.4c0.1-0.1,0.2-0.1,0.2,0c0.1,0.1,0.1,0.2,0.1,0.3v2c0,0.1,0,0.3-0.1,0.4c0,0.1-0.1,0.2-0.2,0.3
				l-5.7,3.3c-0.1,0.1-0.2,0.1-0.2,0c-0.1-0.1-0.1-0.2-0.1-0.3v-12c0-0.1,0-0.3,0.1-0.4c0-0.1,0.1-0.2,0.2-0.3l5.6-3.2
				c0.1-0.1,0.2-0.1,0.2,0c0.1,0.1,0.1,0.2,0.1,0.3v2c0,0.1,0,0.3-0.1,0.4c0,0.1-0.1,0.2-0.2,0.3l-3.7,2.1v2l3.4-2
				c0.1-0.1,0.2-0.1,0.2,0c0.1,0.1,0.1,0.2,0.1,0.3v2c0,0.1,0,0.3-0.1,0.4c0,0.1-0.1,0.2-0.2,0.3l-3.4,2v2.1L315.7,108.4z"/>
			<path class="st6" d="M321.3,95.2c0.4-0.3,0.9-0.5,1.4-0.6c0.4-0.1,0.7,0,1.1,0.2c0.3,0.2,0.6,0.6,0.7,0.9
				c0.2,0.6,0.3,1.2,0.2,1.7c0,0.9-0.1,1.7-0.4,2.5c-0.2,0.7-0.6,1.4-1.1,2l1.5,3.5c0,0.1,0,0.1,0,0.2c0,0.1,0,0.2-0.1,0.3
				c0,0.1-0.1,0.2-0.2,0.2l-1.6,0.9c-0.2,0.1-0.3,0.1-0.3,0c-0.1-0.1-0.1-0.2-0.2-0.2l-1.3-3.2l-1.1,0.6v4c0,0.1,0,0.3-0.1,0.4
				c0,0.1-0.1,0.2-0.2,0.3L318,110c-0.1,0.1-0.2,0.1-0.2,0c-0.1-0.1-0.1-0.2-0.1-0.3v-12c0-0.1,0-0.3,0.1-0.4c0-0.1,0.1-0.2,0.2-0.3
				L321.3,95.2z M319.9,101.6l1.4-0.8c0.3-0.2,0.6-0.5,0.8-0.8c0.2-0.4,0.3-0.8,0.3-1.3c0-0.5-0.1-0.8-0.3-0.9
				c-0.3-0.1-0.6,0-0.8,0.2l-1.4,0.8V101.6z"/>
		</g>
		<path class="st6" d="M252.1,191.4c-0.6-0.5-1.5-0.5-2.1,0.1c0,0-0.1,0.1-0.1,0.1c-0.7,0.8-0.7,3.4-1,5.1c-0.3,1.8-0.9,3.6-1.7,5.3
			c-1.4,2.9-3.4,5.6-5.7,7.9c-3.2,3.1-6.9,5.5-10.9,7.3c-1.4,0.6-2.8,1.1-4.2,1.5c-1.4,0.4-3.4,0.4-4.6,1.2c-0.2,0.2-0.2,0.4,0,0.6
			c0,0,0,0,0,0c1.5,0.6,3.3,0.4,4.9,0.1c2-0.3,3.9-0.8,5.8-1.6c3.8-1.5,7.4-3.6,10.4-6.4c3.1-2.6,5.6-5.7,7.4-9.3
			c1-1.9,1.7-3.9,2.1-6.1c0.2-1.1,0.4-2.2,0.4-3.3C253,193.2,252.7,192.1,252.1,191.4z"/>
	</g>
</g>
</svg>
