<?xml version="1.0" encoding="utf-8"?>
<!-- Generator: Adobe Illustrator 25.2.1, SVG Export Plug-In . SVG Version: 6.00 Build 0)  -->
<svg version="1.1" id="Capa_1" xmlns="http://www.w3.org/2000/svg" xmlns:xlink="http://www.w3.org/1999/xlink" x="0px" y="0px"
	 viewBox="0 0 500 500" style="enable-background:new 0 0 500 500;" xml:space="preserve">
<style type="text/css">
	.st0{fill:#F5F5F5;}
	.st1{fill:#FAFAFA;}
	.st2{fill:#EBEBEB;}
	.st3{fill:#E0E0E0;}
	.st4{fill:#263238;}
	.st5{fill:#FE725D;}
	.st6{fill:#455A64;}
	.st7{fill:#FFFFFF;}
	.st8{opacity:0.3;}
	.st9{opacity:0.6;fill:#FFFFFF;enable-background:new    ;}
</style>
<g id="freepik--background-complete--inject-44">
	<path class="st0" d="M467.7,191.7c0.7-5.4-6.9-9.9-12.7-10.4c-2.8-0.2-5.6,0.2-8.2-0.7c-5.6-2-7.9-9.2-13.4-11.6
		c-4.1-1.7-8.9-0.2-12.8,1.8s-7.9,4.5-12.4,4.8c-3.9,0.2-8.1-1.2-11.5,0.7c-2.5,1.4-3.9,4.3-6.2,6s-5.3,2-8.1,2.2s-5.8,0.2-8.3,1.4
		s-4.7,3.9-4.2,6.7L467.7,191.7z"/>
	<path class="st1" d="M216.8,102.4c0.6-4.3-5.4-7.8-10-8.2c-2.2-0.2-4.4,0.2-6.5-0.6c-4.4-1.6-6.2-7.3-10.5-9.1
		c-3.2-1.4-7-0.2-10.1,1.4s-6.2,3.6-9.8,3.8c-3,0.2-6.4-0.9-9,0.6c-2,1.1-3,3.4-4.9,4.8s-4.1,1.6-6.4,1.7s-4.5,0.2-6.6,1.1
		s-3.7,3.1-3.3,5.3L216.8,102.4z"/>
	<path class="st0" d="M170.4,74.1c1-7.2-9.1-13-16.7-13.7c-3.6-0.3-7.4,0.3-10.8-0.9c-7.4-2.6-10.4-12.2-17.7-15.2
		c-5.4-2.3-11.7-0.2-16.9,2.4S97.9,52.6,92,53c-5.1,0.3-10.7-1.6-15.1,0.9c-3.3,1.9-5.1,5.7-8.1,8c-3.1,2.3-6.9,2.7-10.6,2.9
		s-7.6,0.2-11,1.8s-6.2,5.1-5.5,8.8L170.4,74.1z"/>
	<path class="st2" d="M90.9,338.7c0,0-7.5-2.4-11,14.9s-4,26.9-4,26.9s-1.2,3.8-3.9,2.3s-7.4-6.5-10.8-4.5s-3.6,6.8-1.1,12.9
		s7.4,19.7,7.9,20.9s0.2,3.2-1.8,2.5s-14.9-8.9-18.5-2.6s6.2,22.2,7.2,24s0.9,2.7,0.1,3.4s-4.8-2.5-8.6-4.6s-8.5-4.1-10.2-0.2
		s1,17,19.2,34.6l8.9,7.6l11.1-3.8c23.4-9.5,30.9-20.7,30.7-24.9s-5.3-4.2-9.6-3.6s-9.3,2-9.7,1.1s-0.2-1.9,1.4-3.1
		s16.6-12.3,15.6-19.5s-16-4.4-18.1-4.5s-1.6-2-0.7-3s10.5-11.8,15.2-16.5s6.2-9.1,3.8-12.4s-8.6-0.2-11.7,0.1s-2.8-3.6-2.8-3.6
		s3.1-9,6.3-26.4s-4.9-17.9-4.9-17.9"/>
	<path class="st3" d="M62.9,479.3c2.4-12.7,7.1-35.3,11-54.7s7.4-37,9.9-49.7c1.2-6.4,2.2-11.5,2.9-15.1c0.3-1.8,0.6-3.1,0.8-4.1
		c0.1-0.5,0.2-0.8,0.2-1.1s0.1-0.4,0.1-0.4s0,0.1,0,0.4s-0.1,0.6-0.2,1.1c-0.2,1-0.4,2.3-0.7,4.1c-0.6,3.6-1.6,8.7-2.8,15.1
		c-2.4,12.7-5.9,30.3-9.8,49.7s-8.6,42-11,54.7"/>
	<path class="st3" d="M67.3,385.6c0.2,0.2,0.4,0.4,0.5,0.7c0.3,0.5,0.7,1.1,1.2,2c1,1.7,2.4,4,3.8,6.6l3.7,6.7l1.1,2
		c0.2,0.2,0.3,0.5,0.4,0.8c-0.2-0.2-0.4-0.4-0.5-0.7c-0.3-0.5-0.7-1.1-1.2-2c-1-1.7-2.3-4-3.8-6.6s-2.7-4.9-3.7-6.6l-1.1-2
		C67.5,386.2,67.4,385.9,67.3,385.6z"/>
	<path class="st3" d="M79.1,404.3c0-0.1,4.6-3.1,10.5-6.6s10.6-6.4,10.7-6.3s-4.6,3.1-10.5,6.6S79.1,404.4,79.1,404.3z"/>
	<path class="st3" d="M71.7,433.8c0.3-0.1,0.5-0.2,0.8-0.3l2.3-0.6c1.9-0.5,4.6-1.3,7.4-2.2s5.5-1.8,7.3-2.5l2.2-0.8
		c0.3-0.1,0.5-0.2,0.8-0.3c-0.2,0.2-0.5,0.3-0.8,0.4c-0.5,0.2-1.2,0.5-2.2,0.9c-1.8,0.7-4.4,1.7-7.3,2.6s-5.6,1.6-7.5,2.1
		c-1,0.2-1.8,0.4-2.3,0.5C72.3,433.7,72,433.8,71.7,433.8z"/>
	<path class="st3" d="M57.4,419.3c0.2,0.1,0.4,0.3,0.6,0.5l1.6,1.5c1.3,1.3,3.2,3,5.2,5c2,2,3.8,3.8,5.1,5.1l1.5,1.6
		c0.2,0.2,0.4,0.4,0.5,0.6c-0.2-0.1-0.4-0.3-0.6-0.5l-1.6-1.5c-1.3-1.3-3.2-3-5.2-5s-3.8-3.8-5.1-5.1l-1.5-1.6
		C57.7,419.7,57.5,419.5,57.4,419.3z"/>
	<path class="st3" d="M47.6,444.5c0.3,0.2,0.5,0.4,0.8,0.7l2,1.9c1.7,1.6,4.1,3.9,6.7,6.4s4.9,4.8,6.6,6.4l2,2
		c0.3,0.2,0.5,0.5,0.7,0.8c-0.3-0.2-0.5-0.4-0.8-0.7c-0.5-0.5-1.2-1.1-2-1.9c-1.7-1.6-4.1-3.9-6.7-6.4s-4.9-4.8-6.6-6.4l-2-2
		C48.1,445.1,47.8,444.8,47.6,444.5z"/>
	<path class="st3" d="M66,462.1c0.3-0.1,0.7-0.3,1-0.4l2.8-0.9c2.4-0.8,5.7-1.8,9.4-3.1s6.9-2.5,9.2-3.4l2.8-1.1
		c0.3-0.1,0.7-0.3,1-0.4c-0.3,0.2-0.7,0.3-1,0.5c-0.6,0.3-1.6,0.7-2.7,1.2c-2.3,1-5.6,2.2-9.2,3.5s-7,2.3-9.4,3
		c-1.2,0.3-2.2,0.6-2.9,0.8C66.7,461.9,66.3,462,66,462.1z"/>
	<path class="st2" d="M297.8,409c4.1,0,8.1,1.7,10.9,4.6c2.8,3,4.9,6.5,6.1,10.4c2.6,7.4,2,16.5,0.4,24.1
		c-8.4-2.3-14.1-10.7-16.7-15.1C294.4,426,291.1,410.9,297.8,409"/>
	<path class="st2" d="M327.7,456.5c-2.8-3.7-3.4-8.6-1.5-12.9c1.9-4.2,5.4-7.4,9.7-9c2-0.8,4.3-1.2,6.1-0.1c1.7,1.1,2.6,3,2.5,5
		c-0.2,2-0.9,3.9-2,5.5C338.8,450.7,334.3,455.5,327.7,456.5"/>
	<path class="st3" d="M328.5,476.2c-0.6-1.6-1.1-3.3-1.4-5c-0.4-1.9-0.6-3.8-0.5-5.7c0-2.3,0.2-4.6,0.5-6.9
		c0.6-4.2,2.2-8.2,4.6-11.7c0.8-1,1.7-2,2.6-2.8c0.7-0.6,1.1-0.8,1.1-0.8s-1.5,1.4-3.3,4c-2.3,3.4-3.7,7.4-4.3,11.4
		c-0.3,2.3-0.5,4.5-0.5,6.8c-0.1,1.8,0,3.7,0.3,5.5C328,472.8,328.3,474.5,328.5,476.2z"/>
	<path class="st3" d="M301.3,420.4c0.5,0.7,1,1.5,1.4,2.2c0.8,1.5,2,3.6,3.4,6.3c2.8,5.3,6.7,12.7,10.7,21s7.5,15.9,9.9,21.5
		c1.2,2.8,2.1,5,2.8,6.6c0.4,0.8,0.7,1.6,0.9,2.5c-0.5-0.7-0.9-1.5-1.2-2.3c-0.8-1.7-1.8-3.9-3-6.5c-2.5-5.5-6.1-13-10.1-21.3
		s-7.8-15.6-10.5-21.1c-1.3-2.6-2.4-4.8-3.2-6.4C301.9,422,301.6,421.2,301.3,420.4z"/>
	<path class="st2" d="M320,463.5c-6.7-7.1-16.3-10.6-26-9.4c-2.4,0.3-5.2,1.3-5.8,3.7s1.4,4.6,3.4,6c8.6,5.9,19.9,6,28.6,0.3"/>
	<path class="st3" d="M299.2,459.1c0.4-0.1,0.9-0.2,1.4-0.1c0.9,0,2.2,0,3.8,0c4.2,0.1,8.3,1,12.1,2.6c2.1,0.9,4.1,2.2,5.8,3.8
		c2.3,2.2,4,4.9,5.1,7.8c0.2,0.4,0.3,0.9,0.4,1.3c-0.2,0.1-0.9-1.8-2.5-4.4c-1-1.5-2.2-2.9-3.5-4.1c-1.7-1.5-3.5-2.7-5.6-3.6
		c-3.8-1.6-7.8-2.5-11.8-2.8C302.6,459.5,300.9,459.4,299.2,459.1z"/>
	<polygon class="st3" points="73.5,199.3 61.2,174 48.9,181.8 29.9,165.6 47.1,190.6 59.6,182.6 	"/>
	<polygon class="st3" points="69.8,206.2 52.7,197.9 49.4,207.2 32.5,206.5 52.2,212.6 55.5,203.1 	"/>
</g>
<g id="freepik--Plant--inject-44">
	<path class="st4" d="M401.5,452.9c-0.2,0-0.4-0.1-0.6-0.1c-0.4-0.1-1-0.3-1.8-0.5c-5.4-1.3-11.1-1.5-16.6-0.6
		c-13.8,2.4-25.4,11.7-30.8,24.7c-0.3,0.7-0.5,1.3-0.7,1.7c-0.1,0.2-0.2,0.4-0.3,0.6c0-0.2,0.1-0.4,0.2-0.6c0.1-0.4,0.3-1,0.6-1.8
		c0.8-2.1,1.8-4.2,3-6.1c7.9-13.2,22.7-20.7,38-19.3c2.3,0.2,4.5,0.6,6.7,1.2c0.8,0.2,1.4,0.4,1.8,0.6
		C401.1,452.7,401.3,452.8,401.5,452.9z"/>
	<path class="st5" d="M398,451.3c-3.6,4.1-4.7,9.9-2.8,15.1c0.4,1,1.1,2.1,2.2,2.1s1.9-1.2,2.2-2.3c1.5-4.6,1.1-9.6-1.2-13.9
		c1.5,3.7,4,6.8,7.3,9c1.2,0.8,3,1.5,4.2,0.6s1-2.6,0.6-4c-1.8-4.8-6.6-7.9-11.8-7.6c4.6,0.3,8.9-2.2,10.9-6.4
		c0.7-1.6,0.8-3.8-0.8-4.6c-1-0.4-2.1-0.3-3,0.2c-3.8,1.6-6.7,4.9-7.9,8.8c2-4.5,1.1-9.8-2.3-13.4c-1.1-1.1-2.6-2.1-4.1-1.6
		c-1.9,0.5-2.5,2.9-2.4,4.8c0.2,4.9,2.6,9.5,6.5,12.4c-2.6-1.6-5.8-1.9-8.5-0.7c-1.8,0.8-3.5,2.8-2.7,4.5s3.1,1.9,5,1.5
		c3.4-0.6,6.5-2,9.3-4"/>
	<path class="st6" d="M363.6,459.2c5.7,7.1,14.2,11.3,23.2,11.5c-0.1-2-1.7-3.5-3.3-4.7c-5.6-4.3-12.5-6.5-19.6-6.4"/>
	<path class="st4" d="M397.1,461.9c0.4-1.9,0.8-3.8,1-5.8c0-2-0.1-3.9-0.3-5.9C399.1,454.1,398.8,458.3,397.1,461.9z"/>
	<path class="st4" d="M404.6,457.7c-0.8-1.3-1.8-2.6-2.9-3.7c-1.9-1.8-3.9-2.8-3.8-2.9c1.6,0.5,3,1.4,4.2,2.6
		C403.3,454.7,404.2,456.1,404.6,457.7z"/>
	<path class="st4" d="M404.2,444.6c-0.4,1.5-1.2,2.9-2.4,4c-1,1.2-2.4,2.1-4,2.4c1.3-0.8,2.5-1.7,3.6-2.8
		C402.5,447.1,403.4,445.9,404.2,444.6z"/>
	<path class="st1" d="M398,448.8c1-0.1,1.9,0.7,1.9,1.7c0,0.5-0.1,1-0.4,1.3c-0.5-0.4-1-0.6-1.5-0.8
		C398.1,450.3,398.1,449.5,398,448.8"/>
	<path class="st4" d="M392.7,438.2c0.6,0.4,1,1,1.4,1.6c2,2.8,3.2,6,3.5,9.4c0.1,0.7,0.1,1.4,0,2.1c-0.3-2.3-0.8-4.6-1.6-6.9
		C395.1,442.2,394,440.2,392.7,438.2z"/>
	<path class="st5" d="M38.3,440.8c2.2,0,4.2,0.9,5.7,2.5c1.5,1.6,2.5,3.5,3.2,5.5c1.3,3.9,1,8.7,0,12.7c-4.4-1.3-7.4-5.7-8.7-8.1
		C36.4,449.8,34.8,441.8,38.3,440.8"/>
	<path class="st5" d="M53.8,466c-1.4-2-1.7-4.6-0.7-6.8c1-2.2,2.9-3.9,5.2-4.7c1-0.5,2.2-0.5,3.2,0c0.9,0.6,1.4,1.6,1.3,2.6
		c-0.1,1-0.5,2-1.1,2.8C59.7,463,57.3,465.5,53.8,466"/>
	<path class="st4" d="M55.1,479.4c-0.1-0.3-0.2-0.5-0.2-0.8c-0.2-0.6-0.3-1.3-0.6-2.2c-0.7-2.5-1.1-5-1-7.6c0.1-2.6,1-5.1,2.4-7.3
		c0.4-0.6,1-1.2,1.5-1.8c0.2-0.2,0.4-0.3,0.5-0.4s0.2-0.1,0.2-0.1c-0.7,0.7-1.4,1.5-2,2.4c-1.4,2.2-2.1,4.6-2.3,7.2
		c-0.1,2.5,0.2,5.1,0.8,7.5c0.2,1,0.4,1.7,0.5,2.3C55,478.8,55.1,479.1,55.1,479.4z"/>
	<path class="st4" d="M40.1,446.8c0.1,0.1,0.1,0.2,0.2,0.3l0.5,0.9c0.4,0.8,1,2,1.8,3.5c1.5,3,3.5,7,5.6,11.6s3.9,8.8,5.2,11.8
		c0.6,1.5,1.1,2.8,1.5,3.6c0.2,0.4,0.3,0.7,0.4,1c0.1,0.1,0.1,0.2,0.1,0.4c-0.1-0.1-0.1-0.2-0.2-0.3c-0.1-0.2-0.3-0.6-0.4-1
		c-0.4-0.9-0.9-2.1-1.6-3.6c-1.3-3-3.2-7.2-5.3-11.8s-4.1-8.7-5.5-11.7c-0.7-1.5-1.3-2.6-1.7-3.5c-0.2-0.4-0.3-0.7-0.5-1
		C40.2,447,40.1,446.9,40.1,446.8z"/>
	<path class="st5" d="M49.4,470.9c-2.9-4.2-7.7-6.8-12.8-6.9c-1.3,0-2.8,0.3-3.3,1.5s0.3,2.5,1.3,3.4c4,3.7,9.9,4.7,14.9,2.4"/>
	<path class="st4" d="M38.8,467.2c0.3,0,0.5,0,0.8,0c0.3,0,0.6,0,0.9,0c0.4,0,0.8,0.1,1.2,0.2c0.5,0.1,1,0.2,1.5,0.3
		c0.6,0.1,1.1,0.3,1.7,0.5c1.2,0.5,2.4,1.1,3.5,1.8c1.1,0.8,2.1,1.6,3,2.6c0.4,0.4,0.7,0.9,1.1,1.4c0.3,0.4,0.6,0.8,0.8,1.3
		c0.2,0.4,0.4,0.7,0.6,1.1c0.1,0.3,0.3,0.6,0.4,0.9c0.1,0.2,0.2,0.5,0.3,0.8c-0.1,0-0.4-1.1-1.4-2.6c-0.2-0.4-0.5-0.8-0.8-1.2
		c-0.3-0.5-0.7-0.9-1.1-1.3c-0.9-1-1.9-1.8-3-2.6c-1.1-0.7-2.3-1.3-3.5-1.8c-0.5-0.2-1.1-0.4-1.6-0.5c-0.5-0.2-1-0.2-1.5-0.4
		C39.9,467.3,38.8,467.3,38.8,467.2z"/>
</g>
<g id="freepik--404-error--inject-44">
	<polygon class="st6" points="323.8,480.1 351,480.1 389.9,291.3 363.9,285.9 	"/>
	<polygon class="st4" points="440.8,420.3 276.6,386.3 272,382.2 289.3,324.8 297,325.3 285.2,319.1 291.9,285.6 456.1,319.5 
		460.8,323.7 454,356.6 441,356.9 448.1,358.2 452.8,362.4 	"/>
	<polygon class="st6" points="436.2,416.1 272,382.2 284.7,320.6 292.3,321.1 286,314.5 291.9,285.6 456.1,319.5 449.3,352.4 
		436.3,352.7 448.1,358.2 	"/>
	<path class="st4" d="M439.8,352.3c0,0-0.1,0-0.4,0l-1.1-0.1l-4.4-0.4l-3.2-0.3l-3.8-0.5c-2.7-0.3-5.8-0.7-9.2-1.2l-5.4-0.8
		c-1.9-0.3-3.8-0.7-5.8-1c-4-0.7-8.2-1.6-12.7-2.5c-8.9-1.9-18.7-4.2-28.8-6.8c-20.4-5.2-38.7-10.3-52.1-13.5
		c-3.3-0.9-6.4-1.5-9-2.2s-5-1.2-6.8-1.6l-4.3-1l-1.1-0.3c-0.1,0-0.3-0.1-0.4-0.1c0.1,0,0.3,0,0.4,0.1l1.1,0.2l4.3,0.9
		c1.9,0.4,4.2,0.9,6.9,1.5s5.7,1.3,9.1,2.1c13.4,3.2,31.8,8.1,52.1,13.4c10.2,2.6,19.9,4.9,28.8,6.8c4.5,0.9,8.7,1.8,12.7,2.5
		c2,0.4,3.9,0.7,5.8,1l5.3,0.9c3.4,0.6,6.5,0.9,9.2,1.3l3.8,0.5l3.2,0.3l4.4,0.5l1.1,0.1L439.8,352.3z"/>
	<path class="st4" d="M448.1,347.1c-0.1-0.1-0.3-0.2-0.4-0.2l-1-0.8c-0.9-0.6-2.2-1.7-4-2.9c-4.9-3.5-10.1-6.6-15.4-9.4
		c-7.9-4.2-16.1-7.6-24.7-10.3c-10.4-3.2-21.2-5.2-32.1-5.9c-11.6-0.9-22.7,0.3-32.8,0.5c-4.8,0.2-9.6,0.1-14.4-0.3
		c-10.2-0.8-20.2-3.3-29.6-7.2c-2-0.8-3.5-1.5-4.5-2l-1.1-0.6l-0.4-0.2c0.1,0,0.3,0.1,0.4,0.2l1.2,0.5c1,0.5,2.5,1.1,4.5,1.9
		c5.6,2.2,11.4,4,17.3,5.2c4.1,0.8,8.2,1.4,12.3,1.7c4.8,0.3,9.5,0.4,14.3,0.2c10.1-0.3,21.2-1.4,32.8-0.6c11,0.7,21.8,2.7,32.3,6
		c8.5,2.7,16.8,6.2,24.7,10.4c5.3,2.9,10.4,6.1,15.3,9.6c1.7,1.2,3,2.3,3.9,3l1,0.8C447.9,346.9,448,347,448.1,347.1z"/>
	<path class="st4" d="M368.7,303c-0.2,0.1-0.5,0.2-0.8,0.3l-2.2,0.7c-1,0.3-2.2,0.6-3.6,1s-3,0.8-4.8,1.1s-3.7,0.8-5.9,1
		s-4.4,0.6-6.8,0.9c-5.2,0.5-10.4,0.7-15.7,0.6c-5.2-0.1-10.4-0.6-15.6-1.3c-2.4-0.4-4.6-0.7-6.7-1.2s-4-0.9-5.8-1.3
		s-3.4-0.9-4.7-1.3s-2.6-0.8-3.5-1.1l-2.2-0.8c-0.3-0.1-0.5-0.2-0.8-0.3c0.3,0,0.5,0.1,0.8,0.2l2.2,0.7c1,0.3,2.2,0.6,3.6,1
		s3,0.8,4.8,1.2s3.7,0.9,5.8,1.2s4.4,0.8,6.7,1.1c5.2,0.7,10.3,1.1,15.5,1.2c5.2,0.1,10.4-0.1,15.6-0.6c2.4-0.3,4.6-0.5,6.8-0.8
		s4.1-0.6,5.9-1s3.4-0.7,4.8-1s2.6-0.6,3.6-0.9l2.3-0.5C368.2,303,368.4,303,368.7,303z"/>
	<path class="st4" d="M325,361.7c0,0,0.3,0.1,0.7,0.4l2.2,1.3c1.9,1.1,4.7,2.9,8.4,4.9c4.5,2.5,9.3,4.4,14.3,5.5
		c1.5,0.3,3,0.6,4.6,0.7c1.6,0.2,3.2-0.2,4.6-1c0.7-0.5,1.2-1.2,1.4-2c0.2-0.8,0.2-1.7,0-2.5c-0.5-1.7-1.6-3.2-3.1-4.2
		c-12.5-8.3-30.1-14.4-50.1-14.9c-2.5-0.1-5-0.1-7.6,0s-5.2,0.7-6.9,2.6c-0.9,0.9-1.3,2.1-1.3,3.4c0.1,1.3,0.6,2.5,1.4,3.5
		c1.6,2.1,3.9,3.5,6.2,5c9,6.1,18.5,12.2,29.2,16.4s22.1,6.1,32.8,4.5c2.6-0.4,5.3-1,7.8-1.8c2.5-0.7,4.8-2.1,6.5-4.1
		c1.5-2,2.3-4.5,2.3-7.1c0-2.5-0.5-5-1.6-7.2c-2.2-4.3-5.5-8-9.7-10.5c-3.9-2.4-8.1-4.2-12.5-5.4c-4.2-1.2-8.5-2.1-12.5-3l-11.6-2.6
		l-34.9-7.9l-9.5-2.2l-2.5-0.6c-0.6-0.1-0.8-0.2-0.8-0.2l0.9,0.2l2.5,0.5l9.5,2.1l35,7.7l11.6,2.6c4,0.9,8.2,1.8,12.5,3
		c4.5,1.2,8.7,3,12.7,5.5c4.2,2.6,7.6,6.3,9.9,10.7c1.1,2.3,1.7,4.9,1.7,7.5c0,2.7-0.8,5.3-2.4,7.4c-1.8,2-4.1,3.5-6.7,4.3
		c-2.6,0.9-5.2,1.5-7.9,1.9c-10.9,1.6-22.4-0.3-33.1-4.5s-20.4-10.3-29.3-16.4c-2.2-1.5-4.6-3-6.3-5.2c-0.9-1.1-1.4-2.4-1.5-3.8
		c0-1.4,0.5-2.8,1.5-3.8c0.9-1,2.1-1.7,3.4-2.1c1.3-0.4,2.6-0.6,3.9-0.6c2.6-0.1,5.1-0.1,7.6,0c20.1,0.6,37.8,6.7,50.4,15.1
		c1.6,1.1,2.8,2.6,3.3,4.5c0.2,0.9,0.2,1.8,0,2.7c-0.2,0.9-0.8,1.6-1.5,2.2c-1.5,0.9-3.2,1.3-4.9,1.1c-1.6-0.1-3.1-0.4-4.6-0.7
		c-5-1.2-9.8-3.1-14.3-5.7c-3.7-2-6.5-3.8-8.4-5c-0.9-0.6-1.6-1-2.1-1.4S325,361.7,325,361.7z"/>
	<path class="st4" d="M444.9,372.3c-0.3,0-0.7-0.1-1-0.2c-0.6-0.2-1.5-0.4-2.7-0.6c-3.4-0.5-6.8-0.5-10.2,0.1
		c-5,0.8-9.9,2.4-14.5,4.7c-5.6,2.8-10.9,6-16.1,9.6c-5.2,3.6-10.6,6.7-16.2,9.5c-4.6,2.2-9.6,3.7-14.7,4.4
		c-3.4,0.5-6.9,0.4-10.3-0.3c-0.9-0.2-1.8-0.4-2.7-0.7c-0.3-0.1-0.6-0.2-0.9-0.3c0.3,0.1,0.6,0.1,1,0.2c0.6,0.2,1.5,0.4,2.7,0.6
		c3.4,0.6,6.8,0.6,10.2,0.1c5-0.8,9.9-2.3,14.5-4.5c5.6-2.8,11-6,16.1-9.5c5.2-3.5,10.6-6.7,16.2-9.6c4.6-2.3,9.6-3.8,14.6-4.6
		c3.4-0.5,6.9-0.5,10.3,0.1c0.9,0.2,1.9,0.4,2.8,0.7C444.3,372.1,444.6,372.2,444.9,372.3z"/>
	<path class="st4" d="M441.9,388.6c0,0.1-0.8-0.3-2.2-0.6c-2-0.4-4.1-0.5-6.2-0.2c-3,0.5-6,1.4-8.8,2.7c-3.5,1.5-6.8,3.3-10.1,5.3
		c-3.5,2.1-6.8,4.1-10,5.6c-2.8,1.4-5.8,2.5-8.8,3.2c-2.1,0.5-4.2,0.7-6.3,0.6c-0.6,0-1.1-0.1-1.7-0.1c-0.2,0-0.4,0-0.6-0.1
		c0-0.1,0.8,0,2.3,0c2.1,0,4.2-0.3,6.2-0.8c3-0.8,5.9-1.9,8.7-3.3c3.1-1.5,6.4-3.5,9.9-5.6c3.3-2,6.7-3.8,10.2-5.3
		c2.9-1.3,5.9-2.2,9-2.6c2.1-0.3,4.2-0.1,6.3,0.4c0.6,0.2,1.1,0.3,1.6,0.5C441.5,388.4,441.7,388.5,441.9,388.6z"/>
	<path class="st4" d="M389,305.8c0,0.2-6.3-1.1-14.1-2.8s-14-3.2-13.9-3.4s6.3,1.1,14.1,2.8S389,305.6,389,305.8z"/>
	<path class="st7" d="M343.5,343.7l-5.1-1.1l-1.4,6.6l-9.5-2.1l1.4-6.6l-18.3-4l1.4-6.4l20.2-18.2l10.1,2.2l-18.5,17.2l7,1.5
		l1.3-5.9l9.2,2l-1.3,5.9l5.1,1.1L343.5,343.7z"/>
	<path class="st7" d="M347.8,333.4c2.5-11.4,10.3-16.6,19.2-14.7s13.8,9.9,11.3,21.3s-10.4,16.6-19.1,14.7S345.3,344.9,347.8,333.4z
		 M368.5,337.9c1.6-7.3-0.1-10.5-3.2-11.2s-6,1.5-7.6,8.8s0.1,10.5,3.3,11.2S366.9,345.2,368.5,337.9z"/>
	<path class="st7" d="M412,358.6l-5.1-1.1l-1.4,6.6l-9.6-2.1l1.5-6.6l-18.3-4l1.4-6.4l20.2-18.2l10.1,2.2l-18.5,17.1l7,1.5l1.3-5.9
		l9.2,2l-1.3,5.9l5.1,1.1L412,358.6z"/>
	<path class="st7" d="M336.2,368.2l-0.5,2.2l-10.4-2.4l3.2-13.9l10.1,2.4l-0.5,2.2l-7.5-1.8l-0.9,3.6l6.7,1.6l-0.5,2.1l-6.7-1.6
		l-0.9,3.8L336.2,368.2z"/>
	<path class="st7" d="M347.6,373.2l-1.9-4.7c-0.2,0-0.4-0.1-0.5-0.1l-3.1-0.7l-1,4l-2.6-0.6l3.3-13.9l5.7,1.3
		c3.6,0.9,5.5,3.2,4.8,6.3c-0.4,2-2,3.5-4,3.7l2.1,5.3L347.6,373.2z M346.9,360.7l-3-0.7l-1.3,5.5l3,0.7c2.3,0.5,3.7-0.2,4.1-2
		S349.2,361.2,346.9,360.7L346.9,360.7z"/>
	<path class="st7" d="M362.1,376.6l-1.9-4.7c-0.2,0-0.4-0.1-0.5-0.1l-3.1-0.8l-1,4l-2.6-0.6l3.2-13.9l5.7,1.3
		c3.6,0.9,5.5,3.2,4.8,6.3c-0.4,2-2,3.5-4,3.7l2.1,5.3L362.1,376.6z M361.4,364.1l-3-0.7l-1.3,5.5l3,0.7c2.3,0.5,3.7-0.2,4.1-2
		S363.7,364.6,361.4,364.1L361.4,364.1z"/>
	<path class="st7" d="M368.2,370.7c1-4.1,4.9-6.4,9.1-5.4s6.8,4.8,5.8,8.9s-4.9,6.4-9.1,5.4S367.2,374.8,368.2,370.7z M380.6,373.6
		c0.6-2.7-1-5.4-3.7-6c-2.7-0.6-5.4,1-6,3.7c-0.6,2.7,1,5.4,3.7,6c0,0,0,0,0,0c2.6,0.7,5.3-0.9,5.9-3.5
		C380.5,373.8,380.6,373.7,380.6,373.6L380.6,373.6z"/>
	<path class="st7" d="M393.4,383.9l-1.9-4.7l-0.5-0.1l-3.1-0.7l-1,4l-2.6-0.6l3.3-13.9l5.7,1.3c3.6,0.9,5.5,3.2,4.8,6.3
		c-0.4,2-2,3.5-4,3.7l2.1,5.3L393.4,383.9z M392.6,371.4l-3-0.7l-1.3,5.5l3,0.7c2.3,0.5,3.7-0.2,4.1-2S394.9,371.9,392.6,371.4z"/>
</g>
<g id="freepik--Ballon--inject-44">
	<path class="st4" d="M348.7,143.2c0.1,0.1,0.3,0.1,0.4,0.2l1.1,0.6c1.3,0.8,2.6,1.8,3.8,2.8c4.5,3.8,7.8,8.7,9.9,14.2
		c1.4,3.8,2.1,7.8,2.1,11.8c0,4.6-0.8,9.2-2.4,13.6c-1.7,4.8-4.5,9.3-8,13c-1.9,2-4,3.7-6.3,5.1c-2.4,1.4-5,2.5-7.7,3.2
		c-5.4,1.2-10.9,1.5-16.3,0.9c-5.3-0.4-10.3-1.1-15.2-1.3c-4.6-0.3-9.2,0.1-13.6,1.1c-3.9,0.9-7.5,2.7-10.6,5.3
		c-2.5,2.1-4.4,4.9-5.4,8.1c-0.8,2.4-1,4.9-0.7,7.3c0.2,1.6,0.7,3.1,1.5,4.4c0.5,0.9,0.9,1.4,0.9,1.4c-0.3-0.4-0.7-0.9-0.9-1.4
		c-0.8-1.4-1.3-2.9-1.6-4.5c-0.4-2.5-0.2-5,0.6-7.4c1-3.2,2.9-6.1,5.4-8.2c3.1-2.6,6.8-4.5,10.7-5.4c4.5-1.1,9.1-1.5,13.8-1.2
		c4.9,0.2,9.9,0.9,15.2,1.3c5.4,0.5,10.9,0.2,16.2-0.9c2.7-0.7,5.2-1.7,7.6-3.1c2.3-1.4,4.4-3.1,6.2-5c3.5-3.7,6.2-8,7.9-12.8
		c1.6-4.3,2.4-8.8,2.4-13.4c0-4-0.7-7.9-2-11.7c-2.5-7-7.2-13-13.4-17l-1-0.6L348.7,143.2z"/>
	<path class="st0" d="M279.5,17c2.6,7.5,5.2,15.2,5.6,23.2s-1.8,16.4-7.6,21.8c-6.7,6.4-16.6,7.6-25.8,8.5
		c6.6,0.2,13.9,1.8,17.8,7.1c4.5,6.1,3.1,14.8,0,21.7s-7.6,13.4-8.9,20.8c16.1-10.2,37.5-5.4,47.7,10.7c3.6,5.7,5.5,12.3,5.4,19
		c5.7-10.7,15.5-19.5,27.1-22.8s25.2-0.6,33.9,7.8c-14.1-20.3-9-48.2,11.3-62.3c0.3-0.2,0.6-0.4,1-0.7c-5.3,4.4-13.6,3.9-19.3-0.1
		s-8.9-10.7-10.1-17.5s-0.6-13.8,0-20.7c-6,7.8-18.4,9.6-26.4,3.7c-8.1-6-10.2-17-11.6-27c0.7,9.8-6.8,19.5-16.4,21.3
		c-9.6,1.8-20.1-4.7-22.9-14.1"/>
	<path class="st5" d="M343.7,137.6c-0.7,4.7,0.6,9.5,2.1,14.1c0.2,0.9,0.7,1.7,1.3,2.4c0.6,0.7,1.6,0.9,2.5,0.6
		c0.7-0.4,1.3-1.2,1.5-2c0.6-1.8,0.9-3.6,0.9-5.4c1.5,1.1,3.1,2.2,5,2.3s3.9-1.4,3.6-3.2c-0.3-1-0.9-1.9-1.8-2.5l-9.9-9.1
		L343.7,137.6"/>
	<path class="st5" d="M290.9,42.4c0,0-26.3,19.4-18.3,50.5l2.6,0.3l9.3-9.6l12.8,17.8l-1.8-18.1l5.5,4l9.4-19.6c0,0-14-10-12-19.8
		C298.5,47.8,290.3,47.3,290.9,42.4z"/>
	<path class="st5" d="M280.6,108c1.3,8.1,5.3,15.6,11.4,21.2l15.6-9.4C307.6,119.8,287.3,116.1,280.6,108z"/>
	<path class="st5" d="M313.4,128.8c0,0,7.2,11.6,25.5,11c13-0.4,21.4-17,18.1-32.8l-10.6,8l-3.9-2.6v8.4c0,0-4.3,6.2-9.8,2.7
		C332.7,123.4,327.9,133.6,313.4,128.8z"/>
	<path class="st5" d="M320.1,39c-0.6,0.3,12.5,15.7,12.6,25c0,0,4.3-8.5,13.2-8.8c0,0,0.3-7.3,7.5-5.8
		C353.4,49.4,338.1,31.3,320.1,39z"/>
	<path class="st5" d="M362.8,69.3c0,0,6.2,10.9,6,22c0,0-9-9.2-16.2-2.7l-1.8-4.4c0,0,4.3-0.8,4.2-6s-5.1-8.2-5.1-8.2
		S359.8,78.3,362.8,69.3z"/>
	<path class="st4" d="M309.3,96.1c0,0.1-11.4,3-25.5,6.4s-25.6,6-25.7,5.9s11.4-3,25.5-6.4S309.3,96,309.3,96.1z"/>
	<path class="st4" d="M312.3,78c0,0.1-6.2-2-13.8-4.7s-13.6-5-13.6-5.2s6.2,2,13.8,4.7S312.3,77.9,312.3,78z"/>
	<path class="st4" d="M303.3,10.5c0.1,0,4.9,13.5,10.7,30.2S324.3,71,324.2,71s-4.9-13.5-10.7-30.2S303.1,10.6,303.3,10.5z"/>
	<path class="st4" d="M341.4,49.3c0.1,1,0,2-0.1,3c-0.1,1.8-0.4,4.3-0.9,7.1s-1,5.2-1.5,7c-0.2,1-0.5,1.9-0.9,2.8
		c0.1-1,0.3-2,0.5-2.9c0.4-1.8,0.9-4.3,1.3-7s0.8-5.2,1-7C341,51.3,341.1,50.3,341.4,49.3z"/>
	<path class="st4" d="M379.5,51.2c0.1,0.1-8.7,5.4-19.5,11.7s-19.7,11.4-19.8,11.3s8.7-5.4,19.5-11.7S379.4,51.1,379.5,51.2z"/>
	<path class="st4" d="M379.6,99.9c-0.5,0-1,0-1.5-0.1c-0.9-0.1-2.3-0.3-3.9-0.5c-3.3-0.4-7.9-1.1-12.9-2s-9.6-1.8-12.8-2.5
		c-1.6-0.3-3-0.6-3.9-0.9c-0.5-0.1-0.9-0.2-1.4-0.4c0.5,0,1,0.1,1.4,0.2l3.9,0.7l12.9,2.3l12.9,2.2l3.9,0.7
		C378.7,99.6,379.1,99.7,379.6,99.9z"/>
	<path class="st4" d="M365.1,143.1c-0.1,0.1-7.7-8.2-17-18.5s-16.8-18.8-16.6-18.9s7.7,8.2,17,18.6S365.2,143,365.1,143.1z"/>
	<path class="st4" d="M304.5,139.3c0.1-0.4,0.2-0.8,0.4-1.1c0.3-0.7,0.7-1.8,1.2-3c1-2.6,2.5-6.1,4.3-9.9s3.4-7.3,4.6-9.8
		c0.6-1.2,1.1-2.2,1.5-2.9c0.2-0.4,0.4-0.7,0.6-1c-0.1,0.4-0.3,0.8-0.4,1.1l-1.3,3c-1.2,2.6-2.8,6-4.5,9.8c-1.7,3.8-3.2,7.2-4.4,9.8
		c-0.5,1.2-1,2.2-1.4,3C304.9,138.7,304.7,139,304.5,139.3z"/>
	<path class="st4" d="M312.3,89c0-0.1,0.8-0.2,2-0.7c3.2-1.2,5.3-4.2,5.5-7.6c0.1-1.3-0.1-2.1,0-2.1c0.3,0.7,0.4,1.4,0.4,2.1
		c0,3.6-2.3,6.8-5.7,7.9C313.7,89,313,89.1,312.3,89z"/>
	<path class="st4" d="M320.5,103.2c-0.1,0,0.4-0.7,0.6-1.9c0.7-3.2-1.3-6.4-4.5-7.3c-1.2-0.3-2-0.2-2-0.3c0.7-0.2,1.4-0.2,2.1,0
		c3.4,0.7,5.6,3.9,4.9,7.3c0,0.1-0.1,0.3-0.1,0.4C321.3,102.1,321,102.7,320.5,103.2z"/>
	<path class="st4" d="M340,94.7c0,0.1-0.9-0.2-2.3-0.4c-1.9-0.2-3.7,0-5.5,0.7c-1.7,0.7-3.3,1.8-4.5,3.3c-0.9,1.1-1.3,1.9-1.4,1.9
		c0.2-0.8,0.6-1.5,1.1-2.2c2.4-3.2,6.4-4.8,10.3-4.1C338.6,94,339.4,94.3,340,94.7z"/>
	<path class="st4" d="M339.5,88.9c-0.6,0-1.2-0.1-1.7-0.4c-1.3-0.6-2.4-1.6-3.1-2.9c-0.6-1.3-0.8-2.8-0.5-4.2
		c0.1-0.6,0.3-1.1,0.7-1.6c0.1,0-0.2,0.6-0.4,1.7c-0.2,1.3,0,2.7,0.6,3.9c0.6,1.2,1.6,2.2,2.8,2.8C338.9,88.7,339.5,88.8,339.5,88.9
		z"/>
	<path class="st4" d="M333.6,76.3c-0.4,0.4-0.8,0.8-1.3,1.1c-1.1,0.8-2.4,1.3-3.8,1.5c-1.4,0.1-2.8-0.6-3.6-1.7
		c-0.6-0.9-0.4-1.7-0.4-1.7c0.1,0.5,0.4,1,0.6,1.4c0.8,1,2,1.5,3.3,1.4c1.3-0.1,2.5-0.6,3.6-1.3C332.6,76.7,333.1,76.5,333.6,76.3z"
		/>
	<g class="st8">
		<path d="M343.5,138.9c2.1-1,4-2.2,5.8-3.7l1.9,1.7c-2.5,1.8-5.4,3.5-7.6,5.8C343.5,141.4,343.4,140.1,343.5,138.9"/>
	</g>
	<path class="st4" d="M349.9,134.5c-1.6,2.4-4.1,4-6.9,4.5c0-0.1,1.7-0.7,3.6-1.9S349.8,134.4,349.9,134.5z"/>
	<path class="st1" d="M345.9,134.8c-0.3,0.2-0.7,0.4-1.1,0.5c-0.4,0.2-0.9,0.4-1.3,0.5c-0.6,0.2-1.2,0.4-1.8,0.6
		c-1.6,0.4-3.2,0.7-4.8,0.9c-2,0.2-4,0.1-6-0.1c-2-0.3-3.9-0.7-5.8-1.3c-1.5-0.5-3-1.2-4.5-2c-0.6-0.3-1.1-0.7-1.6-1
		c-0.4-0.2-0.8-0.5-1.1-0.8c-0.3-0.2-0.6-0.5-0.9-0.8c0.1-0.1,1.4,1,3.9,2.2c1.4,0.7,2.9,1.3,4.4,1.8c3.7,1.2,7.7,1.7,11.6,1.4
		c1.6-0.1,3.2-0.4,4.7-0.8C344.3,135.4,345.8,134.7,345.9,134.8z"/>
	<path class="st1" d="M346.5,151.2c-0.7-1.2-1.2-2.5-1.3-3.9c-0.3-1.3-0.3-2.8,0-4.1c0.2,0,0.1,1.8,0.5,4S346.6,151.2,346.5,151.2z"
		/>
	<path class="st1" d="M290.7,124.7c-0.6-0.4-1.2-0.9-1.7-1.4c-2.5-2.5-4.6-5.5-6.1-8.8c-0.3-0.7-0.6-1.4-0.8-2.1
		c0.1-0.1,1.5,3,3.8,6.4S290.8,124.6,290.7,124.7z"/>
	<path class="st1" d="M281.3,57.8c0.1,0.1-0.9,1.6-2.3,4.1c-3.5,6.7-5.3,14.2-5.4,21.8c0,2.9,0.1,4.7,0.1,4.7
		c-0.1-0.4-0.2-0.8-0.2-1.2c-0.1-1.1-0.2-2.3-0.2-3.5c-0.1-3.8,0.4-7.6,1.3-11.3c0.9-3.7,2.3-7.3,4.1-10.6c0.7-1.3,1.3-2.3,1.8-3
		C280.7,58.4,281,58.1,281.3,57.8z"/>
	<path class="st1" d="M288.6,49.1c0.1,0.1-0.5,0.8-1.4,1.5s-1.6,1.2-1.7,1.1s0.5-0.8,1.4-1.5S288.6,49,288.6,49.1z"/>
	<path class="st4" d="M309.1,294.6c0.2,0.2,0.4,0.4,0.6,0.7c0.4,0.7,0.6,1.6,0.5,2.4c-0.2,1.3-0.8,2.6-1.7,3.5
		c-1.2,1.3-2.7,2.3-4.3,3c-2,0.9-4.1,1.2-6.2,1c-2.5-0.3-4.8-1.3-6.6-3c-2-1.9-3.3-4.4-3.6-7.1c-0.4-2.9,0.1-5.8,1.3-8.5
		c1.2-2.6,2.7-5.1,4.7-7.2c1.8-2.1,3.7-4,5.2-6c1.5-1.8,2.6-4,3.1-6.3c1.1-5.1-0.6-10.4-4.5-13.7c-0.8-0.7-1.8-1.3-2.7-1.9
		c1,0.4,2,1,2.8,1.8c2.4,2,4.1,4.7,4.8,7.7c0.5,2.1,0.5,4.2,0.1,6.3c-0.6,2.4-1.6,4.6-3.2,6.5c-1.5,2-3.4,3.9-5.2,6
		c-1.9,2.1-3.4,4.5-4.6,7.1c-1.1,2.6-1.6,5.4-1.2,8.2c0.3,2.6,1.5,5,3.4,6.9c1.8,1.6,4,2.6,6.3,2.9c2.1,0.2,4.1-0.1,6-0.9
		c3.5-1.5,5.8-4,5.9-6.2c0.1-0.8,0-1.6-0.4-2.4C309.3,294.9,309.1,294.7,309.1,294.6z"/>
</g>
<g id="freepik--Character--inject-44">
	<path class="st5" d="M106.6,427.8c2.9-13.7,19.7-113.2,19.7-113.2s-12.1,1.9-14.6,6.3c-2.7,4.8-15.7,78.1-17.2,102.9
		c-1.2-0.1-2.4-0.1-3.6,0c-3,0.2-5.9,1.4-8.2,3.5c-2.6,2.7-3.4,6.6-2.2,10.1c0.7,1.8,1.9,3.4,3.5,4.5c-0.2,2.1,0.5,4.7,2.2,5.8
		c2,1.3,4.5,1.2,6.5-0.2c0.6,1.9,2.6,2.9,4.5,2.3c0.8-0.3,1.5-0.8,1.9-1.5c0.8,1.9,3.4,2,5.3,1.3c3.6-1.4,6.2-4.5,7-8.3
		c0.7-3.7-0.1-7.6-2.3-10.7C108.4,429.6,107.5,428.6,106.6,427.8z"/>
	<g class="st8">
		<path d="M109,413.5c-7.2-12.6-10.8-26-5.4-45.5c3.9-14,11.6-28.2,18.7-40.8"/>
	</g>
	<path class="st4" d="M105.1,440.3c0.3-0.2,0.6-0.5,0.9-0.8c0.7-0.8,1-1.9,0.7-2.9c-0.4-1.5-1.7-2.6-3.2-2.8
		c-1.9-0.2-3.8,0.7-4.9,2.2c-1.2,1.5-1.8,3.4-1.8,5.3c-0.1,1.6,0.2,3.1,0.9,4.6c0.6,1.3,1.5,2.5,2.5,3.5c0,0-0.1,0-0.3-0.2
		c-0.2-0.2-0.5-0.4-0.7-0.6c-0.8-0.8-1.4-1.7-1.9-2.7c-0.7-1.5-1-3.1-1-4.8c0-2,0.7-4,1.9-5.6c1.3-1.7,3.3-2.6,5.4-2.3
		c1.7,0.3,3.1,1.5,3.5,3.2c0.2,1.1-0.1,2.3-0.9,3.1c-0.2,0.2-0.5,0.4-0.7,0.5C105.2,440.3,105.1,440.3,105.1,440.3z"/>
	<path class="st4" d="M82.9,441.2c0.3,0.2,0.7,0.3,1,0.5c0.9,0.5,1.9,0.7,2.9,0.8c1.5,0.1,2.9-0.1,4.3-0.8c0.8-0.4,1.5-0.9,2-1.6
		c0.6-0.7,0.8-1.6,0.7-2.5c-0.4-1.6-1.2-3.1-2.4-4.2c-1-1-2.2-1.7-3.5-2.2l-0.6-0.2l0.6-0.2c1.6-0.4,3.1-1,4.6-1.7
		c-0.3,0.3-0.7,0.6-1.1,0.7c-1.1,0.6-2.2,1-3.3,1.4v-0.4c1.4,0.5,2.6,1.2,3.7,2.2c0.6,0.6,1.2,1.2,1.6,2c0.5,0.8,0.8,1.6,1,2.5
		c0.2,1-0.1,2.1-0.8,2.9c-0.6,0.7-1.3,1.3-2.2,1.7c-1.4,0.7-3,1-4.5,0.8c-1-0.1-2-0.5-2.9-1c-0.2-0.1-0.5-0.3-0.7-0.5
		C83,441.2,82.9,441.2,82.9,441.2z"/>
	<path class="st4" d="M92.1,441.3c0.2,0.1-0.4,1.5-0.2,3.3c0.3,1.1,0.6,2.1,1,3.1c-0.9-0.8-1.4-1.9-1.5-3.1
		C91.1,443.5,91.4,442.3,92.1,441.3z"/>
	<path class="st4" d="M99.4,434.3c-0.1-0.4-0.2-0.8-0.5-1.2c-0.2-0.4-0.6-0.7-1-0.9c-0.5-0.2-1.1-0.3-1.6-0.1
		c-1,0.3-1.9,0.9-2.6,1.7c-0.5,0.6-0.8,1.1-0.8,1.1s0.1-0.5,0.5-1.3c0.6-1,1.6-1.7,2.7-2c0.7-0.1,1.3-0.1,1.9,0.2
		c0.5,0.2,0.9,0.6,1.1,1.1C99.7,433.7,99.5,434.3,99.4,434.3z"/>
	<g class="st8">
		<path d="M88.2,430.9c1.6-0.4,3.4,0,4.6,1.2c1-1.2,2.4-2.1,4-2.5c1.6-0.3,3.2,0.6,3.7,2.2c2-0.9,4.4,0,5.3,2
			c0.2,0.4,0.3,0.8,0.3,1.2c-1.8-1.9-4.7-2.2-6.9-0.8c0-1-0.7-1.9-1.7-2.2c-1-0.3-2-0.1-2.8,0.5c-0.8,0.6-1.4,1.4-1.9,2.3
			c-1.1-1.9-2.8-3.3-4.9-4.1"/>
	</g>
	<path class="st7" d="M84.8,440.6c-0.7-0.3-1.3-0.8-1.8-1.4c-2.6-2.9-2.9-7.2-0.8-10.5c0.4-0.7,0.9-1.3,1.5-1.7
		c0.1,0.1-0.6,0.7-1.2,1.9c-1.8,3.2-1.5,7.2,0.7,10C84.1,440,84.8,440.5,84.8,440.6z"/>
	<path class="st5" d="M301.6,245.2c-0.7-1.9-2.5-3.8-4.4-3.3c0.6-1.9-0.4-3.9-2.3-4.5c-0.8-0.3-1.7-0.2-2.5,0.1
		c-0.2-2.4-1.7-4.4-4-5.1c-1.9-0.6-4.4,0.5-5.9,2c-1.9-0.5-3.8-0.5-5.7,0.1c-3.5,1.2-6,4.3-6.4,8c-0.2,3,0.7,6.1,2.5,8.5
		c1.5,2.1,3.3,4,5.2,5.7c-10.3,48.1-63.1,56.5-63.1,56.5l4.9,19.4c50.6-12.5,64.5-52.8,68.3-71.8c0.5,0,0.9,0,1.3,0
		c3.8-0.3,7.3-2.1,9.8-5C302,252.9,302.7,248.9,301.6,245.2z"/>
	<path class="st4" d="M294.7,251.7c0.1,0.1,0.1,0.2,0.1,0.3c0.1,0.3,0.1,0.6,0.1,0.9c-0.1,1.1-0.8,2.1-1.8,2.7
		c-1.6,0.7-3.4,0.5-4.7-0.7c-1.5-1.5-2.1-3.6-1.6-5.7c0.5-2,1.6-3.8,3.1-5.1c1.3-1.1,2.7-1.8,4.3-2.2c1.1-0.3,2.2-0.3,3.3-0.2
		c0.3,0,0.6,0.1,0.9,0.2c0.2,0,0.3,0.1,0.3,0.1c-1.5-0.2-2.9-0.1-4.3,0.3c-1.5,0.4-2.9,1.2-4.1,2.2c-1.5,1.3-2.5,2.9-3,4.8
		c-0.5,1.9,0.1,3.8,1.4,5.2c1.1,1.1,2.8,1.4,4.2,0.8c0.9-0.5,1.6-1.4,1.8-2.4C294.7,252.5,294.7,252.1,294.7,251.7z"/>
	<path class="st4" d="M281.4,234c0,0,0.1,0,0.3,0c0.3,0.1,0.6,0.1,0.8,0.2c1,0.3,1.9,0.9,2.6,1.6c1.1,1.1,1.9,2.5,2.3,4
		c0.2,0.9,0.2,1.9,0,2.8c-0.2,1-0.9,1.9-1.8,2.4c-0.8,0.5-1.7,0.7-2.6,0.8c-2.3,0.3-4.6-0.3-6.6-1.5l0.3-0.2
		c0.5,1.1,0.8,2.3,1.1,3.4c0.1,0.4,0.2,0.9,0.1,1.3c-0.4-1.6-0.9-3.1-1.5-4.6l-0.3-0.6l0.6,0.3c1.2,0.7,2.5,1.2,3.9,1.3
		c1.6,0.2,3.3,0,4.8-0.8c0.8-0.5,1.3-1.2,1.5-2.1c0.2-0.8,0.2-1.7,0-2.5c-0.3-1.4-1-2.8-2-3.8c-0.7-0.7-1.5-1.3-2.5-1.7
		C281.8,234.1,281.4,234,281.4,234z"/>
	<path class="st4" d="M287.3,240.9c0.3-1.1,1.1-2.1,2.1-2.7c1-0.7,2.2-1,3.3-0.8c-1,0.3-2.1,0.7-3.1,1.2
		C288.2,239.6,287.5,241,287.3,240.9z"/>
	<path class="st4" d="M286.5,251.1c0,0-0.3,0.6-1.2,0.8c-0.5,0.1-1.1,0-1.6-0.2c-0.6-0.3-1.1-0.8-1.4-1.4c-0.5-1.1-0.6-2.3-0.2-3.4
		c0.3-0.8,0.6-1.3,0.7-1.2c-0.1,0.5-0.2,0.9-0.3,1.3c-0.3,1-0.2,2.1,0.3,3.1c0.2,0.5,0.6,0.9,1.1,1.2c0.4,0.2,0.9,0.3,1.3,0.3
		C285.7,251.4,286.1,251.3,286.5,251.1z"/>
	<g class="st8">
		<path d="M276.8,244.6c0.7,1.5,2.2,2.6,3.9,2.8c-0.3,1.6-0.1,3.2,0.6,4.7c0.8,1.4,2.7,2.2,4.1,1.5c0.6,2.1,2.8,3.4,4.9,2.8
			c0.4-0.1,0.7-0.3,1.1-0.5c-2.6-0.2-4.7-2.3-5-4.9c-0.8,0.6-1.9,0.7-2.8,0.1c-0.8-0.6-1.3-1.5-1.4-2.5c-0.1-1,0.1-2,0.6-2.9
			c-2.1,0.4-4.4-0.1-6.2-1.2"/>
	</g>
	<path class="st5" d="M147.7,431.7c3.2,13.5,6.4,27,9.5,40.5c-4.9-0.7-9.9,0.2-14.3,2.7c-1.5,0.9-3.1,2.5-2.3,4
		c0.6,1.2,2.3,1.3,3.6,1.2c10.5-0.5,21,0.4,31.6,0l-0.6-41"/>
	<path class="st5" d="M204.7,431.7c-3.2,13.5-6.3,27-9.5,40.5c4.9-0.7,10,0.2,14.3,2.7c1.5,0.9,3.1,2.5,2.3,4
		c-0.6,1.2-2.3,1.3-3.6,1.2c-10.5-0.5-21,0.4-31.6,0l0.6-41"/>
	<g class="st8">
		<path d="M149.9,441.1l1.3,5.4c8.6,0.5,16.9,1.8,24.2,0.2l-0.1-4.7c0,0-8.9-0.5-14-1.8l0,0l2.3,4.3
			C158.9,443.8,154.3,442.7,149.9,441.1z"/>
	</g>
	<g class="st8">
		<path d="M177,446.6c0,0,8.5,2.3,16.7,0.9c6.9-1.2,7.9-2.4,7.9-2.4l2.1-9c0,0-9.6,5.5-24.5,2.5l7.8,3.2h-9.9L177,446.6z"/>
	</g>
	<path class="st5" d="M243.2,379.8c-3.3-6.7-7.5-13-12.3-18.7V361c2.6,0.5,5.3,0.7,8,0.6c-4.7-3.5-8.7-7.8-11.7-12.8
		c-4.1-15.1-8.5-30.2-8.6-45.7l-91.8-0.7c-2.4,18.4-6.7,36.5-12.7,54c-6.3,19-13.5,41.6-0.8,60.2c2.3,3.3,5.2,6.2,8.5,8.5
		c3.9,4.2,8.1,8,12.6,11.6c-0.8-2-1.5-3.9-2.3-5.9l1.6,0.7c9,7.3,19.8,11.9,31.3,13.4l-1.7-4.1c13.1,2.3,26.5,1.6,38.4-4
		c22.3-10.5,34-22.9,36.8-39.2c1.4-8.3-0.2-15.7-2.7-23.1L243.2,379.8z"/>
	<path class="st4" d="M212.9,384.4c0,0-0.1,0-0.4,0s-0.6-0.1-1-0.2c-1.3-0.3-2.6-0.7-3.8-1.1c-4.2-1.6-8.1-4.1-11.3-7.3l0.4-0.3
		c0.4,1.1,0.9,2.3,1.4,3.5c0.8,2.2,1.7,4.3,2.4,6.2l0.6,1.5l-1-1.2c-2.9-3.5-5.3-6.6-7.2-8.9l-2-2.6c-0.3-0.3-0.5-0.6-0.7-1
		c0.3,0.3,0.6,0.5,0.8,0.9l2.1,2.5l7.3,8.8l-0.4,0.2c-0.8-1.9-1.6-4-2.4-6.2c-0.5-1.2-0.9-2.4-1.4-3.5l-0.4-1.1l0.9,0.9
		c3.1,3.1,6.9,5.6,11,7.3c1.2,0.5,2.5,0.9,3.7,1.3C212,384.1,212.5,384.2,212.9,384.4z"/>
	<path class="st4" d="M133.6,366.2c-0.4-0.7-0.8-1.5-1-2.4c-0.7-2-1.1-4.1-1.2-6.1c-0.2-2.1-0.1-4.2,0.2-6.3
		c0.1-0.9,0.3-1.7,0.6-2.5c0,0.9-0.1,1.7-0.3,2.6c-0.2,2-0.2,4.1-0.1,6.2c0.2,2.1,0.5,4.1,1.1,6.1
		C133.3,364.5,133.5,365.4,133.6,366.2z"/>
	<path class="st4" d="M136.7,358.4c-0.3-0.6-0.5-1.2-0.6-1.8c-0.4-1.5-0.6-3-0.6-4.6c0-1.5,0.1-3.1,0.4-4.6c0.1-0.6,0.3-1.2,0.6-1.8
		c-0.3,2.1-0.4,4.3-0.5,6.4C136.1,354.2,136.4,356.3,136.7,358.4z"/>
	<path class="st4" d="M169.3,417.1c-0.2,0-0.4,0-0.6-0.1c-0.4-0.1-0.9-0.2-1.6-0.4c-1.9-0.5-3.8-1.2-5.6-2
		c-6.1-2.6-11.6-6.3-16.3-10.9l0.4-0.3c0.2,0.3,0.4,0.6,0.6,0.9c1.9,2.8,3.4,5.9,4.5,9.2l0.2,0.6l-0.5-0.3c-3.9-2.3-7.2-5.5-9.6-9.3
		c-0.7-1.1-1.3-2.3-1.8-3.4c-0.2-0.4-0.3-0.8-0.4-1c0-0.1-0.1-0.2-0.1-0.4c0.2,0.4,0.4,0.8,0.6,1.2c0.6,1.2,1.2,2.3,1.9,3.4
		c2.4,3.7,5.7,6.9,9.6,9.1l-0.4,0.3c-1-3.2-2.5-6.2-4.4-9l-0.6-0.9l0.4-0.3c4.7,4.6,10.1,8.3,16.1,11c1.8,0.8,3.6,1.5,5.5,2.1
		c0.7,0.2,1.2,0.4,1.5,0.5C169,417,169.1,417,169.3,417.1z"/>
	<path class="st4" d="M122.3,324.1c0,0.1,0,0.2,0,0.2c0,0.2,0,0.4,0,0.7c-0.1,0.6-0.2,1.5-0.3,2.6c-0.3,2.3-0.9,5.5-1.9,9.5
		s-2.3,8.7-4,13.9s-3.5,10.8-5.2,16.9c-1.7,5.6-2.9,11.4-3.8,17.2c-0.7,4.7-0.7,9.5-0.2,14.3c0.4,3.2,1.1,6.4,2.2,9.4
		c0.4,1.1,0.8,1.9,1,2.4l0.3,0.6c0,0.1,0.1,0.1,0.1,0.2c0,0,0-0.1-0.1-0.2s-0.2-0.4-0.3-0.6c-0.3-0.5-0.7-1.4-1.1-2.4
		c-1.2-3-2-6.2-2.4-9.4c-0.6-4.8-0.5-9.6,0.1-14.4c0.8-5.8,2-11.6,3.7-17.3c1.7-6,3.6-11.7,5.2-16.9s3.1-9.8,4.1-13.8s1.7-7.2,2-9.5
		c0.2-1.1,0.3-2,0.4-2.6l0.1-0.7C122.3,324.2,122.3,324.1,122.3,324.1z"/>
	<path class="st7" d="M126.2,421.7c-0.2-0.2-0.4-0.3-0.7-0.5c-0.4-0.4-1-0.9-1.8-1.6c-2.1-2.1-3.9-4.5-5.4-7
		c-2.2-3.8-3.9-7.9-5-12.1c-1.3-5.2-1.9-10.6-1.8-16c0.2-5.4,0.9-10.7,2.1-16c1.1-4.8,2.3-9.1,3.4-12.7s2.1-6.4,2.8-8.4
		c0.3-1,0.6-1.7,0.8-2.3c0.1-0.3,0.2-0.5,0.3-0.8c-0.1,0.3-0.1,0.6-0.2,0.8c-0.2,0.6-0.4,1.3-0.7,2.3c-0.6,2-1.5,4.9-2.6,8.4
		s-2.3,7.9-3.3,12.7c-1.1,5.2-1.8,10.5-2,15.9c-0.1,5.3,0.5,10.7,1.8,15.9c1,4.2,2.7,8.3,4.8,12.1c1.5,2.6,3.2,4.9,5.2,7.1
		c0.7,0.8,1.3,1.3,1.7,1.7C125.9,421.3,126.1,421.5,126.2,421.7z"/>
	<path class="st7" d="M135.6,424.8c-1.7-1.1-3.3-2.3-4.8-3.7c-1.6-1.2-3.1-2.6-4.5-4.1c1.7,1.1,3.3,2.4,4.8,3.7
		C132.7,421.9,134.2,423.3,135.6,424.8z"/>
	<path class="st6" d="M99.4,144.1c-0.8,0.2-19.2,8.7-15.8,33.2c3,21.5,15.8,22,15.8,22l23.7-20.7c0,0-17.2-1.8-21.6-14.4
		C96.9,151.5,99.4,144.1,99.4,144.1z"/>
	<path class="st4" d="M109.7,173.8c0,0.1-1.7,0.1-4.4,0.7c-7,1.6-12.8,6.7-15.4,13.5c-1,2.6-1.2,4.3-1.3,4.2c0-0.4,0-0.8,0.1-1.2
		c0.2-1.1,0.4-2.1,0.8-3.2c2.4-7,8.3-12.2,15.6-13.7c1.1-0.2,2.2-0.4,3.2-0.4C108.9,173.7,109.3,173.7,109.7,173.8z"/>
	<path class="st4" d="M102.7,166c0,0.1-1.4-0.2-3.6,0c-5.9,0.4-11.1,3.8-13.8,9c-1,2-1.4,3.3-1.5,3.3c0-0.3,0.1-0.7,0.2-1
		c0.3-0.9,0.6-1.7,1-2.5c2.7-5.4,8.1-9,14.1-9.2c0.9,0,1.8,0,2.7,0.1C102.1,165.8,102.4,165.9,102.7,166z"/>
	<path class="st4" d="M84.6,161.6c0,0,0-0.2,0.2-0.7c0.3-0.6,0.6-1.1,1-1.7c1.3-1.7,3.1-3,5.1-3.7c2.1-0.7,4.3-0.5,6.3,0.3
		c0.6,0.3,1.2,0.6,1.7,1c0.4,0.3,0.5,0.5,0.5,0.5s-0.8-0.6-2.3-1.1c-1.9-0.7-4-0.8-6-0.2c-2,0.6-3.7,1.8-5,3.4
		C85.1,160.8,84.7,161.7,84.6,161.6z"/>
	<path class="st1" d="M94.8,148.3c0,0-0.5,0.5-1.3,1.5c-1.2,1.3-2.3,2.8-3.3,4.3c-6.8,10.1-7.4,23.1-1.6,33.8
		c0.9,1.6,1.8,3.1,2.9,4.6c0.8,1,1.2,1.6,1.2,1.6c-0.1-0.1-0.3-0.2-0.4-0.4c-0.2-0.2-0.6-0.6-1-1.1c-1.2-1.4-2.2-2.9-3.1-4.5
		c-6.1-10.8-5.5-24.1,1.6-34.2c1-1.5,2.2-2.9,3.5-4.2c0.4-0.5,0.8-0.8,1.1-1C94.5,148.5,94.6,148.4,94.8,148.3z"/>
	<path class="st6" d="M239.6,146.2c0.7,0.2,19.2,8.7,15.7,33.2c-3,21.5-15.7,22-15.7,22l-23.7-20.7c0,0,17.2-1.8,21.6-14.4
		C242.1,153.6,239.6,146.2,239.6,146.2z"/>
	<path class="st4" d="M229.2,175.9c0.4-0.1,0.8-0.1,1.2-0.1c1.1,0,2.2,0.2,3.2,0.4c7.3,1.5,13.2,6.7,15.6,13.7
		c0.4,1,0.6,2.1,0.8,3.2c0.1,0.4,0.1,0.8,0.1,1.2c-0.1,0-0.3-1.7-1.3-4.2c-2.5-6.8-8.3-11.8-15.3-13.5
		C231,175.9,229.2,176,229.2,175.9z"/>
	<path class="st4" d="M236.8,168.2c0.3-0.1,0.6-0.2,0.9-0.2c0.9-0.1,1.7-0.2,2.6-0.1c2.9,0.1,5.7,1.1,8.1,2.7
		c2.4,1.6,4.3,3.8,5.6,6.4c0.4,0.8,0.7,1.6,0.9,2.4c0.1,0.3,0.2,0.6,0.2,0.9c-0.1,0-0.4-1.3-1.4-3.2c-1.3-2.5-3.3-4.6-5.6-6.2
		c-2.3-1.6-5-2.6-7.9-2.8C238.1,168,236.8,168.3,236.8,168.2z"/>
	<path class="st4" d="M254.4,163.8c-0.1,0-0.5-0.9-1.5-2.1c-1.3-1.6-3-2.8-5-3.4c-2-0.6-4.1-0.6-6,0.2c-1.5,0.5-2.3,1.2-2.3,1.1
		s0.1-0.2,0.5-0.5c0.5-0.4,1.1-0.7,1.7-1c2-0.9,4.2-1,6.3-0.3c2,0.7,3.8,2,5.1,3.7c0.4,0.5,0.7,1.1,1,1.7
		C254.3,163.3,254.3,163.5,254.4,163.8z"/>
	<path class="st1" d="M241.3,148.4c0.2,0.4,0.3,0.7,0.4,1.1c0.2,0.5,0.3,0.9,0.4,1.4c0.1,0.6,0.3,1.2,0.3,1.9
		c0.1,0.8,0.2,1.5,0.2,2.3c0,0.9,0,1.8,0,2.6c-0.1,2-0.5,4-1,5.9c-0.6,1.9-1.4,3.8-2.4,5.6c-0.5,0.8-0.9,1.6-1.4,2.2
		c-0.4,0.6-0.9,1.2-1.4,1.8c-0.4,0.5-0.8,0.9-1.3,1.4c-0.3,0.4-0.7,0.7-1.1,1c-0.3,0.3-0.6,0.5-1,0.7c-0.1-0.1,1.3-1.2,3-3.3
		c0.5-0.6,0.9-1.2,1.3-1.8c0.5-0.6,0.9-1.4,1.4-2.2c0.9-1.7,1.7-3.6,2.3-5.5c0.5-1.9,0.9-3.9,1.1-5.8c0-0.9,0.1-1.8,0.1-2.6
		c0-0.8-0.1-1.5-0.1-2.2C241.7,150.1,241.2,148.4,241.3,148.4z"/>
	<path class="st5" d="M154.9,160.3c0,0-3.1,0.9-1.8-11.6l10.7,11.6c0,0-4.4-7.2-5.5-13.4c0,0,13.5,12.5,18.2,13.4
		s36.9,2.7,55.6,18.8s27.3,31.7,29.3,48.5c3.3,27.3-1.6,50.6-14.6,66.2l-0.4-4.5c0,0-13.9,20.1-34.8,25.9s-83.1,0-83.1,0
		s-34.8-9.4-46.9-36.6s-5.4-31.3-5.4-31.3l-5.2,4.9c0,0-1.4-39.2,33.8-67C132.5,163.4,154.9,160.3,154.9,160.3z"/>
	<path class="st4" d="M222.4,310.8c0,0-0.1,0.1-0.2,0.1l-0.7,0.4c-0.6,0.3-1.5,0.8-2.8,1.4c-2.4,1.2-6,2.8-10.6,4.5
		c-5.4,2.1-11,3.6-16.7,4.6c-3.4,0.6-6.9,0.9-10.4,1c-3.8,0.1-7.6-0.3-11.3-1.1l0.2-0.5l8.7,6l1.1,0.7l-1.3-0.3l-2.3-0.5l-20.6-4.4
		l0.2-0.4l4.8,5.1l0.6,0.6l-0.8-0.2c-9.2-2.2-18.2-5.6-26.7-9.9c-3.1-1.6-5.5-3-7.1-3.9c-0.8-0.5-1.4-0.9-1.8-1.1l-0.5-0.3
		c-0.1-0.1-0.2-0.1-0.2-0.1l0.2,0.1l0.5,0.3l1.9,1.1c1.6,0.9,4,2.3,7.1,3.8c8.5,4.2,17.4,7.5,26.6,9.7l-0.2,0.4
		c-1.6-1.6-3.2-3.3-4.9-5.1l-0.6-0.6l0.8,0.2l20.6,4.4l2.3,0.5l-0.2,0.5l-8.7-6l-1-0.7l1.2,0.3c3.7,0.8,7.4,1.1,11.2,1.1
		c3.5,0,6.9-0.3,10.3-0.9c5.7-1,11.2-2.5,16.6-4.5c4.6-1.7,8.1-3.2,10.6-4.3l2.8-1.3l0.7-0.3L222.4,310.8z"/>
	<g class="st8">
		<path d="M222.4,310.8c-16.9,8.5-35.9,14.3-52.5,10.7l8.7,6l-23-4.9c1.6,1.7,3.2,3.4,4.9,5.1c-12.8-3.1-25-8.2-36.2-15.1
			c0,0,18.3,19.1,39.4,20.1C198.5,334.4,222.4,310.8,222.4,310.8z"/>
	</g>
	<path class="st4" d="M105.8,283.9c-0.2-0.1-0.4-0.2-0.6-0.4c-0.4-0.2-1-0.6-1.7-1.1c-2.1-1.4-4-3.1-5.8-4.9
		c-5.9-6-10-13.4-11.8-21.6l0.5-0.1c0,0.1,0,0.2,0,0.4c0.2,5.4,0.3,10.4,0.4,14.9v1.2l-0.5-1.1c-2-4.5-3.3-9.4-3.8-14.3
		c-0.2-1.4-0.2-2.8-0.3-4.2c0-0.5,0-0.9,0-1.1c0-0.1,0-0.3,0-0.4c0,0.1,0,0.3,0,0.4c0,0.3,0,0.7,0.1,1.1c0,1,0.2,2.4,0.4,4.2
		c0.6,4.9,2,9.6,4,14.1l-0.4,0.1c-0.2-4.5-0.3-9.6-0.5-14.9V256l0.5-0.1c1,4.4,2.7,8.7,4.9,12.6c3.1,5.4,7.3,10.1,12.3,13.8
		c0.7,0.5,1.3,0.9,1.7,1.2C105.3,283.6,105.5,283.8,105.8,283.9z"/>
	<path class="st4" d="M244.1,259.2c0,0,0.1-0.2,0.3-0.5l1-1.3c0.4-0.6,0.8-1.3,1.3-2.2l0.7-1.4l0.4-0.8c0.1-0.3,0.2-0.6,0.3-0.9
		c1.8-4.6,2.9-11.4,2.8-19c0-1.1,0-2.1-0.1-3.1l-0.1-2l0.6,1.9c0.7,2,1.3,3.9,1.9,5.6h-0.5c0.9-2.3,1.3-4.7,1.2-7.1
		c0-1.9-0.3-3.8-0.9-5.6c-0.5-1.6-1.2-3.2-2-4.7c0,0,0.1,0.1,0.2,0.3s0.3,0.5,0.6,0.9c0.6,1.1,1.2,2.3,1.6,3.5c0.6,1.9,1,3.8,1,5.7
		c0.1,2.5-0.3,5-1.2,7.3l-0.2,0.6l-0.2-0.7l-1.9-5.6l0.5-0.1c0.1,1.1,0.1,2.1,0.1,3.2c0.1,7.6-1.1,14.5-3,19.1
		c-0.1,0.3-0.2,0.6-0.3,0.9l-0.4,0.8l-0.7,1.4c-0.5,0.8-1,1.6-1.4,2.1l-1,1.2C244.2,259,244.1,259.2,244.1,259.2z"/>
	<path class="st4" d="M199.8,184.9c-0.2,0-0.5,0-0.7,0c-0.4,0-1.1,0-2-0.1c-2.4-0.1-4.9-0.5-7.3-0.9c-8-1.6-15.5-5-22-9.9l0.3-0.4
		l0.2,0.2c3.3,3.3,6.4,6.5,9.2,9.4l0.6,0.6l-0.8-0.2c-2.8-0.6-5.5-1.6-8-3.1c-1.9-1.2-3.7-2.6-5.2-4.3c-1-1.1-1.9-2.3-2.7-3.5
		c-0.3-0.4-0.4-0.8-0.6-1s-0.2-0.4-0.2-0.4c0.3,0.4,0.6,0.9,0.9,1.3c0.8,1.2,1.8,2.3,2.8,3.4c1.5,1.6,3.3,3,5.2,4.1
		c2.4,1.5,5.1,2.5,7.9,3l-0.2,0.4l-9.3-9.4l-0.2-0.2l0.3-0.4c6.4,4.9,13.8,8.3,21.7,10c2.4,0.5,4.8,0.9,7.2,1.1
		c0.9,0.1,1.5,0.1,2,0.2C199.3,184.8,199.6,184.8,199.8,184.9z"/>
	<path class="st1" d="M133.7,171.9c-0.1,0-0.2,0.1-0.2,0.1l-0.7,0.3c-0.6,0.2-1.6,0.5-2.7,1c-29.4,10.9-50.7,36.7-55.9,67.6
		c-0.2,1.2-0.3,2.2-0.4,2.9c0,0.3-0.1,0.6-0.1,0.8c0,0.1,0,0.2-0.1,0.2c0,0,0-0.1,0-0.3s0-0.4,0.1-0.8c0.1-0.7,0.2-1.6,0.4-2.9
		c0.5-3.5,1.3-7,2.3-10.5c1.4-5.1,3.4-10.1,5.7-14.8c5.8-11.7,14.2-21.9,24.7-29.8c4.2-3.2,8.7-6,13.5-8.4c3.2-1.6,6.5-3,9.9-4.2
		c1.2-0.4,2.1-0.7,2.8-0.9l0.7-0.2C133.5,171.9,133.6,171.9,133.7,171.9z"/>
	<path class="st1" d="M88.4,281.4c-0.4-0.3-0.7-0.6-1-1c-0.3-0.3-0.7-0.8-1.1-1.3s-0.9-1.1-1.4-1.8c-1.1-1.6-2.2-3.2-3.1-4.9
		c-1.1-2.1-2-4.3-2.7-6.5c-0.7-2.3-1.3-4.6-1.6-6.9c-0.3-1.9-0.4-3.8-0.4-5.8c0-0.8,0-1.6,0.1-2.2c0-0.6,0.1-1.1,0.2-1.7
		c0-0.5,0.1-0.9,0.2-1.4c0,0.5,0,0.9,0,1.4c0,0.5-0.1,1-0.1,1.7s0,1.4,0,2.2c0,1.9,0.2,3.8,0.5,5.7c0.4,2.3,0.9,4.6,1.6,6.8
		c0.7,2.2,1.6,4.4,2.7,6.5c0.9,1.7,1.8,3.3,2.9,4.9c0.4,0.7,0.9,1.3,1.3,1.8s0.7,1,1,1.3C87.9,280.6,88.2,281,88.4,281.4z"/>
	<path class="st1" d="M96.7,290.8c-0.1,0.1-1-0.1-2-0.8s-1.6-1.5-1.4-1.6s0.8,0.5,1.8,1.2S96.7,290.6,96.7,290.8z"/>
	<path class="st1" d="M157.5,161.9c-2.9-2.5-4.4-6.3-4-10.1c0.2,1.8,0.6,3.6,1.2,5.3C155.5,158.8,156.4,160.4,157.5,161.9z"/>
	<g class="st8">
		<path d="M148.4,272.7c0.6-1,1.2-2,1.8-3c-0.1,0.6,0,1.2,0.4,1.6c0.4,0.4,0.9,0.8,1.4,1c1,0.6,2.3,1,3.3,0.5c1-0.7,1.4-2,1-3.1
			c-0.2-0.9-0.6-1.8-0.9-2.7c-0.3-0.9-0.2-1.9,0.2-2.8c0.7-0.9,1.7-1.4,2.7-1.6c3.9-1.1,7.9-1.6,11.9-1.3c4,0.3,7.9,1.8,11.1,4.2
			c-0.3-1.4-1.5-2.4-2.8-3.2c-5.2-3.1-11.5-4-17.4-2.4c-5.9,1.7-10.6,6-12.9,11.6"/>
	</g>
	<path class="st1" d="M151.1,267.4c0.4,1.7,1.3,3.2,2.6,4.4c0.4,0.5,1.1,0.7,1.7,0.5c0.6-0.3,0.7-1.2,0.6-2c-0.4-2.1-1.1-4.1-2.3-6"
		/>
	<path class="st1" d="M184.8,267.4c-0.4,1.7-1.3,3.2-2.6,4.4c-0.4,0.5-1.1,0.7-1.8,0.5c-0.6-0.3-0.7-1.2-0.6-2
		c0.4-2.1,1.1-4.1,2.3-6"/>
	<path class="st4" d="M189.4,271.9c-0.3,0.2-2.1-2-5.7-4.9c-2.1-1.6-4.3-3-6.8-4.1c-2.9-1.3-6-2-9.2-2.2c-3.1-0.2-6.3,0.4-9.2,1.5
		c-2.4,1-4.5,2.5-6.3,4.4c-3,3.3-3.5,6.2-3.9,6.1c-0.2,0-0.2-0.8,0-2.1c0.5-1.9,1.3-3.6,2.5-5.2c1.8-2.3,4.1-4.1,6.7-5.4
		c3.2-1.5,6.8-2.1,10.3-2c3.5,0.2,6.9,1,10.1,2.6c2.5,1.3,4.9,2.9,6.9,4.9C188.4,269,189.7,271.7,189.4,271.9z"/>
	<g class="st8">
		<path d="M176.1,284.9c0.2,0.3-0.7,1.1-2.4,2c-4.5,2.1-9.7,2.3-14.4,0.6c-1.8-0.7-2.7-1.5-2.5-1.8c0.3-0.7,4.5,0.6,9.7,0.4
			S175.7,284.2,176.1,284.9z"/>
	</g>
	<path class="st1" d="M129.8,211.2c24.8,8.6,51.8,8.8,76.8,0.7c0,0-4.9,35.1-38.3,37S129.8,211.2,129.8,211.2z"/>
	<path class="st4" d="M155.3,217.2c-1.2,8.2,0.1,16.6,3.9,24c0.9,2.1,2.2,3.9,3.9,5.4c1.8,1.5,4.2,1.9,6.3,1.2
		c2-0.8,3.3-2.9,4.2-4.9c4-8.7,4.4-15.8,4.8-25.4C171.1,219.6,163.4,219.2,155.3,217.2z"/>
	<g class="st8">
		<path d="M201.7,230.4c0.1,0.1-0.3,1.2-1.4,3.1c-1.6,2.7-3.7,5.2-6,7.3c-1.6,1.5-3.3,2.9-5.1,4.1c-2.1,1.4-4.3,2.6-6.6,3.6
			c-10.8,4.7-23.2,4.1-33.5-1.6c-2.2-1.2-4.3-2.6-6.3-4.2c-1.7-1.4-3.3-2.9-4.7-4.5c-2.1-2.3-3.9-5-5.2-7.8c-0.9-2-1.2-3.2-1.1-3.3
			s0.8,1,2,2.8c1.6,2.5,3.6,4.9,5.7,7.1c1.5,1.5,3,2.8,4.7,4.1c1.9,1.4,3.9,2.7,6.1,3.8c9.8,5.1,21.3,5.7,31.5,1.5
			c2.2-0.9,4.3-1.9,6.4-3.2c1.8-1.1,3.5-2.3,5.1-3.6c2.3-1.9,4.4-4.1,6.3-6.5C200.8,231.3,201.5,230.3,201.7,230.4z"/>
	</g>
	<g class="st8">
		<path d="M199.1,206c-1-0.2-2.1,0.1-3,0.6c-9.2,4.6-19.6,6.3-29.8,5.1c-10.1-1.3-20.6-4.8-28.3-11.5c-2.1,1.1-2.6,4.1-1.7,6.3
			s2.9,3.8,4.9,5c7,4.4,14.9,6.9,23.2,7.5c8.2,0.6,16.4-0.2,24.4-2.3c3.9-1,8-2.3,10.6-5.4c0.7-0.8,1.2-1.8,1.3-2.8
			C200.7,207.4,200.1,206.4,199.1,206z"/>
	</g>
	<path class="st4" d="M197.8,205.8c0.4,0.5-2.2,3.4-7.8,6.2c-3.2,1.6-6.7,2.8-10.2,3.6c-8.8,1.9-18,1-26.3-2.5
		c-3.4-1.4-6.5-3.2-9.4-5.4c-4.9-3.8-6.9-7.1-6.4-7.6s3.4,1.7,8.4,4.5c13,7.4,28.4,8.9,42.6,4.1
		C194.1,206.8,197.4,205.1,197.8,205.8z"/>
	<path class="st1" d="M162.6,241.1c0,0-0.2-0.2-0.6-0.6c-0.5-0.6-0.9-1.2-1.3-1.9c-1.3-2.2-2.2-4.5-2.7-7c-0.5-2.5-0.7-5-0.5-7.5
		c0.1-0.8,0.2-1.5,0.4-2.3c0.1-0.5,0.2-0.8,0.2-0.8s-0.1,1.2-0.2,3.1c-0.2,5,0.8,9.9,3.2,14.3C162,240.1,162.7,241,162.6,241.1z"/>
	<path class="st4" d="M214.6,209.8c-1,0.6-2.1,1.1-3.3,1.5c-1.1,0.4-2.4,0.9-4,1.4s-3.4,1.1-5.4,1.6s-4.2,1.2-6.6,1.6
		c-1.2,0.2-2.4,0.6-3.7,0.8l-4,0.7c-5.9,0.9-11.9,1.3-17.9,1.4c-6,0-12-0.5-17.9-1.3c-2.7-0.5-5.3-0.9-7.7-1.4
		c-1.2-0.3-2.4-0.5-3.5-0.8l-3.2-0.9c-2-0.5-3.8-1.1-5.4-1.7c-0.8-0.3-1.5-0.5-2.2-0.7l-1.8-0.7c-1.2-0.4-2.3-0.9-3.3-1.5
		c0.1-0.3,4.9,1.6,12.9,3.5l3.1,0.8c1.1,0.2,2.3,0.4,3.4,0.7c2.4,0.5,4.9,0.8,7.6,1.3c5.9,0.7,11.8,1.1,17.7,1.2
		c5.9,0,11.8-0.4,17.7-1.2l3.9-0.6c1.3-0.2,2.5-0.5,3.7-0.7c2.4-0.4,4.6-1,6.6-1.4s3.8-1,5.4-1.4s2.9-0.8,4-1.2
		C212.2,210.3,213.4,210,214.6,209.8z"/>
</g>
<g id="freepik--Floor--inject-44">
	<path class="st4" d="M477,480.1c0,0.1-102,0.3-227.8,0.3s-227.8-0.1-227.8-0.3s102-0.3,227.8-0.3S477,479.9,477,480.1z"/>
</g>
<g id="freepik--Lightning--inject-44">
	<polygon class="st5" points="198.7,153.6 193.3,129.2 206.2,127.8 210.4,106.1 212.3,133 199.1,134.3 	"/>
	<polygon class="st5" points="206,156.8 214.4,139.3 222.9,144.7 235.9,133.4 224.1,150.7 215.5,145.2 	"/>
	<polygon class="st9" points="198.7,153.6 193.3,129.2 206.2,127.8 210.4,106.1 212.3,133 199.1,134.3 	"/>
	<polygon class="st9" points="206,156.8 214.4,139.3 222.9,144.7 235.9,133.4 224.1,150.7 215.5,145.2 	"/>
</g>
</svg>
